<?xml version="1.0" standalone="no"?>
<!DOCTYPE svg PUBLIC "-//W3C//DTD SVG 1.1//EN" "http://www.w3.org/Graphics/SVG/1.1/DTD/svg11.dtd" >
<svg xmlns="http://www.w3.org/2000/svg" xmlns:xlink="http://www.w3.org/1999/xlink" version="1.1">
<metadata>
Created by FontForge 20170731 at Tue Oct  1 19:56:18 2013
 By Aleksey,,,
Copyright (c) 2013 by Akaki Razmadze. All rights reserved.
</metadata>
<defs>
<font id="ArchyEDT-Thin" horiz-adv-x="510" >
  <font-face 
    font-family="Archy EDT"
    font-weight="250"
    font-stretch="normal"
    units-per-em="1000"
    panose-1="2 0 0 0 0 0 0 0 0 0"
    ascent="750"
    descent="-250"
    x-height="490"
    cap-height="680"
    bbox="-44 -218 932 964"
    underline-thickness="50"
    underline-position="-200"
    unicode-range="U+0020-FB04"
  />
<missing-glyph horiz-adv-x="869" 
d="M750 94q-91 -102 -237 -102q-144 0 -258 102q-115 102 -133 247q-18 144 72 247q90 102 234 102q147 0 261 -102q116 -104 134 -247q17 -144 -73 -247zM736 106q87 99 71 235q-18 137 -128 235t-249 98q-136 0 -222 -98q-88 -100 -70 -235q16 -138 127 -235
q110 -98 246 -98q139 0 225 98zM623 197l-149 133l-116 -132q-4 -4 -8 0l-3 3q-5 4 -1 8l116 132l-148 132q-5 5 -2 9l2 2q4 4 9 1l148 -133l117 132q4 4 9 1l2 -2q5 -5 2 -9l-117 -133l149 -133q5 -5 1 -9l-2 -2q-5 -3 -9 0z" />
    <glyph glyph-name="ff" unicode="ff" horiz-adv-x="581" 
d="M135 489h13v102q0 54 36 83t127 29h3q6 0 6 -6v-3q1 -6 -6 -6h-3q-82 0 -114.5 -25.5t-32.5 -71.5v-102h267v102q0 54 36 83t127 29h3q6 0 6 -6v-3q1 -6 -6 -6h-3q-82 0 -114.5 -25.5t-32.5 -71.5v-102h131q6 0 6 -6l1 -3q0 -6 -6 -6h-131l-1 -679q0 -6 -6 -6h-4
q-6 0 -6 6l1 679h-267l-1 -679q0 -6 -6 -6h-4q-6 0 -6 6l1 679h-70q-7 0 -7 6v1q-2 6 6 6z" />
    <glyph glyph-name="fi" unicode="fi" horiz-adv-x="488" 
d="M447 482v-476q0 -6 -6 -6h-4q-6 0 -6 6v468h-267v-679q0 -6 -6 -6h-4q-6 0 -6 6v679h-70q-5 0 -5 6l-1 1q0 6 6 6l57 2h13v98q0 54 36 83t127 29h99q5 0 5 -6l1 -3q0 -6 -6 -6h-99q-82 0 -114 -25.5t-33 -71.5v-98h276q8 0 7 -7z" />
    <glyph glyph-name="fl" unicode="fl" horiz-adv-x="515" 
d="M447 693v-687q0 -6 -6 -6h-4q-6 0 -6 6v678h-120q-82 0 -114 -25.5t-33 -71.5v-98h130q6 0 6 -6l1 -3q0 -6 -6 -6h-131v-679q0 -6 -6 -6h-4q-6 0 -6 6v679h-70q-5 0 -5 6l-1 1q0 6 6 6l57 2h13v98q0 54 35.5 83t127.5 29h129q7 0 7 -6z" />
    <glyph glyph-name="ffi" unicode="ffi" horiz-adv-x="771" 
d="M135 489h13v102q0 54 36 83t127 29h3q6 0 6 -6v-3q1 -6 -6 -6h-3q-82 0 -114.5 -25.5t-32.5 -71.5v-102h268v98q0 54 35.5 83t126.5 29h99q5 0 6 -6v-3q0 -6 -5 -6h-99q-82 0 -114.5 -25.5t-32.5 -71.5v-98h276q7 0 7 -7l-1 -476q0 -6 -5 -6h-4q-7 0 -7 6l1 468h-267
l-1 -679q0 -6 -5 -6h-4q-7 0 -7 6l1 679h-267l-1 -679q0 -6 -6 -6h-4q-6 0 -6 6l1 679h-70q-7 0 -7 6v1q-2 6 6 6z" />
    <glyph glyph-name="ffl" unicode="ffl" horiz-adv-x="798" 
d="M731 693l-1 -687q0 -6 -5 -6h-4q-7 0 -7 6l1 678h-120q-82 0 -114.5 -25.5t-32.5 -71.5v-98h130q5 0 5 -6l1 -3q0 -6 -5 -6h-131l-1 -679q0 -6 -5 -6h-4q-7 0 -7 6l1 679h-267l-1 -679q0 -6 -6 -6h-4q-6 0 -6 6l1 679h-70q-7 0 -7 6v1q-2 6 6 6l57 2h13v102q0 54 36 83
t127 29h3q6 0 6 -6v-3q1 -6 -6 -6h-3q-82 0 -114.5 -25.5t-32.5 -71.5v-102h268v98q0 54 35 83t127 29h129q7 0 8 -6z" />
    <glyph glyph-name=".notdef" horiz-adv-x="869" 
d="M750 94q-91 -102 -237 -102q-144 0 -258 102q-115 102 -133 247q-18 144 72 247q90 102 234 102q147 0 261 -102q116 -104 134 -247q17 -144 -73 -247zM736 106q87 99 71 235q-18 137 -128 235t-249 98q-136 0 -222 -98q-88 -100 -70 -235q16 -138 127 -235
q110 -98 246 -98q139 0 225 98zM623 197l-149 133l-116 -132q-4 -4 -8 0l-3 3q-5 4 -1 8l116 132l-148 132q-5 5 -2 9l2 2q4 4 9 1l148 -133l117 132q4 4 9 1l2 -2q5 -5 2 -9l-117 -133l149 -133q5 -5 1 -9l-2 -2q-5 -3 -9 0z" />
    <glyph glyph-name=".null" horiz-adv-x="0" 
 />
    <glyph glyph-name="nonmarkingreturn" horiz-adv-x="333" 
 />
    <glyph glyph-name="space" unicode=" " horiz-adv-x="250" 
 />
    <glyph glyph-name="exclam" unicode="!" horiz-adv-x="234" 
d="M168 390l-2 -239q-2 -6 -7 -6h-2q-5 0 -5 6l-2 239l-1 284q1 6 7 6h6q5 0 5 -6zM167 81v-75q-1 -6 -7 -6h-3q-7 0 -6 6v75q1 6 7 6h4q5 0 5 -6z" />
    <glyph glyph-name="quotedbl" unicode="&#x22;" horiz-adv-x="315" 
d="M185 674l-3 -178q2 -6 -5 -6h-2q-5 0 -7 6l-1 178q-1 6 6 6h6q6 0 6 -6zM290 674l-3 -178q2 -6 -5 -6h-2q-6 0 -7 6l-1 178q-2 6 6 6h6q6 0 6 -6z" />
    <glyph glyph-name="numbersign" unicode="#" horiz-adv-x="631" 
d="M142 269h92l39 140h-94q-5 0 -6 6v3q-1 6 6 6h98l30 112q3 6 9 6h5q5 0 3 -6l-30 -112h178l30 112q3 6 9 6h5q5 0 3 -6l-30 -112h80q5 0 6 -6v-3q1 -6 -6 -6h-84l-39 -140h86q6 0 6 -6v-3q2 -6 -6 -6h-90l-30 -109q-2 -6 -7 -6h-6q-6 0 -4 6l30 109h-178l-30 -109
q-3 -6 -7 -6h-6q-6 0 -4 6l30 109h-88q-4 0 -6 6v3q0 6 6 6zM290 409l-39 -140h178l39 140h-178z" />
    <glyph glyph-name="dollar" unicode="$" horiz-adv-x="522" 
d="M457 458v29q0 14 -1 20q-3 30 -38 50.5t-104 20.5q-73 0 -107.5 -22.5t-34.5 -60.5l1 -42v-14q6 -45 67 -62l163 -46q71 -20 77 -71l1 -15l1 -61q0 -44 -40 -70.5t-121 -27.5l1 -80q0 -6 -6 -6h-3q-6 0 -6 6l-1 80q-72 1 -110.5 25t-43.5 62q-1 5 -1 15v27q-1 3 1 4t5 1
h5q5 0 5 -5v-26q0 -8 1 -13q8 -75 147 -75q75 0 112.5 23t38.5 61l-1 59v14q-6 40 -70 58l-162 47q-27 8 -50.5 28t-26.5 47v14v43q3 94 151 97v82q1 6 7 6h3q7 0 5 -6v-82q70 -1 107.5 -24t42.5 -60q1 -8 1 -20v-30q0 -5 -5 -5h-5q-6 0 -6 5z" />
    <glyph glyph-name="percent" unicode="%" horiz-adv-x="697" 
d="M136 495v111q-2 80 118 80q108 0 116 -67q1 -4 1 -21v-110q0 -39 -26 -59.5t-91 -20.5q-109 0 -117 67q0 1 -0.5 9t-0.5 11zM355 488v111q0 14 -1 17q-5 56 -100 56q-104 0 -102 -66v-116q0 -7 1 -13q5 -55 101 -55q103 0 101 66zM625 72v111v17q-7 56 -101 56
q-104 0 -102 -66v-116q0 -7 1 -13q7 -55 101 -55q103 0 101 66zM406 79v111q-2 80 118 80q108 0 116 -67q1 -4 1 -21v-110q0 -39 -26 -59.5t-91 -20.5q-109 0 -117 67q0 1 -0.5 9t-0.5 11zM540 674l-289 -668q-1 -6 -7 -6h-6q-4 0 -4 6l289 668q5 6 9 6h5q7 0 3 -6z" />
    <glyph glyph-name="ampersand" unicode="&#x26;" horiz-adv-x="651" 
d="M327 375h310q5 0 6 -6v-3q1 -6 -6 -6h-88v-240q-2 -128 -201 -128q-185 0 -200 112v16v130q0 52 21 79.5t81 38.5q-48 9 -69.5 31.5t-26.5 58.5q-1 9 -1 27l-1 75q0 63 38 95.5t138 32.5q160 0 173 -102l1 -9l2 -30q1 -6 -6 -6h-4q-6 0 -6 6l-2 30l-1 8q-3 28 -18 47
t-40 27t-47.5 11t-51.5 3q-78 0 -119 -24.5t-41 -88.5l1 -75q0 -18 1 -26q5 -42 39 -63t118 -21zM347 7q186 0 186 113v240h-211q-97 0 -128 -27t-30 -83v-130v-15q12 -98 183 -98z" />
    <glyph glyph-name="quotesingle" unicode="'" horiz-adv-x="210" 
d="M185 674l-3 -178q2 -6 -5 -6h-2q-5 0 -7 6l-1 178q-1 6 6 6h6q6 0 6 -6z" />
    <glyph glyph-name="parenleft" unicode="(" horiz-adv-x="352" 
d="M137 -106v702q0 54 35.5 83t127.5 29h3q5 0 5 -6l1 -3q0 -6 -6 -6h-3q-82 0 -114 -25.5t-33 -71.5v-695v-21q10 -83 148 -83h3q4 0 4 -6l1 -3q0 -6 -6 -6h-3q-150 0 -162 94q-2 11 -1 18z" />
    <glyph glyph-name="parenright" unicode=")" horiz-adv-x="352" 
d="M272 596v-702q0 -54 -35.5 -83t-127.5 -29h-3q-5 0 -5 6l-1 3q0 6 6 6h3q82 0 114 25.5t33 71.5v695q0 16 -1 23q-9 81 -147 81h-3q-4 0 -4 6l-1 3q0 6 6 6h3q150 0 162 -94q3 -8 1 -18z" />
    <glyph glyph-name="asterisk" unicode="*" horiz-adv-x="484" 
d="M307 407q-6 0 -6 6l3 137l-116 -77q-6 -3 -8 2l-3 3q-1 1 -0.5 4t2.5 4l119 73l-119 74q-4 3 -2 7l1 3q3 6 9 2l116 -76l-1 136q-2 6 6 6h3q6 0 6 -6l-3 -137l116 78q5 5 9 -2l2 -3q5 -5 -2 -8l-118 -74l118 -73q5 -2 2 -8v-2q-3 -6 -10 -2l-116 76l1 -137q2 -6 -6 -6h-3
z" />
    <glyph glyph-name="plus" unicode="+" horiz-adv-x="595" 
d="M354 144l-24 188h-187q-6 0 -6 6l-1 3q0 6 6 6h187l-24 188q0 6 6 6h3q6 0 6 -6l24 -188h189q6 0 6 -6l1 -3q0 -6 -6 -6h-189l24 -188q0 -6 -6 -6h-3q-6 0 -6 6z" />
    <glyph glyph-name="comma" unicode="," horiz-adv-x="196" 
d="M90 26v55q2 6 7 6h4q7 0 5 -6v-55q2 -71 -62 -97q-5 -2 -7 2l-3 4q-2 5 3 8q30 15 41.5 34.5t11.5 48.5z" />
    <glyph glyph-name="hyphen" unicode="-" horiz-adv-x="473" 
d="M135 297h269q6 0 6 -6l1 -3q0 -6 -6 -6h-269q-6 0 -6 6l-1 3q0 6 6 6z" />
    <glyph glyph-name="period" unicode="." horiz-adv-x="196" 
d="M111 81v-75q1 -6 -5 -6h-4q-7 0 -7 6v75q0 6 5 6h5q5 0 6 -6z" />
    <glyph glyph-name="slash" unicode="/" horiz-adv-x="371" 
d="M342 693l-230 -835q-3 -6 -9 -6h-5q-5 0 -3 6l230 835q2 6 8 6h5q7 0 4 -6z" />
    <glyph glyph-name="zero" unicode="0" horiz-adv-x="447" 
d="M181 -4q-69 0 -102 29t-33 119v405q0 79 27 115t108 36h87q69 0 102 -29t33 -119v-405q0 -79 -27 -115t-108 -36h-87zM256 684h-52q-84 0 -113 -27.5t-29 -103.5v-404q0 -83 31 -110t100 -27h52q84 0 113 27.5t29 103.5v404q0 83 -31 110t-100 27z" />
    <glyph glyph-name="one" unicode="1" horiz-adv-x="385" 
d="M10 545l187 157q1 2 6 0.5t5 -5.5l-1 -682h161q6 0 6 -6l1 -3q0 -6 -6 -6h-337q-5 0 -5 6l-1 3q0 6 5 6h160l1 664l-176 -146q-6 -3 -8 1q-4 7 2 11z" />
    <glyph glyph-name="two" unicode="2" horiz-adv-x="428" 
d="M42 497q-6 0 -6 6v46q0 79 27 115t108 36h87q68 0 101.5 -30.5t33.5 -120.5q0 -49 -18 -93t-47.5 -78t-65 -66.5t-71 -64t-65 -65t-48 -76t-18.5 -90.5l333 -1q5 0 6 -6v-3q0 -6 -6 -6h-345q-6 0 -6 6q0 53 18.5 100t48 82t65 67.5t71.5 64t65.5 64t48 74.5t18.5 89
q0 83 -31 110t-100 27h-52q-84 0 -113 -27.5t-29 -103.5v-50q0 -6 -6 -6h-4z" />
    <glyph glyph-name="three" unicode="3" horiz-adv-x="441" 
d="M45 249h4q6 0 6 -6v-101q0 -76 29 -103.5t113 -27.5h62q69 0 100 27t31 110v102q0 57 -35.5 83.5t-122.5 26.5h-50q-6 0 -7 6v3q-1 6 6 6h46q51 0 83.5 7.5t48 23.5t21 33.5t5.5 45.5v67q0 83 -31 110t-100 27h-52q-84 0 -113 -27.5t-29 -103.5v-50q0 -6 -6 -6h-4
q-6 0 -6 6v46q0 79 27 115t108 36h87q69 0 102 -29t33 -119v-72q-1 -52 -20 -79t-75 -38q54 -10 77 -37t23 -81v-107q0 -90 -33 -119t-102 -29h-97q-81 0 -108 36t-27 115v97q0 6 6 6z" />
    <glyph glyph-name="four" unicode="4" horiz-adv-x="444" 
d="M23 243q-5 0 -5 7q0 6 2 10l283 436q2 5 7 5q8 0 8 -6q0 -3 -1 -4l-279 -433h330l-1 316q1 6 7 6h4q5 0 5 -5v-1v-316h36q6 0 6 -8q0 -7 -6 -7h-36l1 -237q0 -6 -6 -6h-4q-6 0 -6 6l-1 237h-344z" />
    <glyph glyph-name="five" unicode="5" horiz-adv-x="434" 
d="M396 148q0 -90 -33 -119t-102 -29h-87q-81 0 -108 36t-27 115v93q0 6 6 6h4q6 0 6 -6v-97q0 -76 29 -103.5t113 -27.5h52q69 0 100 27t31 110v109q0 83 -31 110.5t-100 27.5h-182q-5 0 -7 6l21 268q1 6 6 6h279q6 0 6 -6v-3q2 -6 -5 -6h-270l-21 -250h185
q66 0 100.5 -29.5t34.5 -118.5v-119z" />
    <glyph glyph-name="six" unicode="6" horiz-adv-x="445" 
d="M256 689h-52q-84 0 -113 -27.5t-29 -103.5v-209q8 31 39 49t80 18h87q69 0 102 -29t33 -119v-121q0 -79 -27 -115t-108 -36h-87q-69 0 -102 29t-33 119v121v289q0 79 27 115t108 36h87q69 0 102 -29t33 -119v-50q0 -7 -8 -7t-8 7v45q0 83 -31 110t-100 27zM256 400h-52
q-78 0 -110 -29t-32 -88v-134q0 -83 31 -110t100 -27h52q84 0 113 27.5t29 103.5v120q0 83 -31 110t-100 27z" />
    <glyph glyph-name="seven" unicode="7" horiz-adv-x="443" 
d="M32 700h389q5 0 5 -5l1 -2q0 -2 -1 -5t-1 -4l-267 -678q-3 -6 -8 -6h-6q-8 0 -5 6l269 679h-375q-7 0 -7 6l-1 3q0 6 7 6z" />
    <glyph glyph-name="eight" unicode="8" horiz-adv-x="436" 
d="M59 574q0 77 34.5 104t100.5 27h47q67 0 101 -27.5t34 -100.5v-46q0 -56 -17.5 -84t-62.5 -36q53 -6 76.5 -39t23.5 -104v-121q0 -79 -27 -115t-108 -36h-87q-69 0 -102 29t-33 119v121q0 71 24.5 105t75.5 40q-80 13 -80 118v46zM249 400h-55q-75 -1 -107 -28t-32 -110
v-113q0 -83 31 -110t100 -27h52q84 0 113 27.5t29 103.5v120q0 83 -31 110t-100 27zM229 689h-12q-76 0 -109 -23.5t-33 -94.5v-38q0 -66 31.5 -91t99.5 -27h29q65 0 95 25t30 87v45q0 69 -31 93t-100 24z" />
    <glyph glyph-name="nine" unicode="9" horiz-adv-x="445" 
d="M193 12h52q84 0 113 27.5t29 103.5v209q-8 -31 -39 -49t-80 -18h-87q-69 0 -102 29t-33 119v121q0 79 27 115t108 36h87q69 0 102 -29t33 -119v-121v-289q0 -79 -27 -115t-108 -36h-87q-69 0 -102 29t-33 119v50q0 7 8 7t8 -7v-45q0 -83 31 -110t100 -27zM193 301h52
q78 0 110 29t32 88v134q0 83 -31 110t-100 27h-52q-84 0 -113 -27.5t-29 -103.5v-120q0 -83 31 -110t100 -27z" />
    <glyph glyph-name="colon" unicode=":" horiz-adv-x="196" 
d="M135 81v-75q0 -6 -6 -6h-4q-6 0 -6 6v75q-1 6 6 6h4q6 0 6 -6zM135 484v-75q1 -6 -6 -6h-4q-5 0 -6 6v75q0 6 6 6h4q6 0 6 -6z" />
    <glyph glyph-name="semicolon" unicode=";" horiz-adv-x="253" 
d="M188 484v-75q0 -6 -6 -6h-4q-6 0 -6 6v75q-2 6 6 6h4q4 0 6 -6zM172 26v55q1 6 5 6h5q6 0 6 -6v-55q-2 -71 -62 -97q-5 -2 -6 1l-4 5q-3 6 3 8q53 27 53 83z" />
    <glyph glyph-name="less" unicode="&#x3c;" horiz-adv-x="553" 
d="M472 498l-317 -157l356 -157q6 -3 7 -7v-6q1 -3 -1 -3.5t-4 0.5l-369 164q-7 3 -7 7l-1 4q0 4 5 7l329 164q6 2 7 -3v-6q1 -4 -5 -7z" />
    <glyph glyph-name="equal" unicode="=" horiz-adv-x="594" 
d="M122 425h390q6 0 7 -6v-3q1 -6 -5 -6h-390q-6 0 -7 6v3q-1 6 5 6zM141 270h390q5 0 7 -6v-3q2 -6 -5 -6h-390q-5 0 -7 6v3q-2 6 5 6z" />
    <glyph glyph-name="greater" unicode="&#x3e;" horiz-adv-x="553" 
d="M459 341l-357 157q-6 3 -7 7v6q-1 3 1 3.5t4 -0.5l369 -164q7 -3 7 -7l1 -4q0 -4 -5 -7l-329 -164q-6 -2 -7 3v6q-1 4 5 7z" />
    <glyph glyph-name="question" unicode="?" horiz-adv-x="569" 
d="M317 151l1 87q0 66 68 100l50 26q62 31 62 92v101q0 13 -1 20q-6 46 -44.5 71t-127.5 25q-97 0 -134.5 -30.5t-37.5 -85.5v-54q0 -6 -6 -6h-4q-6 0 -6 6v54q1 64 41 97.5t147 33.5q95 0 138 -28.5t50 -80.5q1 -7 1 -22v-101q-1 -72 -74 -108l-50 -26q-57 -29 -56 -84
l-1 -87q0 -6 -6 -6h-4q-4 0 -6 6zM333 81v-75q0 -6 -6 -6h-4q-6 0 -6 6v74q-2 7 6 7h4q5 0 6 -6z" />
    <glyph glyph-name="at" unicode="@" horiz-adv-x="764" 
d="M602 -96h-191q-259 0 -273 116q-1 12 -1 38l1 411q0 63 60.5 97t213.5 34q259 0 273 -116q1 -3 1 -10v-12l-1 -323q0 -106 -82 -106q-33 0 -54.5 17.5t-26.5 48.5q-80 -66 -164 -66q-101 0 -109 78q-3 16 0 33l21 202q6 54 34.5 83.5t95.5 29.5q77 0 149 -64l7 50
q0 6 6 6h2q6 0 6 -6l-32 -306q-2 -17 0 -31q8 -60 66 -60q65 0 65 91l1 323q0 15 -1 19q-12 104 -257 104q-258 0 -258 -116l-1 -418q0 -22 1 -28q6 -51 65 -77.5t192 -26.5h191q6 0 6 -5l1 -5q0 -5 -7 -5zM286 346l-21 -202q-2 -19 -1 -28q8 -68 96 -68q79 0 161 67l1 24
l24 238q-67 67 -147 67q-104 0 -113 -98z" />
    <glyph glyph-name="A" unicode="A" horiz-adv-x="503" 
d="M290 680h5q5 0 7 -6l211 -668q1 -6 -4 -6h-5q-6 0 -7 6l-72 226h-266l-71 -226q-3 -6 -7 -6h-4q-7 0 -5 6l209 668q3 6 9 6zM421 247l-107 339l-23 72q-5 -23 -19 -69l-108 -342h257z" />
    <glyph glyph-name="B" unicode="B" horiz-adv-x="573" 
d="M342 0h-187q-6 0 -6 6l-1 668q2 6 7 6h163q180 0 192 -111q2 -12 2 -20v-72q-1 -48 -24.5 -78.5t-79.5 -43.5q116 -18 127 -106q0 -3 0.5 -9.5t0.5 -9.5v-99q0 -63 -43 -97t-151 -34zM342 346h-177l-1 -331h177q98 0 138.5 30.5t40.5 85.5v99q0 12 -1 18q-12 98 -177 98z
M318 665h-153v-304h168q163 0 163 116v72q0 3 -0.5 9t-0.5 9q-12 98 -177 98z" />
    <glyph glyph-name="C" unicode="C" horiz-adv-x="537" 
d="M518 188v-65q0 -63 -42 -97t-149 -34q-95 0 -139 28t-50 80q-1 7 -1 23v434q0 63 41.5 97t148.5 34q96 0 139.5 -28.5t49.5 -81.5q2 -14 2 -21l-1 -54q1 -6 -5 -6h-4q-6 0 -7 6l1 54q0 3 -0.5 9.5t-0.5 9.5q-12 97 -174 97q-97 0 -135.5 -30.5t-38.5 -85.5v-434
q0 -6 2 -20q10 -96 171 -96q98 0 137 30.5t39 85.5v65q0 6 5 6h4q7 0 7 -6z" />
    <glyph glyph-name="D" unicode="D" horiz-adv-x="591" 
d="M342 0h-187q-6 0 -6 6l-1 668q2 6 6 6h188q178 0 192 -111q2 -14 2 -20v-418q0 -63 -43 -97t-151 -34zM342 665h-177l-1 -650h177q98 0 138.5 30.5t40.5 85.5v418q0 3 -0.5 9t-0.5 9q-12 98 -177 98z" />
    <glyph glyph-name="E" unicode="E" horiz-adv-x="534" 
d="M509 0h-355q-5 0 -5 6l-1 668q2 6 7 6h341q5 0 5 -6l1 -3q0 -6 -6 -6h-331v-297h312q5 0 6 -6v-3q1 -6 -6 -6h-312l-1 -338h344q6 0 6 -6l1 -3q0 -6 -6 -6z" />
    <glyph glyph-name="F" unicode="F" horiz-adv-x="536" 
d="M155 680h368q5 0 5 -6l1 -3q0 -6 -6 -6h-358l-1 -300h339q6 0 6 -6l1 -3q0 -6 -6 -6h-339v-344q0 -6 -6 -6h-4q-6 0 -6 6l-1 668q2 6 7 6z" />
    <glyph glyph-name="G" unicode="G" horiz-adv-x="555" 
d="M338 301h174q6 0 6 -6v-172q0 -63 -42 -97t-149 -34q-95 0 -139 28t-50 80q-1 7 -1 23v434q0 63 41.5 97t148.5 34q96 0 139.5 -28.5t49.5 -81.5q2 -14 2 -21l-1 -54q1 -6 -5 -6h-4q-6 0 -7 6l1 54q0 3 -0.5 9.5t-0.5 9.5q-12 97 -174 97q-97 0 -135.5 -30.5t-38.5 -85.5
v-434q0 -6 2 -20q10 -96 171 -96q97 0 136 30t39 84l1 165h-163q-5 0 -7 6v3q0 6 6 6z" />
    <glyph glyph-name="H" unicode="H" horiz-adv-x="603" 
d="M164 674l1 -297h355l-1 297q0 6 7 6h4q6 0 5 -6l1 -668q0 -6 -6 -6h-4q-6 0 -6 6v356h-355v-356q0 -6 -6 -6h-4q-6 0 -6 6l-1 668q2 6 7 6h4q5 0 5 -6z" />
    <glyph glyph-name="I" unicode="I" horiz-adv-x="232" 
d="M164 674l1 -668q0 -6 -6 -6h-4q-6 0 -6 6l-1 668q2 6 7 6h4q7 0 5 -6z" />
    <glyph glyph-name="J" unicode="J" horiz-adv-x="481" 
d="M99 155v-32q0 -16 1 -24q5 -44 39 -68t112 -24q88 0 120.5 30t32.5 86v551q0 6 5 6h4q7 0 7 -6v-551q0 -64 -36 -97.5t-133 -33.5q-84 0 -122.5 27.5t-44.5 78.5q-1 8 -1 25v32q-1 6 6 6h4q5 0 6 -6z" />
    <glyph glyph-name="K" unicode="K" horiz-adv-x="519" 
d="M222 344l313 -338q4 -6 -3 -6h-5q-6 0 -12 6l-306 329h-44v-329q0 -6 -6 -6h-4q-6 0 -6 6l-1 668q2 6 7 6h4q7 0 5 -6l1 -324h41l278 325q5 5 11 5h7q8 0 2 -6z" />
    <glyph glyph-name="L" unicode="L" horiz-adv-x="501" 
d="M164 674v-659h329q6 0 6 -6l1 -3q0 -6 -6 -6h-340q-5 0 -5 6l-1 668q2 6 7 6h4q7 0 5 -6z" />
    <glyph glyph-name="M" unicode="M" horiz-adv-x="708" 
d="M640 674l1 -668q0 -6 -6 -6h-4q-6 0 -6 6v632l-2 -6q-2 -7 -5 -15.5t-6 -13.5l-205 -493q-3 -6 -9 -6h-8q-6 0 -7 6l-208 496q-3 5 -11 32v-632q0 -6 -6 -6h-3q-6 0 -6 6l-1 668q0 6 6 6h2q5 0 6 -4l219 -521q11 -26 14 -36l12 36l217 521q1 4 6 4h5q7 0 5 -6z" />
    <glyph glyph-name="N" unicode="N" horiz-adv-x="602" 
d="M533 674l1 -668q0 -6 -6 -6h-2q-4 0 -6 3l-329 590q-4 7 -13.5 26t-13.5 26v-639q0 -6 -6 -6h-3q-6 0 -6 6l-1 668q2 6 7 6h1q4 0 5 -3l330 -590l28 -51l-1 638q2 6 7 6h3q6 0 5 -6z" />
    <glyph glyph-name="O" unicode="O" horiz-adv-x="579" 
d="M137 123v434q0 63 42.5 97t150.5 34q178 0 192 -111q2 -14 2 -20v-434q0 -63 -43 -97t-151 -34q-178 0 -192 109q-1 7 -1 22zM508 123v434q0 3 -0.5 9t-0.5 9q-12 98 -177 98q-98 0 -137.5 -30.5t-39.5 -85.5v-434q0 -3 0.5 -9t0.5 -9q12 -98 175 -98q98 0 138.5 30.5
t40.5 85.5z" />
    <glyph glyph-name="P" unicode="P" horiz-adv-x="555" 
d="M342 282h-177v-276q0 -6 -6 -6h-4q-6 0 -6 6l-1 668q2 6 6 6h188q179 0 193 -114q1 -7 1 -20v-136q-1 -62 -43.5 -95t-150.5 -33zM342 665h-177v-368h177q99 0 138.5 29.5t39.5 83.5v136q0 12 -1 18q-12 101 -177 101z" />
    <glyph glyph-name="Q" unicode="Q" horiz-adv-x="578" 
d="M127 123v434q0 63 42.5 97t150.5 34q178 0 192 -111q2 -14 2 -20v-434q0 -58 -36 -91.5t-125 -38.5l161 -149q5 -4 0 -8l-2 -3q-4 -4 -8 0l-171 159h-13q-178 0 -192 109q-1 7 -1 22zM498 123v434q0 3 -0.5 9t-0.5 9q-12 98 -177 98q-98 0 -137.5 -30.5t-39.5 -85.5v-434
q0 -3 0.5 -9t0.5 -9q12 -98 175 -98q98 0 138.5 30.5t40.5 85.5z" />
    <glyph glyph-name="R" unicode="R" horiz-adv-x="582" 
d="M341 292h-177l1 -286q0 -6 -6 -6h-4q-6 0 -6 6l-1 668q2 6 6 6h188q179 0 193 -114q1 -7 1 -20l1 -126q0 -53 -31 -84.5t-107 -40.5l151 -289q2 -6 -5 -6h-4q-8 0 -10 6l-149 287q-13 -1 -41 -1zM342 665h-177v-358h177q98 0 138.5 29.5t40.5 83.5l-1 126q0 12 -1 18
q-12 101 -177 101z" />
    <glyph glyph-name="S" unicode="S" horiz-adv-x="559" 
d="M495 504v53q0 6 -2 20q-5 46 -43.5 71t-126.5 25q-98 0 -135.5 -30.5t-37.5 -85.5v-51q0 -10 1 -14q7 -59 73 -85l200 -77q82 -32 91 -102q1 -4 1 -14v-91q0 -63 -43 -97t-151 -34q-178 0 -192 109q-1 7 -1 22v47q0 6 6 6h4q6 0 6 -6v-47q0 -3 0.5 -9.5t0.5 -9.5
q12 -97 175 -97q98 0 138.5 30.5t40.5 85.5v91v6.5t-1 6.5q-7 60 -82 89l-199 77q-74 28 -83 98q-1 5 -1 15v51q0 63 40.5 97t148.5 34q94 0 136.5 -28.5t49.5 -80.5q2 -14 2 -22v-53q1 -6 -6 -6h-4q-6 0 -6 6z" />
    <glyph glyph-name="T" unicode="T" horiz-adv-x="474" 
d="M70 680h413q6 0 6 -6l1 -3q0 -6 -6 -6h-199v-659q0 -6 -6 -6h-4q-6 0 -6 6v659h-198q-7 0 -7 6l-1 3q0 6 7 6z" />
    <glyph glyph-name="U" unicode="U" horiz-adv-x="591" 
d="M158 674v-551q-1 -6 1 -18q12 -98 176 -98q98 0 138 30.5t40 85.5v551q0 6 5 6h4q7 0 7 -6v-551q0 -63 -43 -97t-151 -34q-179 0 -192 111q-1 6 -1 20v551q0 6 5 6h4q7 0 7 -6z" />
    <glyph glyph-name="V" unicode="V" horiz-adv-x="503" 
d="M295 0h-5q-6 0 -8 6l-211 668q-1 6 6 6h4q5 0 6 -6l184 -580l21 -72q15 52 20 69l183 583q3 6 8 6h5q6 0 4 -6l-209 -668q-3 -6 -8 -6z" />
    <glyph glyph-name="W" unicode="W" horiz-adv-x="770" 
d="M434 674l150 -582q2 -9 5.5 -24.5t6 -26t3.5 -11.5q0 7 15 62l148 582q3 6 8 6h5q6 0 4 -6l-169 -668q-2 -6 -8 -6h-5q-7 0 -8 6l-150 589l-13 53q-9 -37 -13 -53l-150 -589q-1 -6 -8 -6h-5q-6 0 -8 6l-171 668q-1 6 6 6h4q5 0 6 -6l150 -582l15 -64q12 47 16 64l148 582
q3 6 8 6h4q4 0 6 -6z" />
    <glyph glyph-name="X" unicode="X" horiz-adv-x="533" 
d="M316 342l202 -336q4 -6 -4 -6h-5q-6 0 -10 6l-193 321l-191 -321q-4 -6 -9 -6h-6q-8 0 -4 6l200 337l-199 331q-2 6 4 6h6q6 0 8 -6l191 -317l182 317q4 6 10 6h7q7 0 2 -6z" />
    <glyph glyph-name="Y" unicode="Y" horiz-adv-x="493" 
d="M83 674l192 -344q1 -1 6 -11l7 -14q7 16 12 25l189 344q3 6 9 6h6q8 0 3 -6l-212 -382l1 -286q0 -6 -6 -6h-4q-6 0 -6 6v285l-214 383q-2 6 5 6h5q4 0 7 -6z" />
    <glyph glyph-name="Z" unicode="Z" horiz-adv-x="508" 
d="M131 680h343q5 0 5 -6l1 -3q0 -1 -0.5 -3t-0.5 -3l-352 -650h361q6 0 6 -6l1 -3q0 -6 -6 -6h-376q-6 0 -6 5l-1 2q0 2 1.5 5t1.5 4l350 649h-328q-6 0 -6 6l-1 3q0 6 7 6z" />
    <glyph glyph-name="bracketleft" unicode="[" horiz-adv-x="342" 
d="M137 -205v898q1 6 7 6h149q5 0 5 -6l1 -3q0 -6 -6 -6h-140v-880h140q5 0 5 -6l1 -3q0 -6 -6 -6h-150q-6 0 -6 6z" />
    <glyph glyph-name="backslash" unicode="\" horiz-adv-x="371" 
d="M324 -142l-230 835q0 6 5 6h3q7 0 8 -6l230 -834q2 -7 -5 -7h-4q-5 0 -7 6z" />
    <glyph glyph-name="bracketright" unicode="]" horiz-adv-x="342" 
d="M262 693v-898q-1 -6 -7 -6h-149q-5 0 -5 6l-1 3q0 6 6 6h140v880h-140q-5 0 -5 6l-1 3q0 6 6 6h150q6 0 6 -6z" />
    <glyph glyph-name="asciicircum" unicode="^" horiz-adv-x="540" 
d="M487 325l-198 337l-116 -337q-3 -6 -6 -6h-6q-6 0 -4 6l121 349q3 6 6 6h4q5 0 8 -6l207 -349q2 -6 -2 -6h-6q-5 0 -8 6z" />
    <glyph glyph-name="underscore" unicode="_" horiz-adv-x="413" 
d="M15 -94h353q6 0 6 -6l1 -3q0 -6 -6 -6h-353q-6 0 -6 6l-1 3q0 6 6 6z" />
    <glyph glyph-name="grave" unicode="`" horiz-adv-x="346" 
d="M284 577l-84 125q-3 6 3 6h6q6 0 8 -4l81 -125q3 -5 -1 -5h-5q-5 0 -8 3z" />
    <glyph glyph-name="a" unicode="a" 
d="M428 6l-2 49q-79 -63 -180 -63q-60 0 -94 25.5t-39 69.5q-1 6 -1 17v282q0 52 33 82t101 30q100 0 180 -64l2 50q2 6 5 6h3q6 0 6 -6v-478q0 -6 -6 -6h-2q-6 0 -6 6zM128 386v-282q-1 -6 1 -14q4 -38 33.5 -60.5t83.5 -22.5q100 0 180 66l1 343q-80 67 -181 67
q-58 0 -88 -27t-30 -70z" />
    <glyph glyph-name="b" unicode="b" 
d="M145 0h-2q-5 0 -6 6v687q0 6 6 6h4q4 0 6 -6l1 -259q77 64 179 64q60 0 94.5 -26t39.5 -70q0 -1 0.5 -6.5t0.5 -9.5l-1 -282q0 -52 -33 -82t-101 -30q-99 0 -181 63l-1 -49q0 -6 -6 -6zM451 104l1 282q-1 10 -1 14q-5 38 -34.5 60.5t-82.5 22.5q-104 0 -181 -67v-343
q80 -66 180 -66q58 0 88 27t30 70z" />
    <glyph glyph-name="c" unicode="c" horiz-adv-x="468" 
d="M274 498q149 0 161 -93q1 -6 1 -19v-21q0 -6 -5 -6h-4q-7 0 -7 6v21q0 11 -1 16q-10 81 -145 81q-82 0 -114 -25.5t-32 -71.5v-282q0 -11 1 -17q10 -80 145 -80q82 0 113.5 25.5t32.5 71.5v29q0 6 7 6h4q5 0 5 -6v-29q-1 -55 -35.5 -83.5t-126.5 -28.5q-149 0 -161 93
q-1 6 -1 19v282q0 54 35 83t127 29z" />
    <glyph glyph-name="d" unicode="d" 
d="M440 6l-2 49q-79 -63 -180 -63q-60 0 -94 25.5t-39 69.5q0 3 -0.5 8.5t-0.5 8.5l1 282q0 52 32.5 82t100.5 30q101 0 181 -64l-1 259q-2 6 6 6h4q6 0 6 -6v-687q2 -6 -6 -6h-2q-4 0 -6 6zM141 386l-1 -282q0 -10 1 -14q5 -38 34.5 -60.5t82.5 -22.5q100 0 180 66v343
q-77 67 -179 67q-59 0 -88.5 -26.5t-29.5 -70.5z" />
    <glyph glyph-name="e" unicode="e" horiz-adv-x="486" 
d="M442 386v-126q-2 -6 -6 -6h-308v-150q-1 -5 1 -15q10 -82 148 -82q82 0 115 25.5t34 71.5v29q2 6 7 6h4q7 0 5 -6v-29q-1 -54 -37 -83t-128 -29q-152 0 -164 94q-1 6 -1 18v282q0 54 36.5 83t128.5 29q152 0 164 -94q1 -6 1 -18zM128 386v-117h298v117q1 5 -1 15
q-9 82 -148 82q-149 0 -149 -97z" />
    <glyph glyph-name="f" unicode="f" horiz-adv-x="298" 
d="M135 489h13v102q0 54 36 83t127 29h3q6 0 6 -6v-3q1 -6 -6 -6h-3q-82 0 -114.5 -25.5t-32.5 -71.5v-102h131q6 0 6 -6l1 -3q0 -6 -6 -6h-131l-1 -679q0 -6 -6 -6h-4q-6 0 -6 6l1 679h-70q-7 0 -7 6v1q-2 6 6 6z" />
    <glyph glyph-name="g" unicode="g" 
d="M234 -8q-61 0 -95 26t-39 71q0 2 -0.5 6.5t-0.5 8.5l1 282q0 52 33 82t101 30q103 0 180 -64l2 50q0 6 6 6h2q4 0 6 -6v-583q0 -54 -35.5 -83t-127.5 -29h-132q-5 0 -6 6v3q-1 6 6 6h132q149 0 147 97l-1 154q-76 -63 -179 -63zM116 386l-1 -282q0 -9 1 -13
q5 -39 34.5 -61.5t83.5 -22.5q97 0 180 66v343q-77 67 -180 67q-58 0 -88 -27t-30 -70z" />
    <glyph glyph-name="h" unicode="h" horiz-adv-x="516" 
d="M154 693v-259q77 64 180 64q61 0 94.5 -25.5t38.5 -69.5q0 -1 0.5 -6.5t0.5 -10.5l1 -380q0 -6 -7 -6h-4q-6 0 -5 6l-1 380q0 12 -1 14q-5 38 -34.5 60.5t-82.5 22.5q-100 0 -180 -67l1 -410q0 -6 -7 -6h-4q-6 0 -5 6l-1 687q2 6 7 6h4q6 0 5 -6z" />
    <glyph glyph-name="i" unicode="i" horiz-adv-x="208" 
d="M155 484v-478q-1 -6 -7 -6h-4q-6 0 -5 6v478q0 6 5 6h4q6 0 7 -6zM154 693v-99q2 -6 -6 -6h-4q-4 0 -6 6v99q0 6 7 6h4q6 0 5 -6z" />
    <glyph glyph-name="j" unicode="j" horiz-adv-x="207" 
d="M139 693v-99q0 -6 -6 -6h-4q-6 0 -6 6v99q0 6 6 6h4q6 0 6 -6zM139 484v-583q0 -54 -36 -83t-125 -29h-3q-5 0 -5 6l-1 3q0 6 6 6h3q79 0 111.5 25.5t33.5 71.5v583q0 6 6 6h4q6 0 6 -6z" />
    <glyph glyph-name="k" unicode="k" horiz-adv-x="429" 
d="M454 0h-6q-7 0 -12 6l-238 263h-45l1 -263q-2 -6 -7 -6h-4q-5 0 -5 6l-1 687q1 6 7 6h4q5 0 5 -6l1 -409h41l209 201q3 5 10 5h8q4 0 5 -2t-1 -4l-215 -206l246 -272q2 -2 0.5 -4t-3.5 -2z" />
    <glyph glyph-name="l" unicode="l" horiz-adv-x="208" 
d="M153 693l1 -687q0 -6 -6 -6h-5q-5 0 -5 6l-1 687q1 6 7 6h4q5 0 5 -6z" />
    <glyph glyph-name="m" unicode="m" horiz-adv-x="818" 
d="M132 490h2q6 0 7 -6l1 -49q74 63 174 63q102 0 127 -69q82 69 181 69q61 0 95 -25.5t39 -69.5q0 -5 1 -17l-1 -380q2 -6 -5 -6h-5q-6 0 -6 6l1 380q0 9 -1 13q-5 38 -34 61t-83 23q-101 0 -178 -69q2 -9 4 -28l-1 -380q0 -6 -5 -6h-5q-6 0 -6 6l1 372q0 17 -1 21
q-5 38 -34 61t-83 23q-98 0 -175 -67v-410q2 -6 -5 -6h-5q-6 0 -6 6l1 478q-2 6 5 6z" />
    <glyph glyph-name="n" unicode="n" horiz-adv-x="516" 
d="M132 490h2q6 0 7 -6l1 -50q77 64 180 64q61 0 95 -25.5t39 -69.5v-6q1 -6 1 -11l-1 -380q0 -6 -6 -6h-4q-6 0 -6 6l1 380q0 4 -0.5 7t-0.5 5v1q-5 38 -34 61t-83 23q-101 0 -181 -67v-410q0 -6 -6 -6h-4q-6 0 -6 6l1 478q-1 6 5 6z" />
    <glyph glyph-name="o" unicode="o" horiz-adv-x="498" 
d="M112 104v282q0 54 36.5 83t128.5 29q152 0 164 -94q0 -1 0.5 -6.5t0.5 -11.5v-282q0 -54 -36.5 -83t-128.5 -29q-152 0 -164 94q-1 5 -1 18zM426 104v282q0 13 -1 15q-9 82 -148 82q-149 0 -149 -97v-282q0 -12 1 -15q10 -82 148 -82q149 0 149 97z" />
    <glyph glyph-name="p" unicode="p" 
d="M121 490q5 0 6 -6l1 -50q80 64 181 64q60 0 94 -25.5t39 -69.5q0 -7 1 -17l-1 -282q0 -52 -32.5 -82t-100.5 -30q-102 0 -181 63l1 -260q0 -6 -6 -6h-4q-6 0 -6 6v689q-1 6 6 6h2zM426 104l1 282q0 5 -1 10v4q-5 38 -34.5 60.5t-82.5 22.5q-103 0 -180 -67v-343
q76 -66 180 -66q58 0 87.5 26.5t29.5 70.5z" />
    <glyph glyph-name="q" unicode="q" 
d="M414 434l2 50q0 6 6 6h2q4 0 6 -6v-689q0 -6 -6 -6h-4q-4 0 -6 6l-1 260q-76 -63 -179 -63q-61 0 -95 26t-39 71v2q0 2 -0.5 5.5t-0.5 7.5l1 282q0 52 33 82t101 30q103 0 180 -64zM116 386l-1 -282q0 -5 0.5 -8.5t0.5 -4.5q5 -39 34.5 -61.5t83.5 -22.5q97 0 180 66v343
q-77 67 -180 67q-58 0 -88 -27t-30 -70z" />
    <glyph glyph-name="r" unicode="r" horiz-adv-x="322" 
d="M321 497q5 0 7 -6v-6q1 -3 -1 -3.5t-6 -0.5q-49 0 -99.5 -25t-79.5 -50v-400q2 -6 -6 -6h-4q-6 0 -6 6l1 478q0 6 5 6h2q6 0 7 -6l1 -62q93 75 179 75z" />
    <glyph glyph-name="s" unicode="s" horiz-adv-x="460" 
d="M405 364v29q0 14 -1 20q-4 30 -38.5 50.5t-103.5 20.5q-73 0 -107.5 -22.5t-34.5 -60.5l1 -42v-14q6 -45 67 -62l162 -46q72 -20 78 -71l1 -15l1 -61q0 -44 -41.5 -71t-125.5 -27q-75 0 -116.5 24t-46.5 63q-1 5 -1 15v27q-1 3 1 4t5 1h5q5 0 5 -5v-26q0 -8 1 -13
q8 -75 147 -75q75 0 112.5 23t37.5 61v59q0 7 -1 14q-5 40 -69 58l-162 47q-28 8 -51 28t-26 47v14v43q2 97 158 97q73 0 113 -23.5t45 -60.5q1 -8 1 -20v-30q0 -5 -5 -5h-5q-6 0 -6 5z" />
    <glyph glyph-name="t" unicode="t" horiz-adv-x="333" 
d="M163 474v-362q0 -5 0.5 -10t0.5 -6q10 -81 146 -81h13q5 0 6 -6v-3q0 -6 -6 -6h-13q-150 0 -162 93q0 3 -0.5 8.5t-0.5 10.5v362h-70q-6 0 -6 6v1q-1 6 6 6l69 2h1v114q-1 6 6 6h4q5 0 6 -6v-114h131q4 0 6 -6v-4q1 -3 -1 -4t-5 -1h-131z" />
    <glyph glyph-name="u" unicode="u" 
d="M427 6l-2 49q-71 -63 -173 -63q-61 0 -95 25.5t-39 69.5q0 7 -1 17l1 380q0 6 6 6h4q6 0 6 -6l-1 -380q0 -5 1 -9v-4q5 -39 34 -61.5t84 -22.5q98 0 174 66v411q-2 6 6 6h4q6 0 6 -6l-1 -478q2 -6 -4 -6h-3q-6 0 -7 6z" />
    <glyph glyph-name="v" unicode="v" horiz-adv-x="396" 
d="M229 0h-4q-5 0 -7 6l-164 477q0 7 3 7h6q5 0 7 -6l146 -421l11 -36q0 1 2 7t4.5 14.5t4.5 14.5l145 421q3 6 7 6h5q7 0 5 -6l-164 -478q-3 -6 -7 -6z" />
    <glyph glyph-name="w" unicode="w" horiz-adv-x="604" 
d="M597 490h6q7 0 4 -6l-132 -478q-3 -6 -7 -6h-4q-6 0 -7 6l-116 424q-8 29 -11 44q-9 -37 -11 -45l-119 -423q-3 -6 -7 -6h-4q-5 0 -7 6l-129 478q0 6 4 6h6q5 0 7 -6l114 -421l8 -36l3 12l3.5 14l2.5 10l116 421q3 6 7 6h12q6 0 7 -6l114 -421l9 -34q1 4 3.5 16.5
t4.5 17.5l116 421q3 6 7 6z" />
    <glyph glyph-name="x" unicode="x" horiz-adv-x="454" 
d="M432 0h-6q-6 0 -10 6l-160 229l-157 -229q-4 -6 -10 -6h-7q-8 0 -4 6l168 243l-164 235q-3 6 3 6h7q5 0 9 -6l156 -222l149 222q4 6 9 6h9q4 -1 2 -6l-160 -236l168 -240q4 -8 -2 -8z" />
    <glyph glyph-name="y" unicode="y" horiz-adv-x="396" 
d="M57 484l146 -421l12 -37q4 16 11 37l144 421q3 6 7 6h5q8 0 5 -6l-235 -689q-3 -6 -7 -6h-6q-7 0 -4 6l71 208l-165 481q-2 6 3 6h6q6 0 7 -6z" />
    <glyph glyph-name="z" unicode="z" horiz-adv-x="460" 
d="M112 490h297q6 0 6 -5v-3l-3 -9l-296 -458h304q5 0 5 -6l1 -3q0 -6 -6 -6h-318q-6 0 -6 6l-1 3q0 1 2 4.5t2 4.5l295 457h-282q-5 0 -5 6l-1 3q0 6 6 6z" />
    <glyph glyph-name="braceleft" unicode="{" horiz-adv-x="446" 
d="M230 353v243q0 54 35.5 83t127.5 29h3q5 0 5 -6l1 -3q0 -6 -6 -6h-3q-82 0 -114 -25.5t-33 -71.5v-243q0 -89 -98 -105q87 -15 97 -88q1 -8 1 -30v-229v-21q10 -83 148 -83h3q4 0 4 -6l1 -3q0 -6 -6 -6h-3q-150 0 -162 94q-3 16 -1 26v228q0 24 -1 30q-10 81 -134 81h-1
q-4 0 -6 6v3q-2 6 5 6h2q135 0 135 97z" />
    <glyph glyph-name="bar" unicode="|" horiz-adv-x="232" 
d="M82 693l111 -898q0 -6 -6 -6h-4q-6 0 -6 6l-111 898q0 6 6 6h4q6 0 6 -6z" />
    <glyph glyph-name="braceright" unicode="}" horiz-adv-x="446" 
d="M272 588v-227q0 -3 0.5 -12.5t0.5 -11.5q10 -81 134 -81h1q4 0 6 -6v-4q1 -3 -1 -4t-5 -1h-1q-135 0 -135 -97v-250q0 -54 -36 -83t-127 -29h-3q-5 0 -5 6l-1 3q0 6 7 6h3q82 0 113.5 25.5t32.5 71.5v250q-1 88 98 104q-87 15 -97 88q0 3 -0.5 13t-0.5 13v226v23
q-10 82 -147 82h-3q-5 0 -5 6l-1 3q0 6 6 6h3q150 0 162 -94q1 -6 1 -26z" />
    <glyph glyph-name="asciitilde" unicode="~" horiz-adv-x="471" 
d="M174 310q-23 0 -29.5 -13.5t-1.5 -54.5l1 -10q0 -6 -5 -6h-4q-7 0 -7 6l-1 10q-6 46 5.5 64.5t39.5 18.5q18 0 53 -20l85 -50q24 -14 42 -14q23 0 28.5 13.5t0.5 54.5l-1 10q0 6 5 6h4q7 0 7 -6l1 -10q6 -47 -4.5 -65t-38.5 -18q-21 0 -57 21l-85 50q-26 13 -38 13z" />
    <glyph glyph-name="exclamdown" unicode="&#xa1;" horiz-adv-x="234" 
d="M125 100l2 239q1 6 7 6h2q5 0 5 -6l2 -239l1 -284q-2 -6 -7 -6h-6q-5 0 -5 6zM126 409v75q2 6 7 6h3q8 0 6 -6v-75q-2 -6 -7 -6h-4q-5 0 -5 6z" />
    <glyph glyph-name="cent" unicode="&#xa2;" horiz-adv-x="516" 
d="M306 674l1 -82q139 -3 151 -93q2 -13 1 -19v-21q0 -6 -5 -6h-4q-7 0 -7 6v21q1 6 -1 16q-9 81 -145 81q-82 0 -113.5 -25.5t-32.5 -71.5v-282q0 -11 1 -17q10 -80 145 -80q82 0 113.5 25.5t32.5 71.5v29q0 6 7 6h4q5 0 5 -6v-29q-1 -53 -34 -82t-118 -30v-80q-1 -6 -6 -6
h-4q-6 0 -6 6v80q-143 1 -155 93q0 3 -0.5 9t-0.5 10v282q0 53 34 82t122 30l-1 82q2 6 7 6h4q5 0 5 -6z" />
    <glyph glyph-name="sterling" unicode="&#xa3;" horiz-adv-x="640" 
d="M220 353h192q6 0 6 -6l1 -3q0 -6 -7 -6h-192v-323h234q133 0 116 137v3q-2 6 5 6h3q6 0 7 -6v-3q19 -152 -131 -152h-311q-6 0 -6 6v3q-1 6 6 6h61v323h-61q-5 0 -5 6l-1 3q0 6 6 6h61v214q0 64 34 92.5t141 28.5q93 0 131 -23t44 -71q1 -8 1 -27v-24q0 -6 -6 -6h-4
q-6 0 -6 7v23q0 18 -1 26q-5 40 -39.5 60t-119.5 20q-51 0 -83.5 -7t-48.5 -22t-21.5 -32.5t-5.5 -44.5v-214z" />
    <glyph glyph-name="currency" unicode="&#xa4;" horiz-adv-x="521" 
d="M75 293h93l-1 96h-93q-5 0 -5 6l-1 3q0 6 7 6h93v153q0 63 41.5 97t148.5 34q96 0 139.5 -28.5t49.5 -81.5q2 -14 2 -21l-1 -54q2 -6 -5 -6h-4q-5 0 -7 6l1 54q0 3 -0.5 9.5t-0.5 9.5q-12 97 -174 97q-97 0 -135.5 -30.5t-38.5 -85.5v-153h170q6 0 6 -6l1 -3q0 -6 -7 -6
h-171l1 -96h170q6 0 6 -6v-3q2 -6 -5 -6h-171v-155q0 -6 2 -20q10 -96 171 -96q98 0 137 30.5t39 85.5v65q0 6 5 6h4q7 0 7 -6v-65q0 -63 -42 -97t-149 -34q-176 0 -189 108q-1 7 -1 23v155h-92q-6 0 -7 6v3q0 6 6 6z" />
    <glyph glyph-name="yen" unicode="&#xa5;" horiz-adv-x="493" 
d="M112 306h159l-53 96h-105q-5 0 -7 6v3q-2 6 6 6h97l-143 257q-2 6 5 6h5q4 0 7 -6l192 -344l3.5 -7t5 -9.5t3.5 -7.5h1l2 5q2 5 5 10t5 9l189 344q3 6 9 6h6q8 0 3 -6l-143 -257h98q6 0 7 -6v-3q1 -6 -6 -6h-107l-53 -96h159q6 0 6 -6l1 -3q0 -6 -6 -6h-167v-285
q0 -6 -6 -6h-4q-6 0 -6 6v285h-167q-6 0 -6 6l-1 3q0 6 6 6z" />
    <glyph glyph-name="brokenbar" unicode="&#xa6;" horiz-adv-x="208" 
d="M72 674l43 -354q0 -6 -5 -6h-4q-7 0 -7 6l-43 354q-2 6 5 6h4q5 0 7 -6zM136 149l43 -354q1 -6 -5 -6h-4q-6 0 -7 6l-43 354q0 6 5 6h4q7 0 7 -6z" />
    <glyph glyph-name="section" unicode="&#xa7;" horiz-adv-x="546" 
d="M460 146q0 -6 -6 -6h-4q-4 0 -6 6v106q0 16 -1 26q-6 50 -71 70l-141 40q-87 24 -94 82q-2 16 -2 26l1 80q0 54 36.5 83t128.5 29q153 0 163 -94q2 -14 2 -26v-8q-1 -6 -7 -6h-4q-6 0 -6 7l1 7q0 15 -1 23q-10 82 -148 82q-149 0 -149 -97l-1 -80q0 -4 0.5 -12t0.5 -11
q6 -49 83 -69l141 -40q75 -23 83 -84q0 -2 1 -9.5t1 -11.5zM140 211l1 113q0 6 6 6h4q5 0 6 -6v-106q0 -16 1 -26q6 -50 71 -70l141 -40q87 -24 94 -82q2 -16 2 -26l-1 -80q0 -54 -36.5 -83t-128.5 -29q-153 0 -163 94q-2 14 -2 26v8q1 6 7 6h4q6 0 6 -7l-1 -7q0 -15 1 -23
q10 -82 148 -82q149 0 149 97l1 80q0 4 -0.5 12t-0.5 11q-6 49 -83 69l-141 40q-75 23 -83 84q0 2 -1 9.5t-1 11.5z" />
    <glyph glyph-name="dieresis" unicode="&#xa8;" horiz-adv-x="275" 
d="M183 694l1 -100q-2 -6 -7 -6h-4q-5 0 -5 6l-1 100q1 6 7 6h4q5 0 5 -6zM262 694l1 -100q-1 -6 -7 -6h-4q-5 0 -5 6l-1 100q2 6 7 6h4q5 0 5 -6z" />
    <glyph glyph-name="copyright" unicode="&#xa9;" horiz-adv-x="684" 
d="M588 557v-434q0 -64 -50 -97.5t-184 -33.5t-184 33.5t-50 97.5v434q0 64 50 97.5t184 33.5t184 -33.5t50 -97.5zM572 123v434q0 27 -9.5 46.5t-33 36t-67.5 25t-108 8.5t-108 -8.5t-67.5 -25t-33 -36t-9.5 -46.5v-434q0 -27 9.5 -46.5t33 -36t67.5 -25t108 -8.5t108 8.5
t67.5 25t33 36t9.5 46.5zM354 553q74 0 98 -28t24 -84v-21q0 -6 -6 -6h-4q-6 0 -6 6v21q0 49 -20 73t-86 24q-67 0 -86.5 -24t-19.5 -73v-203q0 -49 19.5 -73t86.5 -24q66 0 86 24t20 73v29q0 6 6 6h4q6 0 6 -6v-29q0 -56 -24 -84t-98 -28t-98 28t-24 84v203q0 56 24 84
t98 28z" />
    <glyph glyph-name="ordfeminine" unicode="&#xaa;" horiz-adv-x="347" 
d="M328 392l-2 30q-49 -38 -108 -38q-73 0 -80 57v19v161q0 67 81 67q59 0 108 -38l1 26q1 7 5 7h2q5 0 5 -5v-286q0 -3 -4 -3h-4q-4 0 -4 3zM151 621v-154q0 -15 1 -24q5 -46 66 -46t109 41l-1 196q-48 41 -108 41q-67 0 -67 -54z" />
    <glyph glyph-name="guillemotleft" unicode="&#xab;" horiz-adv-x="603" 
d="M321 245l176 -133q6 -5 6 -8v-9q0 -6 -6 -2l-187 144q-5 4 -5 8v1q-1 3 5 9l187 144q4 2 6 -2v-8q0 -5 -6 -9zM136 245l176 -133q6 -5 6 -8v-9q0 -6 -6 -2l-187 144q-5 4 -5 8v1q-1 3 5 9l187 144q4 2 6 -2v-8q0 -5 -6 -9z" />
    <glyph glyph-name="logicalnot" unicode="&#xac;" horiz-adv-x="360" 
d="M78 309q-5 42 20.5 72t67.5 30t76 -30t39 -72t-21.5 -71.5t-68.5 -29.5t-75.5 29.5t-37.5 71.5z" />
    <glyph glyph-name="uni00AD" unicode="&#xad;" horiz-adv-x="473" 
d="M135 297h269q6 0 6 -6l1 -3q0 -6 -6 -6h-269q-6 0 -6 6l-1 3q0 6 6 6z" />
    <glyph glyph-name="registered" unicode="&#xae;" horiz-adv-x="602" 
d="M531 574l21 -173q3 -21 -2 -38.5t-22 -36t-56 -29t-98 -10.5q-194 0 -208 114l-21 173q-3 21 2.5 38.5t22.5 36t56.5 29t98.5 10.5q192 0 206 -114zM537 400l-21 175q-5 40 -46.5 69t-142.5 29q-100 0 -135.5 -29.5t-30.5 -68.5l21 -175q5 -39 47.5 -68.5t142.5 -29.5
q101 0 135.5 29.5t29.5 68.5zM443 520q6 -51 -52 -62l58 -102q2 -4 -4 -4h-8q-4 0 -6 4l-56 99h-89l13 -99q0 -4 -4 -4h-8q-4 0 -4 4l-31 252q-2 5 4 5h85q48 0 71 -19t27 -46zM343 599h-74l16 -130h74q39 0 54.5 15.5t12.5 37.5l-3 24q-3 22 -22 37.5t-58 15.5z" />
    <glyph glyph-name="macron" unicode="&#xaf;" horiz-adv-x="425" 
d="M154 634h268q6 0 6 -5l1 -4q0 -6 -7 -6h-268q-6 0 -6 6l-1 3q0 6 7 6z" />
    <glyph glyph-name="degree" unicode="&#xb0;" horiz-adv-x="379" 
d="M140 516l-1 90q1 39 27 59.5t92 20.5q107 0 115 -70q2 -12 2 -20v-88q-1 -39 -27 -59.5t-91 -20.5q-109 0 -117 68q-2 9 0 20zM359 508v88q0 3 -0.5 9t-0.5 8q-8 59 -101 59q-102 0 -102 -66l1 -91v-18q7 -55 102 -55q55 0 77.5 17t23.5 49z" />
    <glyph glyph-name="plusminus" unicode="&#xb1;" horiz-adv-x="595" 
d="M320 223l-19 149h-187q-6 0 -6 6l-1 3q0 6 6 6h187l-18 147q-2 6 5 6h3q6 0 7 -6l18 -147h189q6 0 6 -6l1 -3q0 -6 -6 -6h-189l19 -149q0 -6 -6 -6h-3q-6 0 -6 6zM141 153h391q7 0 7 -6v-3q1 -6 -5 -6h-391q-5 0 -7 6v3q0 6 5 6z" />
    <glyph glyph-name="twosuperior" unicode="&#xb2;" horiz-adv-x="362" 
d="M145 288h200q4 0 5 -5v-3q1 -5 -4 -5h-210q-3 0 -4 5l1 118q0 25 18.5 38t37.5 17l103 26q43 12 43 47v72v21q-3 27 -24.5 41.5t-72.5 14.5q-56 0 -76 -17.5t-19 -50.5v-31q-1 -5 -5 -5h-5q-5 0 -5 5v32q-1 39 22.5 59.5t86.5 20.5q103 0 111 -66q1 -6 1 -23v-73
q0 -47 -52 -59l-103 -25q-48 -14 -48 -45z" />
    <glyph glyph-name="threesuperior" unicode="&#xb3;" horiz-adv-x="361" 
d="M183 502h55q57 0 75.5 15.5t17.5 49.5l-1 36v20q-3 26 -24 39.5t-68 13.5q-53 0 -73 -17t-20 -49v-8q0 -4 -5 -4h-5q-4 0 -4 4l-1 9q1 38 24 58t85 20q98 0 106 -63v-23l1 -37q1 -30 -11 -46.5t-45 -23.5q30 -6 42.5 -19t14.5 -34q1 -6 1 -26l1 -68q0 -38 -24 -58
t-87 -20q-102 0 -110 64v3v5v6l-1 9q0 4 5 4h5q5 0 5 -4v-8q0 -4 0.5 -8t0.5 -5q7 -53 96 -53q54 0 74 17t20 49v67q0 19 -1 24q-2 24 -22 36.5t-69 12.5h-58q-5 0 -5 4l-1 3q0 5 6 5z" />
    <glyph glyph-name="acute" unicode="&#xb4;" horiz-adv-x="346" 
d="M299 702l-84 -125q-3 -3 -5 -3h-7q-6 0 -3 5l83 125q4 4 6 4h7q9 0 3 -6z" />
    <glyph glyph-name="uni00B5" unicode="&#xb5;" 
d="M416 6l-2 49q-71 -63 -173 -63q-90 0 -121 55l2 -252q0 -6 -5 -6h-4q-7 0 -7 6v689q2 6 6 6h4q7 0 6 -6v-362v-31q5 -39 34.5 -61.5t84.5 -22.5q95 0 174 66l-1 411q0 6 6 6h4q7 0 6 -6v-478q0 -6 -5 -6h-2q-7 0 -7 6z" />
    <glyph glyph-name="paragraph" unicode="&#xb6;" horiz-adv-x="603" 
d="M406 675v-880q0 -6 -6 -6h-4q-4 0 -6 6l1 487h-63q-179 0 -192 111q-2 18 -2 29l1 127q1 63 43 97t150 34h73q5 0 5 -5zM522 674l-1 -879q0 -6 -6 -6h-4q-6 0 -6 7l1 878q0 6 6 6h4q4 0 6 -6z" />
    <glyph glyph-name="periodcentered" unicode="&#xb7;" horiz-adv-x="196" 
d="M136 292v-75q2 -6 -5 -6h-4q-7 0 -7 6v75q0 6 5 6h5q4 0 6 -6z" />
    <glyph glyph-name="cedilla" unicode="&#xb8;" horiz-adv-x="119" 
d="M52 -56h42q27 0 50.5 -16t27.5 -49q6 -49 -19 -69.5t-59 -20.5h-120q-4 0 -6 6v4q-2 6 6 6h120q26 0 46 16t15 56q-3 27 -21.5 39t-39.5 12h-53q-10 0 -7 8l19 65q1 6 6 4l4 -1q5 -1 3 -8z" />
    <glyph glyph-name="onesuperior" unicode="&#xb9;" horiz-adv-x="376" 
d="M133 653l116 34q4 2 4 -3v-392h106q3 0 5 -4v-4q0 -5 -4 -5h-227q-5 0 -5 5v3q-1 5 5 5h106l-1 379l-103 -31q-6 -2 -6 3l-1 4q0 5 5 6z" />
    <glyph glyph-name="ordmasculine" unicode="&#xba;" horiz-adv-x="346" 
d="M137 469v151q0 33 22.5 50.5t78.5 17.5q94 0 101 -58v-5v-7.5v-6.5v-159q0 -33 -22.5 -50.5t-78.5 -17.5q-94 0 -101 58v27zM325 453v158v6.5v7v4.5q-5 47 -87 47q-87 0 -87 -56v-150v-26q5 -48 87 -48q87 0 87 57z" />
    <glyph glyph-name="guillemotright" unicode="&#xbb;" horiz-adv-x="603" 
d="M506 253l-176 133q-6 4 -6 8v9q0 6 6 2l187 -144q5 -4 5 -8l1 -1q0 -3 -6 -9l-187 -144q-4 -2 -6 2v8q0 5 6 9zM321 253l-176 133q-6 4 -6 8v9q0 6 6 2l187 -144q5 -4 5 -8l1 -1q0 -3 -6 -9l-187 -144q-4 -2 -6 2v8q0 5 6 9z" />
    <glyph glyph-name="onequarter" unicode="&#xbc;" horiz-adv-x="784" 
d="M643 403l-95 -247h192v247q-2 5 5 5h4q6 0 6 -5v-398q-1 -5 -6 -5h-5q-4 0 -4 5v139h-204q-5 0 -5 4v2q0 3 2 7l95 246q1 5 6 5h6q3 0 3 -5zM577 725l-211 -769q-2 -5 -6 -5h-5q-5 0 -3 5l211 769q1 4 6 4h6q3 0 2 -4zM144 653l116 34q4 1 4 -3v-392h106q5 0 5 -4v-4
q1 -5 -4 -5h-227q-3 0 -5 5v3q0 5 5 5h106v379l-103 -31q-6 -2 -7 3v4q-2 5 4 6z" />
    <glyph glyph-name="onehalf" unicode="&#xbd;" horiz-adv-x="810" 
d="M575 725l-211 -769q-2 -5 -6 -5h-5q-5 0 -3 5l211 769q1 4 6 4h6q3 0 2 -4zM606 13h200q4 0 4 -5l1 -3q0 -5 -5 -5h-210q-3 0 -3 5v118q0 25 18.5 38t37.5 17l103 26q43 11 43 47l1 72v11.5t-1 9.5q-3 27 -24.5 41.5t-72.5 14.5q-56 0 -75.5 -17.5t-19.5 -50.5v-31
q0 -5 -5 -5h-5q-4 0 -5 5v32q0 39 23.5 59.5t86.5 20.5q103 0 111 -66v-23v-73q0 -26 -16.5 -40.5t-34.5 -18.5l-103 -25q-49 -13 -49 -45v-109zM144 653l116 34q4 1 4 -3v-392h106q5 0 5 -4v-4q1 -5 -4 -5h-227q-3 0 -5 5v3q0 5 5 5h106v379l-103 -31q-6 -2 -7 3v4
q-2 5 4 6z" />
    <glyph glyph-name="threequarters" unicode="&#xbe;" horiz-adv-x="778" 
d="M637 403l-95 -247h192v247q-2 5 5 5h4q6 0 6 -5v-398q-1 -5 -6 -5h-5q-4 0 -4 5v139h-204q-5 0 -5 4v2q0 3 2 7l95 246q1 5 6 5h6q3 0 3 -5zM566 725l-211 -769q-2 -5 -6 -5h-5q-6 0 -3 5l211 769q1 4 6 4h6q3 0 2 -4zM195 502h55q57 0 75.5 15.5t17.5 49.5l-1 36v20
q-3 26 -24 39.5t-68 13.5q-53 0 -73 -16.5t-21 -49.5v-8q1 -4 -4 -4h-5q-3 0 -5 4v9q1 38 24 58t85 20q98 0 105 -63q1 -5 1 -23l1 -37q0 -31 -12 -47t-45 -23q53 -10 58 -53q1 -6 1 -26v-68q1 -38 -23 -58t-87 -20q-102 0 -110 64v5q-1 5 -1 9v9q0 4 5 4h5q5 0 5 -4v-8
q0 -4 0.5 -8t0.5 -5q3 -26 24 -39.5t71 -13.5q54 0 74.5 17t20.5 49v67q0 19 -1 24q-3 25 -22.5 37t-68.5 12h-58q-5 0 -5 4l-1 3q0 5 6 5z" />
    <glyph glyph-name="questiondown" unicode="&#xbf;" horiz-adv-x="569" 
d="M310 339l-1 -87q0 -66 -68 -100l-50 -26q-62 -31 -62 -92v-101q0 -13 1 -20q6 -46 44.5 -71t127.5 -25q97 0 134.5 30.5t37.5 85.5v54q0 6 6 6h4q6 0 6 -6v-54q-1 -64 -41 -97.5t-147 -33.5q-95 0 -138 28.5t-50 80.5q-1 7 -1 22v101q1 72 74 108l50 26q57 29 56 84l1 87
q0 6 6 6h4q4 0 6 -6zM294 409v75q0 6 6 6h4q6 0 6 -6v-74q2 -7 -6 -7h-4q-4 0 -6 6z" />
    <glyph glyph-name="Agrave" unicode="&#xc0;" horiz-adv-x="503" 
d="M302 680h5q5 0 8 -6l210 -668q1 -6 -4 -6h-5q-6 0 -7 6l-72 226h-266l-71 -226q-3 -6 -7 -6h-4q-7 0 -5 6l210 668q2 6 8 6zM433 247l-107 339l-22 72q-6 -25 -20 -69l-108 -342h257zM277 747l-85 125q-3 6 4 6h6q5 0 7 -4l81 -125q5 -5 -1 -5h-5q-6 0 -7 3z" />
    <glyph glyph-name="Aacute" unicode="&#xc1;" horiz-adv-x="503" 
d="M302 680h5q5 0 8 -6l210 -668q1 -6 -4 -6h-5q-6 0 -7 6l-72 226h-266l-71 -226q-3 -6 -7 -6h-4q-7 0 -5 6l210 668q2 6 8 6zM433 247l-107 339l-22 72q-6 -25 -20 -69l-108 -342h257zM387 872l-83 -125q-3 -3 -6 -3h-7q-5 0 -3 5l83 125q4 4 7 4h7q8 0 2 -6z" />
    <glyph glyph-name="Acircumflex" unicode="&#xc2;" horiz-adv-x="503" 
d="M302 680h5q5 0 8 -6l210 -668q1 -6 -4 -6h-5q-6 0 -7 6l-72 226h-266l-71 -226q-3 -6 -7 -6h-4q-7 0 -5 6l210 668q2 6 8 6zM433 247l-107 339l-22 72q-6 -25 -20 -69l-108 -342h257zM297 864l-77 -114q-3 -6 -7 -6h-6q-6 0 -4 6l80 122q4 6 10 6h7q5 0 8 -5l81 -123
q6 -6 -2 -6h-4q-5 0 -10 6z" />
    <glyph glyph-name="Atilde" unicode="&#xc3;" horiz-adv-x="503" 
d="M301 680h5q5 0 8 -6l210 -668q2 -6 -4 -6h-5q-5 0 -7 6l-72 226h-266l-71 -226q-3 -6 -7 -6h-4q-7 0 -5 6l210 668q1 6 8 6zM432 247l-106 339l-23 72q-6 -25 -20 -69l-108 -342h257zM226 848q-23 0 -31 -14.5t-7 -53.5v-10q0 -6 -6 -6h-4q-6 0 -6 6v10q0 47 12.5 65
t40.5 18q25 0 48 -24l44 -43q17 -17 34 -17q23 0 30.5 13.5t7.5 54.5v10q0 6 7 6h4q5 0 5 -6v-10q0 -47 -12.5 -65t-39.5 -18q-23 0 -49 24l-43 42q-22 18 -35 18z" />
    <glyph glyph-name="Adieresis" unicode="&#xc4;" horiz-adv-x="503" 
d="M301 680h5q5 0 8 -6l210 -668q2 -6 -3 -6h-5q-6 0 -8 6l-72 226h-266l-71 -226q-3 -6 -6 -6h-4q-8 0 -6 6l210 668q1 6 8 6zM432 247l-106 339l-23 72q-6 -25 -20 -69l-108 -342h257zM265 860v-100q0 -6 -6 -6h-4q-5 0 -6 6v100q1 6 6 6h4q6 0 6 -6zM344 860v-100
q0 -6 -6 -6h-4q-4 0 -6 6v100q2 6 6 6h4q6 0 6 -6z" />
    <glyph glyph-name="Aring" unicode="&#xc5;" horiz-adv-x="503" 
d="M302 680h5q5 0 8 -6l210 -668q1 -6 -4 -6h-5q-6 0 -7 6l-72 226h-266l-71 -226q-3 -6 -7 -6h-4q-7 0 -5 6l210 668q2 6 8 6zM433 247l-106 339l-23 72q-6 -25 -20 -69l-108 -342h257zM382 798l1 -11q-2 -59 -87 -59q-38 0 -59 16t-24 41q0 1 -1 9t-1 12v12q0 61 87 61
q38 0 59 -17t24 -43q1 -6 1 -21zM367 787l-1 11q0 14 -1 20q-6 46 -68 46q-70 0 -70 -46v-12q0 -5 1 -12t1 -8q6 -43 67 -43q69 0 71 44z" />
    <glyph glyph-name="AE" unicode="&#xc6;" horiz-adv-x="842" 
d="M468 680h338q5 0 5 -6l1 -3q0 -6 -6 -6h-331v-297h312q5 0 6 -6v-3q1 -6 -6 -6h-312l-1 -338h344q6 0 6 -6l1 -3q0 -6 -6 -6h-349q-12 0 -12 8l1 224h-238l-130 -226q-5 -6 -9 -6h-4q-9 0 -5 6l382 668q4 6 13 6zM427 589l-197 -342h229v400q-10 -20 -32 -58z" />
    <glyph glyph-name="Ccedilla" unicode="&#xc7;" horiz-adv-x="537" 
d="M287 -56h42q27 0 50.5 -16t27.5 -49q6 -49 -19 -69.5t-59 -20.5h-121q-6 0 -6 6l-1 4q0 6 7 6h121q26 0 46 16t15 56q-3 27 -21.5 39t-39.5 12h-53q-10 0 -7 8l16 57q-147 8 -159 107q-1 7 -1 23l-1 434q0 63 41.5 97t148.5 34q96 0 140 -28.5t50 -81.5q2 -14 1 -21v-54
q1 -6 -5 -6h-4q-6 0 -7 6v54q1 7 -1 19q-12 97 -174 97q-97 0 -135.5 -30.5t-38.5 -85.5l1 -434q0 -13 1 -20q6 -46 45 -71t127 -25q98 0 137 30.5t39 85.5v65q-2 6 5 6h4q5 0 7 -6v-65q0 -63 -42 -97t-149 -34h-15z" />
    <glyph glyph-name="Egrave" unicode="&#xc8;" horiz-adv-x="534" 
d="M521 0h-355q-5 0 -5 6v668q0 6 6 6h341q4 0 6 -6v-3q2 -6 -6 -6h-331v-297h312q5 0 6 -6v-3q1 -6 -6 -6h-312v-338h344q5 0 5 -6l1 -3q0 -6 -6 -6zM321 747l-85 125q-3 6 4 6h6q5 0 7 -4l81 -125q5 -5 -1 -5h-5q-6 0 -7 3z" />
    <glyph glyph-name="Eacute" unicode="&#xc9;" horiz-adv-x="534" 
d="M521 0h-355q-5 0 -5 6v668q0 6 6 6h341q4 0 6 -6v-3q2 -6 -6 -6h-331v-297h312q5 0 6 -6v-3q1 -6 -6 -6h-312v-338h344q5 0 5 -6l1 -3q0 -6 -6 -6zM417 872l-83 -125q-3 -3 -6 -3h-7q-5 0 -3 5l83 125q4 4 7 4h7q8 0 2 -6z" />
    <glyph glyph-name="Ecircumflex" unicode="&#xca;" horiz-adv-x="534" 
d="M521 0h-355q-5 0 -5 6v668q0 6 6 6h341q4 0 6 -6v-3q2 -6 -6 -6h-331v-297h312q5 0 6 -6v-3q1 -6 -6 -6h-312v-338h344q5 0 5 -6l1 -3q0 -6 -6 -6zM333 864l-77 -114q-3 -6 -7 -6h-6q-6 0 -4 6l80 122q4 6 10 6h7q5 0 8 -5l81 -123q6 -6 -2 -6h-4q-5 0 -10 6z" />
    <glyph glyph-name="Edieresis" unicode="&#xcb;" horiz-adv-x="534" 
d="M521 0h-355q-6 0 -6 6v668q0 6 6 6h341q5 0 6 -6v-3q1 -6 -6 -6h-331v-297h312q6 0 6 -6l1 -3q0 -6 -7 -6h-312v-338h344q4 0 6 -6v-3q0 -6 -5 -6zM308 860v-100q0 -6 -6 -6h-4q-4 0 -6 6v100q2 6 6 6h4q6 0 6 -6zM387 860v-100q0 -6 -6 -6h-4q-5 0 -6 6v100q1 6 6 6h4
q6 0 6 -6z" />
    <glyph glyph-name="Igrave" unicode="&#xcc;" horiz-adv-x="232" 
d="M177 674v-668q0 -6 -6 -6h-4q-6 0 -6 6v668q0 6 6 6h4q6 0 6 -6zM157 747l-85 125q-3 6 4 6h6q5 0 7 -4l81 -125q5 -5 -1 -5h-5q-6 0 -7 3z" />
    <glyph glyph-name="Iacute" unicode="&#xcd;" horiz-adv-x="232" 
d="M177 674v-668q0 -6 -6 -6h-4q-6 0 -6 6v668q0 6 6 6h4q6 0 6 -6zM259 872l-83 -125q-3 -3 -6 -3h-7q-5 0 -3 5l83 125q4 4 7 4h7q8 0 2 -6z" />
    <glyph glyph-name="Icircumflex" unicode="&#xce;" horiz-adv-x="232" 
d="M177 674v-668q0 -6 -6 -6h-4q-6 0 -6 6v668q0 6 6 6h4q6 0 6 -6zM166 864l-77 -114q-3 -6 -7 -6h-6q-6 0 -4 6l80 122q4 6 10 6h7q5 0 8 -5l81 -123q6 -6 -2 -6h-4q-5 0 -10 6z" />
    <glyph glyph-name="Idieresis" unicode="&#xcf;" horiz-adv-x="232" 
d="M176 674v-668q0 -6 -5 -6h-4q-7 0 -7 6v668q0 6 6 6h4q6 0 6 -6zM137 860v-100q0 -6 -6 -6h-4q-5 0 -6 6v100q1 6 6 6h4q6 0 6 -6zM216 860v-100q0 -6 -6 -6h-4q-4 0 -6 6v100q2 6 6 6h4q6 0 6 -6z" />
    <glyph glyph-name="Eth" unicode="&#xd0;" horiz-adv-x="591" 
d="M342 0h-187q-6 0 -6 6v332h-86q-6 0 -6 6v3q-1 6 6 6h86l-1 321q2 6 6 6h188q178 0 192 -111q2 -14 2 -20v-418q0 -63 -43 -97t-151 -34zM342 665h-177l-1 -312h168q4 0 6 -6v-3q0 -6 -6 -6h-168v-323h177q98 0 138.5 30.5t40.5 85.5v418q0 3 -0.5 9t-0.5 9
q-12 98 -177 98z" />
    <glyph glyph-name="Ntilde" unicode="&#xd1;" horiz-adv-x="602" 
d="M545 674v-668q0 -6 -6 -6h-2q-5 0 -6 3l-328 590q-2 3 -28 52v-639q0 -6 -6 -6h-3q-6 0 -6 6v668q0 6 6 6h1q3 0 5 -3l330 -590l28 -51v638q0 6 6 6h3q6 0 6 -6zM286 848q-23 0 -31 -14.5t-7 -53.5v-10q0 -6 -6 -6h-4q-6 0 -6 6v10q0 47 12.5 65t40.5 18q25 0 48 -24
l44 -43q17 -17 34 -17q23 0 30.5 13.5t7.5 54.5v10q0 6 7 6h4q5 0 5 -6v-10q0 -47 -12.5 -65t-39.5 -18q-23 0 -49 24l-43 42q-22 18 -35 18z" />
    <glyph glyph-name="Ograve" unicode="&#xd2;" horiz-adv-x="579" 
d="M149 123v434q-1 63 41.5 97t150.5 34q179 0 193 -111q2 -14 2 -20v-434q0 -63 -43 -97t-151 -34q-180 0 -192 109q-1 7 -1 22zM520 123v434q0 6 -2 18q-12 98 -177 98q-178 0 -176 -116v-434q0 -12 1 -18q12 -98 175 -98q98 0 138.5 30.5t40.5 85.5zM334 747l-84 125
q-3 6 3 6h6q4 0 8 -4l81 -125q3 -5 -1 -5h-5q-6 0 -8 3z" />
    <glyph glyph-name="Oacute" unicode="&#xd3;" horiz-adv-x="579" 
d="M149 123v434q-1 63 41.5 97t150.5 34q179 0 193 -111q2 -14 2 -20v-434q0 -63 -43 -97t-151 -34q-180 0 -192 109q-1 7 -1 22zM520 123v434q0 6 -2 18q-12 98 -177 98q-178 0 -176 -116v-434q0 -12 1 -18q12 -98 175 -98q98 0 138.5 30.5t40.5 85.5zM431 872l-84 -125
q-3 -3 -5 -3h-7q-6 0 -3 5l83 125q2 4 6 4h7q7 0 3 -6z" />
    <glyph glyph-name="Ocircumflex" unicode="&#xd4;" horiz-adv-x="579" 
d="M149 123v434q-1 63 41.5 97t150.5 34q179 0 193 -111q2 -14 2 -20v-434q0 -63 -43 -97t-151 -34q-180 0 -192 109q-1 7 -1 22zM520 123v434q0 6 -2 18q-12 98 -177 98q-178 0 -176 -116v-434q0 -12 1 -18q12 -98 175 -98q98 0 138.5 30.5t40.5 85.5zM337 864l-77 -114
q-5 -6 -7 -6h-6q-8 0 -4 6l80 122q2 6 9 6h7q4 0 9 -5l81 -123q4 -6 -2 -6h-4q-6 0 -10 6z" />
    <glyph glyph-name="Otilde" unicode="&#xd5;" horiz-adv-x="579" 
d="M148 123v434q-1 63 42 97t151 34q178 0 192 -111q2 -14 2 -20v-434q0 -63 -43 -97t-151 -34q-180 0 -192 109q-1 7 -1 22zM519 123v434q0 6 -2 18q-12 98 -177 98q-178 0 -176 -116v-434q0 -12 1 -18q12 -98 175 -98q98 0 138.5 30.5t40.5 85.5zM276 848
q-23 0 -31.5 -14.5t-7.5 -53.5v-10q1 -6 -6 -6h-4q-5 0 -6 6v10q0 47 12.5 65t40.5 18q25 0 49 -24l43 -43q17 -17 34 -17q23 0 31 13.5t8 54.5v10q-1 6 6 6h4q5 0 6 -6v-10q0 -47 -12.5 -65t-40.5 -18q-24 0 -49 24l-43 42q-20 18 -34 18z" />
    <glyph glyph-name="Odieresis" unicode="&#xd6;" horiz-adv-x="579" 
d="M148 123v434q-1 63 42 97t151 34q178 0 192 -111q2 -14 2 -20v-434q0 -63 -43 -97t-151 -34q-178 0 -192 109q-1 7 -1 22zM519 123v434q0 3 -0.5 9t-0.5 9q-12 98 -177 98q-98 0 -137.5 -30.5t-39.5 -85.5v-434q0 -3 0.5 -9t0.5 -9q12 -98 175 -98q98 0 138.5 30.5
t40.5 85.5zM307 860v-100q-1 -6 -6 -6h-4q-6 0 -6 6v100q0 6 6 6h4q5 0 6 -6zM386 860v-100q-2 -6 -6 -6h-4q-6 0 -6 6v100q0 6 6 6h4q4 0 6 -6z" />
    <glyph glyph-name="multiply" unicode="&#xd7;" horiz-adv-x="546" 
d="M415 166l-114 163l-151 -94q-6 -4 -9 3l-1 2q-4 5 1 8l150 94l-114 163q-4 6 1 8l3 1q6 2 8 -2l114 -163l153 95q4 4 8 -2l1 -3q4 -6 -1 -8l-151 -95l114 -162q3 -6 -2 -9l-2 -1q-5 -2 -8 2z" />
    <glyph glyph-name="Oslash" unicode="&#xd8;" horiz-adv-x="579" 
d="M137 123v434q0 63 42.5 97t150.5 34q91 0 138 -28l17 36q2 6 8 6h6q6 0 4 -6l-22 -45q36 -26 41 -74q2 -14 2 -20v-434q0 -63 -43 -97t-151 -34q-90 0 -138 27l-15 -33q-3 -8 -8 -8h-7q-6 0 -3 8l19 42q-35 27 -40 73q-1 7 -1 22zM508 123v434q0 3 -0.5 9t-0.5 9
q-5 38 -32 61l-277 -603q41 -26 131 -26q98 0 138.5 30.5t40.5 85.5zM154 105q5 -39 31 -62l277 603q-44 27 -132 27q-98 0 -137.5 -30.5t-39.5 -85.5v-434q0 -3 0.5 -9t0.5 -9z" />
    <glyph glyph-name="Ugrave" unicode="&#xd9;" horiz-adv-x="591" 
d="M170 674v-551q0 -12 1 -18q12 -98 176 -98q98 0 138 30.5t40 85.5v551q0 6 5 6h4q7 0 7 -6v-551q0 -63 -43 -97t-151 -34q-179 0 -192 111q0 3 -0.5 9.5t-0.5 10.5v551q0 6 5 6h4q7 0 7 -6zM333 747l-84 125q-3 6 3 6h6q4 0 8 -4l81 -125q3 -5 -1 -5h-5q-7 0 -8 3z" />
    <glyph glyph-name="Uacute" unicode="&#xda;" horiz-adv-x="591" 
d="M170 674v-551q0 -12 1 -18q12 -98 176 -98q98 0 138 30.5t40 85.5v551q0 6 5 6h4q7 0 7 -6v-551q0 -63 -43 -97t-151 -34q-179 0 -192 111q0 3 -0.5 9.5t-0.5 10.5v551q0 6 5 6h4q7 0 7 -6zM433 872l-84 -125q-3 -3 -5 -3h-7q-6 0 -3 5l83 125q2 4 6 4h7q7 0 3 -6z" />
    <glyph glyph-name="Ucircumflex" unicode="&#xdb;" horiz-adv-x="591" 
d="M170 674v-551q0 -12 1 -18q12 -98 176 -98q98 0 138 30.5t40 85.5v551q0 6 5 6h4q7 0 7 -6v-551q0 -63 -43 -97t-151 -34q-179 0 -192 111q0 3 -0.5 9.5t-0.5 10.5v551q0 6 5 6h4q7 0 7 -6zM346 864l-77 -114q-5 -6 -7 -6h-6q-8 0 -4 6l80 122q2 6 9 6h7q4 0 9 -5
l81 -123q4 -6 -2 -6h-4q-6 0 -10 6z" />
    <glyph glyph-name="Udieresis" unicode="&#xdc;" horiz-adv-x="591" 
d="M169 674v-551q0 -3 0.5 -9t0.5 -9q12 -98 176 -98q98 0 138 30.5t40 85.5v551q0 6 6 6h4q6 0 6 -6v-551q0 -63 -43 -97t-151 -34q-178 0 -191 111q-2 12 -2 20v551q0 6 6 6h4q6 0 6 -6zM310 860v-100q-2 -6 -6 -6h-4q-6 0 -6 6v100q0 6 6 6h4q4 0 6 -6zM389 860v-100
q-1 -6 -6 -6h-4q-6 0 -6 6v100q0 6 6 6h4q5 0 6 -6z" />
    <glyph glyph-name="Yacute" unicode="&#xdd;" horiz-adv-x="493" 
d="M96 674l191 -344q6 -10 13 -25q7 16 12 25l190 344q2 6 8 6h6q8 0 4 -6l-212 -382v-286q0 -6 -6 -6h-4q-6 0 -6 6v285l-213 383q-4 6 4 6h5q4 0 8 -6zM386 872l-83 -125q-3 -3 -6 -3h-7q-5 0 -3 5l83 125q4 4 7 4h7q8 0 2 -6z" />
    <glyph glyph-name="Thorn" unicode="&#xde;" horiz-adv-x="555" 
d="M164 674l1 -184h177q179 0 193 -111q1 -7 1 -20l-1 -116q0 -63 -42.5 -97t-151.5 -34h-177l1 -106q0 -6 -6 -6h-4q-6 0 -6 6l-1 668q2 6 7 6h4q6 0 5 -6zM342 475h-177v-348h177q98 0 137.5 30.5t39.5 85.5l1 116q0 12 -1 18q-12 98 -177 98z" />
    <glyph glyph-name="germandbls" unicode="&#xdf;" horiz-adv-x="570" 
d="M168 596l1 -590q-1 -6 -7 -6h-4q-6 0 -5 6l-1 468h-70q-5 0 -5 4l-1 3q0 6 7 6l68 2h1v107q0 112 170 112q155 0 167 -97q1 -3 1.5 -12t0.5 -13v-28q1 -65 -83 -81l-61 -12q-51 -10 -64 -32q-8 -12 -8 -29v-7v-13q7 -47 73 -67l120 -40q88 -29 94 -81q2 -8 2 -19v-73
q0 -55 -32.5 -83.5t-123.5 -28.5q-79 0 -113 23t-40 67q0 3 -0.5 10.5t-0.5 11.5v16q0 6 6 6h3q5 0 7 -6v-16q0 -13 1 -20q5 -37 35.5 -57t102.5 -20q81 0 109.5 25t29.5 72v65v12.5t-1 12.5q-6 43 -83 67l-120 40q-15 5 -30.5 13t-33 27t-20.5 41q-1 1 -1 15v7
q0 18 7.5 31.5t15 21t23 13.5t20.5 7t18 4l61 12q71 12 71 66v27q-1 9 -1 23q-10 84 -153 84q-151 0 -153 -97z" />
    <glyph glyph-name="agrave" unicode="&#xe0;" 
d="M441 6l-2 49q-79 -63 -181 -63q-60 0 -93.5 25.5t-38.5 69.5q-2 11 -1 17v282q0 52 33 82t101 30q100 0 180 -64l2 50q1 6 5 6h3q6 0 6 -6v-478q0 -6 -7 -6h-2q-5 0 -5 6zM141 386v-282v-14q5 -38 35 -60.5t83 -22.5q100 0 180 66v343q-77 67 -180 67q-58 0 -88 -27
t-30 -70zM277 577l-85 125q-3 6 4 6h6q5 0 7 -4l81 -125q5 -5 -1 -5h-5q-6 0 -7 3z" />
    <glyph glyph-name="aacute" unicode="&#xe1;" 
d="M441 6l-2 49q-79 -63 -181 -63q-60 0 -93.5 25.5t-38.5 69.5q-2 11 -1 17v282q0 52 33 82t101 30q100 0 180 -64l2 50q1 6 5 6h3q6 0 6 -6v-478q0 -6 -7 -6h-2q-5 0 -5 6zM141 386v-282v-14q5 -38 35 -60.5t83 -22.5q100 0 180 66v343q-77 67 -180 67q-58 0 -88 -27
t-30 -70zM365 702l-83 -125q-3 -3 -6 -3h-7q-5 0 -3 5l83 125q4 4 7 4h7q8 0 2 -6z" />
    <glyph glyph-name="acircumflex" unicode="&#xe2;" 
d="M441 6l-2 49q-79 -63 -181 -63q-60 0 -93.5 25.5t-38.5 69.5q-2 11 -1 17v282q0 52 33 82t101 30q100 0 180 -64l2 50q1 6 5 6h3q6 0 6 -6v-478q0 -6 -7 -6h-2q-5 0 -5 6zM141 386v-282v-14q5 -38 35 -60.5t83 -22.5q100 0 180 66v343q-77 67 -180 67q-58 0 -88 -27
t-30 -70zM274 694l-77 -114q-3 -6 -7 -6h-6q-6 0 -4 6l80 122q4 6 10 6h7q5 0 8 -5l81 -123q6 -6 -2 -6h-4q-5 0 -10 6z" />
    <glyph glyph-name="atilde" unicode="&#xe3;" 
d="M440 6l-2 49q-82 -63 -181 -63q-60 0 -93.5 25.5t-38.5 69.5q-2 11 -1 17v282q0 52 33 82t101 30q100 0 180 -64l2 50q0 6 5 6h3q4 0 6 -6v-478q0 -6 -7 -6h-2q-5 0 -5 6zM140 386v-282v-14q5 -38 35 -60.5t83 -22.5q103 0 179 66l1 343q-77 67 -180 67q-58 0 -88 -27
t-30 -70zM211 675q-23 0 -31 -14.5t-7 -53.5v-10q1 -6 -6 -6h-4q-5 0 -6 6v10q0 47 12.5 65t40.5 18q25 0 49 -24l43 -43q17 -17 34 -17q23 0 30.5 13.5t8.5 54.5l-1 10q0 6 7 6h4q5 0 5 -6l1 -10q0 -47 -12.5 -65t-40.5 -18q-24 0 -49 24l-43 42q-20 18 -35 18z" />
    <glyph glyph-name="adieresis" unicode="&#xe4;" 
d="M440 6l-2 49q-79 -63 -180 -63q-60 0 -94 25.5t-39 69.5q0 3 -0.5 8.5t-0.5 8.5l1 282q0 52 33 82t101 30q100 0 180 -64l2 50q0 6 5 6h3q5 0 6 -6l-1 -478q2 -6 -6 -6h-2q-4 0 -6 6zM141 386l-1 -282q0 -10 1 -14q5 -38 34.5 -60.5t82.5 -22.5q100 0 180 66l1 343
q-80 67 -180 67q-58 0 -88 -27t-30 -70zM242 694v-100q0 -6 -6 -6h-4q-4 0 -6 6v100q0 6 6 6h4q4 0 6 -6zM321 694v-100q0 -6 -6 -6h-4q-5 0 -6 6v100q0 6 6 6h4q5 0 6 -6z" />
    <glyph glyph-name="aring" unicode="&#xe5;" 
d="M441 6l-2 49q-79 -63 -180 -63q-60 0 -94 25.5t-39 69.5q-1 6 -1 17v282q0 51 33.5 81.5t101.5 30.5q99 0 179 -64l2 50q1 6 6 6h3q5 0 5 -6v-478q0 -6 -6 -6h-2q-6 0 -6 6zM141 386v-282q0 -10 1 -14q5 -38 34.5 -60.5t82.5 -22.5q100 0 180 66l1 343q-80 67 -181 67
q-58 0 -87.5 -26.5t-30.5 -70.5zM375 631l1 -11q-2 -59 -87 -59q-38 0 -59 16t-24 41q-2 8 -2 21v12q-2 61 86 61q38 0 59.5 -17t24.5 -43q0 -3 0.5 -9.5t0.5 -11.5zM360 620l-1 11q0 14 -1 20q-6 46 -68 46q-70 0 -70 -46v-12q0 -14 2 -20q4 -43 67 -43q69 0 71 44z" />
    <glyph glyph-name="ae" unicode="&#xe6;" horiz-adv-x="791" 
d="M747 386v-126q-1 -6 -6 -6h-308v-143q0 -17 1 -22q10 -82 148 -82q82 0 115 25.5t34 71.5v29q1 6 7 6h4q6 0 5 -6v-29q-1 -54 -37 -83t-128 -29q-139 0 -161 77q-86 -77 -184 -77q-59 0 -93.5 25.5t-39.5 68.5q-1 6 -1 18v42q0 51 29 81t84 30h201v121q0 18 -1 24
q-10 81 -145 81q-82 0 -113.5 -25.5t-32.5 -71.5v-21q-1 -6 -5 -6h-4q-3 0 -5.5 1.5t-1.5 4.5v21q1 54 35.5 83t126.5 29q128 0 155 -67q25 67 156 67q152 0 164 -94q1 -6 1 -18zM237 7q93 0 180 79v156h-201q-47 0 -72 -26.5t-25 -69.5v-42q0 -10 1 -15q4 -37 33.5 -59.5
t83.5 -22.5zM433 386v-117h298v117q1 5 -1 15q-9 82 -148 82q-149 0 -149 -97z" />
    <glyph glyph-name="ccedilla" unicode="&#xe7;" horiz-adv-x="468" 
d="M253 -56h42q27 0 50.5 -16t27.5 -49q6 -49 -19 -69.5t-59 -20.5h-121q-4 0 -6 6v4q-2 6 6 6h121q26 0 46 16t15 56q-3 27 -21.5 39t-39.5 12h-53q-9 0 -7 8l16 56q-140 3 -150 93q-2 12 -2 19l1 282q0 54 35 83t127 29q150 0 160 -93q2 -12 2 -19l-1 -21q1 -6 -5 -6h-4
q-6 0 -7 6l1 21q0 3 -0.5 8.5t-0.5 7.5q-10 81 -145 81q-82 0 -114 -25.5t-32 -71.5l-1 -282q0 -3 0.5 -8.5t0.5 -8.5q10 -80 145 -80q82 0 113.5 25.5t32.5 71.5l1 29q-2 6 6 6h4q4 0 6 -6l-1 -29q-1 -54 -34.5 -82.5t-122.5 -29.5z" />
    <glyph glyph-name="egrave" unicode="&#xe8;" horiz-adv-x="486" 
d="M455 386v-126q-1 -6 -6 -6h-308v-150q-1 -5 1 -15q9 -82 148 -82q82 0 114.5 25.5t34.5 71.5v29q1 6 6 6h4q7 0 6 -6v-29q-1 -54 -37 -83t-129 -29q-151 0 -163 94q-2 12 -1 18v282q0 54 36.5 83t128.5 29q152 0 164 -94q1 -6 1 -18zM141 386l-1 -117h298l1 117
q0 10 -1 15q-10 82 -148 82q-149 0 -149 -97zM283 577l-85 125q-3 6 4 6h6q5 0 7 -4l81 -125q5 -5 -1 -5h-5q-6 0 -7 3z" />
    <glyph glyph-name="eacute" unicode="&#xe9;" horiz-adv-x="486" 
d="M455 386v-126q-1 -6 -6 -6h-308v-150q-1 -5 1 -15q9 -82 148 -82q82 0 114.5 25.5t34.5 71.5v29q1 6 6 6h4q7 0 6 -6v-29q-1 -54 -37 -83t-129 -29q-151 0 -163 94q-2 12 -1 18v282q0 54 36.5 83t128.5 29q152 0 164 -94q1 -6 1 -18zM141 386l-1 -117h298l1 117
q0 10 -1 15q-10 82 -148 82q-149 0 -149 -97zM377 702l-83 -125q-3 -3 -6 -3h-7q-5 0 -3 5l83 125q4 4 7 4h7q8 0 2 -6z" />
    <glyph glyph-name="ecircumflex" unicode="&#xea;" horiz-adv-x="486" 
d="M455 386v-126q-1 -6 -6 -6h-308v-150q-1 -5 1 -15q9 -82 148 -82q82 0 114.5 25.5t34.5 71.5v29q1 6 6 6h4q7 0 6 -6v-29q-1 -54 -37 -83t-129 -29q-151 0 -163 94q-2 12 -1 18v282q0 54 36.5 83t128.5 29q152 0 164 -94q1 -6 1 -18zM141 386l-1 -117h298l1 117
q0 10 -1 15q-10 82 -148 82q-149 0 -149 -97zM285 694l-77 -114q-3 -6 -7 -6h-6q-6 0 -4 6l80 122q4 6 10 6h7q5 0 8 -5l81 -123q6 -6 -2 -6h-4q-5 0 -10 6z" />
    <glyph glyph-name="edieresis" unicode="&#xeb;" horiz-adv-x="486" 
d="M455 386l-1 -126q0 -6 -5 -6h-308l-1 -150q0 -10 1 -15q10 -82 148 -82q82 0 115 25.5t34 71.5l1 29q0 6 6 6h4q6 0 6 -6l-1 -29q-1 -54 -37 -83t-128 -29q-152 0 -164 94q0 3 -0.5 9t-0.5 9l1 282q0 54 36.5 83t128.5 29q153 0 163 -94q2 -12 2 -18zM141 386l-1 -117
h298l1 117q0 2 -0.5 7t-0.5 8q-10 82 -148 82q-149 0 -149 -97zM251 694v-100q0 -6 -6 -6h-4q-5 0 -6 6v100q0 6 6 6h4q5 0 6 -6zM330 694v-100q0 -6 -6 -6h-4q-4 0 -6 6v100q0 6 6 6h4q4 0 6 -6z" />
    <glyph glyph-name="igrave" unicode="&#xec;" horiz-adv-x="208" 
d="M156 484l-1 -478q0 -6 -6 -6h-4q-6 0 -6 6l1 478q-2 6 5 6h4q5 0 7 -6zM134 577l-84 125q-3 6 3 6h6q4 0 8 -4l81 -125q3 -5 -2 -5h-5q-5 0 -7 3z" />
    <glyph glyph-name="iacute" unicode="&#xed;" horiz-adv-x="208" 
d="M156 484l-1 -478q0 -6 -6 -6h-4q-6 0 -6 6l1 478q-2 6 5 6h4q5 0 7 -6zM237 702l-84 -125q-3 -3 -6 -3h-7q-5 0 -2 5l83 125q2 4 6 4h7q7 0 3 -6z" />
    <glyph glyph-name="icircumflex" unicode="&#xee;" horiz-adv-x="208" 
d="M156 484l-1 -478q0 -6 -6 -6h-4q-6 0 -6 6l1 478q-2 6 5 6h4q5 0 7 -6zM146 694l-77 -114q-5 -6 -8 -6h-6q-7 0 -3 6l80 122q2 6 9 6h7q4 0 9 -5l81 -123q4 -6 -3 -6h-4q-5 0 -9 6z" />
    <glyph glyph-name="idieresis" unicode="&#xef;" horiz-adv-x="208" 
d="M155 484v-478q-1 -6 -7 -6h-4q-6 0 -5 6v478q0 6 5 6h4q7 0 7 -6zM116 694l1 -100q-1 -6 -7 -6h-4q-5 0 -5 6l-1 100q2 6 7 6h4q5 0 5 -6zM195 694l1 -100q-2 -6 -7 -6h-4q-5 0 -5 6l-1 100q1 6 7 6h4q5 0 5 -6z" />
    <glyph glyph-name="eth" unicode="&#xf0;" horiz-adv-x="544" 
d="M317 617l101 41q-33 35 -127 35h-83q-5 0 -5 4l-1 5q0 6 7 6h83q106 0 141 -43l58 24q5 2 6 -2l3 -5q1 -4 -4 -7l-55 -23q10 -15 12 -36q2 -13 1 -20l1 -492q0 -54 -37 -83t-129 -29q-151 0 -163 94q-2 12 -1 18l-1 282q0 52 33 82t101 30q100 0 180 -64v162q0 11 -1 15
q-2 21 -11 35l-104 -43q-7 -4 -8 3l-1 5q0 5 4 6zM439 104l-1 312q-74 67 -180 67q-58 0 -88 -27t-30 -70l1 -282q-1 -5 1 -15q9 -82 148 -82q82 0 115 25.5t34 71.5z" />
    <glyph glyph-name="ntilde" unicode="&#xf1;" horiz-adv-x="516" 
d="M144 490h2q6 0 6 -6l2 -50q77 64 180 64q61 0 94.5 -25.5t38.5 -69.5q1 -2 1 -17v-380q0 -6 -6 -6h-4q-6 0 -6 6v380v13q-5 38 -34 61t-83 23q-104 0 -181 -67v-410q0 -6 -6 -6h-4q-6 0 -6 6v478q0 6 6 6zM234 675q-23 0 -31.5 -14.5t-7.5 -53.5l1 -10q0 -6 -7 -6h-4
q-5 0 -5 6l-1 10q0 47 12.5 65t40.5 18q25 0 49 -24l43 -43q17 -17 34 -17q23 0 31 13.5t8 54.5v10q-1 6 6 6h4q5 0 6 -6v-10q0 -47 -12.5 -65t-40.5 -18q-24 0 -49 24l-43 42q-20 18 -34 18z" />
    <glyph glyph-name="ograve" unicode="&#xf2;" horiz-adv-x="498" 
d="M125 104v282q0 54 36.5 83t128.5 29q152 0 164 -94q0 -1 0.5 -6.5t0.5 -11.5v-282q0 -54 -37 -83t-129 -29q-151 0 -163 94q-1 5 -1 18zM439 104v282q0 5 -1 10v5q-10 82 -148 82q-149 0 -149 -97v-282q0 -12 1 -15q9 -82 148 -82q82 0 115 25.5t34 71.5zM270 577
l-85 125q-3 6 4 6h6q5 0 7 -4l81 -125q5 -5 -1 -5h-5q-5 0 -7 3z" />
    <glyph glyph-name="oacute" unicode="&#xf3;" horiz-adv-x="498" 
d="M125 104v282q0 54 36.5 83t128.5 29q152 0 164 -94q0 -1 0.5 -6.5t0.5 -11.5v-282q0 -54 -37 -83t-129 -29q-151 0 -163 94q-1 5 -1 18zM439 104v282q0 5 -1 10v5q-10 82 -148 82q-149 0 -149 -97v-282q0 -12 1 -15q9 -82 148 -82q82 0 115 25.5t34 71.5zM376 702
l-83 -125q-3 -3 -6 -3h-7q-5 0 -3 5l83 125q4 4 7 4h7q8 0 2 -6z" />
    <glyph glyph-name="ocircumflex" unicode="&#xf4;" horiz-adv-x="498" 
d="M125 104v282q0 54 36.5 83t128.5 29q152 0 164 -94q0 -1 0.5 -6.5t0.5 -11.5v-282q0 -54 -37 -83t-129 -29q-151 0 -163 94q-1 5 -1 18zM439 104v282q0 5 -1 10v5q-10 82 -148 82q-149 0 -149 -97v-282q0 -12 1 -15q9 -82 148 -82q82 0 115 25.5t34 71.5zM287 694
l-77 -114q-3 -6 -7 -6h-6q-6 0 -4 6l80 122q4 6 10 6h7q5 0 8 -5l81 -123q6 -6 -2 -6h-4q-5 0 -10 6z" />
    <glyph glyph-name="otilde" unicode="&#xf5;" horiz-adv-x="498" 
d="M124 104v282q0 54 36.5 83t128.5 29q152 0 164 -94q0 -1 0.5 -6.5t0.5 -11.5v-282q0 -54 -37 -83t-129 -29q-151 0 -163 94q-1 5 -1 18zM438 104v282v10l-1 5q-10 82 -148 82q-149 0 -149 -97v-282v-15q10 -82 149 -82q82 0 115 25.5t34 71.5zM218 675q-23 0 -31 -14.5
t-7 -53.5v-10q2 -6 -6 -6h-4q-4 0 -6 6v10q0 47 12.5 65t40.5 18q25 0 49 -24l43 -43q17 -17 34 -17q23 0 30.5 13.5t8.5 54.5l-1 10q0 6 7 6h4q5 0 5 -6l1 -10q0 -47 -12.5 -65t-40.5 -18q-23 0 -49 24l-43 42q-20 18 -35 18z" />
    <glyph glyph-name="odieresis" unicode="&#xf6;" horiz-adv-x="498" 
d="M124 104l1 282q0 54 36.5 83t128.5 29q153 0 163 -94q1 -2 2 -18l-1 -282q0 -54 -36.5 -83t-128.5 -29q-152 0 -164 94q0 2 -0.5 8t-0.5 10zM438 104l1 282q-1 9 -1 15q-10 82 -148 82q-149 0 -149 -97l-1 -282q0 -5 0.5 -9.5t0.5 -5.5q10 -82 148 -82q149 0 149 97z
M250 694v-100q0 -6 -6 -6h-4q-4 0 -6 6v100q0 6 6 6h4q4 0 6 -6zM329 694v-100q0 -6 -6 -6h-4q-5 0 -6 6v100q0 6 6 6h4q5 0 6 -6z" />
    <glyph glyph-name="divide" unicode="&#xf7;" horiz-adv-x="595" 
d="M141 347h392q6 0 6 -5l1 -4q0 -6 -5 -6h-391q-7 0 -7 6l-1 3q0 6 5 6zM360 220l10 -75q0 -6 -6 -6h-4q-6 0 -6 6l-10 75q0 6 6 6h4q6 0 6 -6zM321 536l10 -75q0 -6 -6 -6h-4q-6 0 -6 6l-10 75q0 6 6 6h4q6 0 6 -6z" />
    <glyph glyph-name="oslash" unicode="&#xf8;" horiz-adv-x="498" 
d="M112 104v282q0 54 37 83t129 29q79 0 121 -26l21 37q4 6 9 6h6q6 0 2 -6l-26 -46q25 -22 30 -59q2 -12 1 -18v-282q0 -54 -36.5 -83t-128.5 -29q-81 0 -124 27l-19 -35q-4 -6 -9 -6h-6q-6 0 -2 6l24 44q-23 20 -28 58q-1 6 -1 18zM426 104v282q1 0 0 8v7q-5 28 -23 48
l-241 -417q36 -25 115 -25q149 0 149 97zM129 89q3 -29 21 -47l241 416q-36 25 -114 25q-82 0 -115 -25.5t-34 -71.5v-282q0 -10 1 -15z" />
    <glyph glyph-name="ugrave" unicode="&#xf9;" 
d="M441 6l-2 49q-71 -63 -174 -63q-61 0 -94.5 25.5t-38.5 69.5q-1 4 -1 17v380q1 6 6 6h4q6 0 6 -6v-380v-13q5 -39 34.5 -61.5t84.5 -22.5q95 0 174 66l-1 411q0 6 6 6h4q6 0 6 -6v-478q0 -6 -5 -6h-3q-6 0 -6 6zM280 577l-85 125q-3 6 4 6h6q5 0 7 -4l81 -125q5 -5 -1 -5
h-5q-5 0 -7 3z" />
    <glyph glyph-name="uacute" unicode="&#xfa;" 
d="M441 6l-2 49q-71 -63 -174 -63q-61 0 -94.5 25.5t-38.5 69.5q-1 4 -1 17v380q1 6 6 6h4q6 0 6 -6v-380v-13q5 -39 34.5 -61.5t84.5 -22.5q95 0 174 66l-1 411q0 6 6 6h4q6 0 6 -6v-478q0 -6 -5 -6h-3q-6 0 -6 6zM371 702l-83 -125q-3 -3 -6 -3h-7q-5 0 -3 5l83 125
q4 4 7 4h7q8 0 2 -6z" />
    <glyph glyph-name="ucircumflex" unicode="&#xfb;" 
d="M441 6l-2 49q-71 -63 -174 -63q-61 0 -94.5 25.5t-38.5 69.5q-1 4 -1 17v380q1 6 6 6h4q6 0 6 -6v-380v-13q5 -39 34.5 -61.5t84.5 -22.5q95 0 174 66l-1 411q0 6 6 6h4q6 0 6 -6v-478q0 -6 -5 -6h-3q-6 0 -6 6zM285 694l-77 -114q-3 -6 -7 -6h-6q-6 0 -4 6l80 122
q4 6 10 6h7q5 0 8 -5l81 -123q6 -6 -2 -6h-4q-5 0 -10 6z" />
    <glyph glyph-name="udieresis" unicode="&#xfc;" 
d="M440 6l-2 49q-71 -63 -173 -63q-61 0 -95 25.5t-39 69.5q0 1 -0.5 6t-0.5 11l1 380q0 6 6 6h4q6 0 6 -6l-1 -380v-9l1 -4q5 -39 34 -61.5t84 -22.5q95 0 174 66v411q-1 6 6 6h4q6 0 6 -6l-1 -478q2 -6 -4 -6h-3q-5 0 -7 6zM257 694v-100q0 -6 -6 -6h-4q-5 0 -6 6v100
q0 6 6 6h4q5 0 6 -6zM336 694v-100q0 -6 -6 -6h-4q-4 0 -6 6v100q0 6 6 6h4q4 0 6 -6z" />
    <glyph glyph-name="yacute" unicode="&#xfd;" horiz-adv-x="396" 
d="M71 484l145 -421l13 -37q7 28 10 37l145 421q2 6 7 6h5q6 0 5 -6l-236 -689q-1 -6 -7 -6h-6q-6 0 -4 6l72 208l-165 481q-4 6 3 6h6q4 0 7 -6zM306 702l-84 -125q-3 -3 -5 -3h-7q-6 0 -3 5l83 125q2 4 6 4h7q7 0 3 -6z" />
    <glyph glyph-name="thorn" unicode="&#xfe;" 
d="M141 693v-259q77 64 180 64q60 0 94 -25.5t39 -69.5q1 -6 1 -25v-274q0 -52 -33 -82t-101 -30q-104 0 -180 63v-260q0 -6 -6 -6h-4q-6 0 -6 6v898q0 6 6 6h4q6 0 6 -6zM439 104v274q0 17 -1 22q-5 38 -34.5 60.5t-82.5 22.5q-103 0 -180 -67l-1 -343q83 -66 181 -66
q58 0 87.5 26.5t30.5 70.5z" />
    <glyph glyph-name="ydieresis" unicode="&#xff;" horiz-adv-x="396" 
d="M70 484l146 -421l12 -37q4 16 11 37l144 421q3 6 7 6h5q8 0 5 -6l-235 -689q-3 -6 -8 -6h-6q-6 0 -3 6l71 208l-165 481q-2 6 3 6h6q5 0 7 -6zM184 694l1 -100q-1 -6 -7 -6h-4q-5 0 -5 6l-1 100q2 6 7 6h4q5 0 5 -6zM263 694l1 -100q-2 -6 -7 -6h-4q-5 0 -5 6l-1 100
q1 6 7 6h4q5 0 5 -6z" />
    <glyph glyph-name="Amacron" unicode="&#x100;" horiz-adv-x="503" 
d="M298 680h5q5 0 7 -6l210 -668q3 -6 -3 -6h-5q-5 0 -8 6l-71 226h-266l-72 -226q-1 -6 -6 -6h-4q-6 0 -6 6l210 668q3 6 9 6zM429 247l-107 339l-23 72q-5 -23 -19 -69l-108 -342h257zM148 807h268q5 0 7 -5v-4q1 -6 -6 -6h-268q-5 0 -7 6v3q-2 6 6 6z" />
    <glyph glyph-name="amacron" unicode="&#x101;" 
d="M436 6l-2 49q-79 -63 -180 -63q-60 0 -94 25.5t-39 69.5q0 3 -0.5 8.5t-0.5 8.5l1 282q0 52 33 82t101 30q100 0 180 -64l2 50q0 6 5 6h3q5 0 6 -6l-1 -478q2 -6 -6 -6h-2q-4 0 -6 6zM137 386l-1 -282q0 -10 1 -14q5 -38 34.5 -60.5t82.5 -22.5q100 0 180 66l1 343
q-80 67 -180 67q-58 0 -88 -27t-30 -70zM142 634h268q5 0 7 -5v-4q1 -6 -6 -6h-268q-5 0 -7 6v3q-2 6 6 6z" />
    <glyph glyph-name="Abreve" unicode="&#x102;" horiz-adv-x="503" 
d="M302 680h5q5 0 8 -6l210 -668q1 -6 -4 -6h-5q-6 0 -7 6l-72 226h-266l-71 -226q-3 -6 -7 -6h-4q-7 0 -5 6l210 668q2 6 8 6zM433 247l-107 339l-22 72q-6 -25 -20 -69l-108 -342h257zM204 872l2 -26q0 -14 1 -18q4 -32 22.5 -47t63.5 -15q53 0 69 23t15 71l-1 12q0 6 7 6
h4q5 0 5 -6l1 -12q1 -56 -18.5 -82.5t-81.5 -26.5q-51 0 -74 18.5t-28 58.5q-1 6 -1 18l-2 26q0 6 7 6h4q5 0 5 -6z" />
    <glyph glyph-name="abreve" unicode="&#x103;" 
d="M440 6l-3 49q-79 -63 -180 -63q-60 0 -93.5 25.5t-38.5 69.5q-2 12 -2 17l1 282q0 52 33 82t101 30q100 0 180 -64l2 50q0 6 5 6h3q4 0 6 -6v-478q0 -6 -7 -6h-2q-5 0 -5 6zM140 386l-1 -282q0 -3 0.5 -7.5t0.5 -6.5q5 -38 34.5 -60.5t82.5 -22.5q104 0 180 66l1 343
q-77 67 -180 67q-58 0 -88 -27t-30 -70zM188 682l1 -26q0 -14 1 -18q4 -32 23 -47t64 -15q53 0 68.5 23t14.5 71v12q-1 6 6 6h4q4 0 6 -6v-12q1 -56 -18.5 -82.5t-81.5 -26.5q-51 0 -74 18.5t-28 58.5q-1 6 -1 18l-1 26q-2 6 6 6h4q5 0 6 -6z" />
    <glyph glyph-name="Aogonek" unicode="&#x104;" horiz-adv-x="503" 
d="M281 680h5q5 0 8 -6l210 -668q2 -6 -3 -6h-1q-38 -11 -54.5 -34t-13.5 -45q6 -45 71 -45h25q6 0 7 -6v-3q1 -6 -5 -6h-25q-82 0 -89 61q-3 25 14 49.5t56 39.5l-70 221h-266l-71 -226q-3 -6 -6 -6h-4q-8 0 -6 6l210 668q1 6 8 6zM412 247l-106 339l-23 72
q-15 -52 -20 -69l-108 -342h257z" />
    <glyph glyph-name="aogonek" unicode="&#x105;" 
d="M451 -139h-18q-82 0 -89 61q-4 33 20.5 57t55.5 34l-2 42q-79 -63 -180 -63q-60 0 -94 25.5t-39 69.5q-1 6 -1 17v282q0 52 33 82t101 30q100 0 180 -64l2 50q2 6 5 6h3q6 0 6 -6v-478q-1 -6 -5 -6h-1q-38 -11 -54.5 -34t-13.5 -45q6 -45 71 -45h18q5 0 7 -6v-3
q0 -6 -5 -6zM120 386v-282v-14q5 -38 35 -60.5t83 -22.5q100 0 180 66v343q-77 67 -180 67q-58 0 -88 -27t-30 -70z" />
    <glyph glyph-name="Cacute" unicode="&#x106;" horiz-adv-x="537" 
d="M530 188v-65q0 -63 -42 -97t-149 -34q-177 0 -189 108q-1 7 -1 23v434q-1 63 40.5 97t148.5 34q96 0 140 -28.5t50 -81.5q2 -14 2 -21l-1 -54q1 -6 -5 -6h-4q-6 0 -7 6l1 54q0 7 -2 19q-12 97 -174 97q-97 0 -135.5 -30.5t-37.5 -85.5v-434q0 -13 1 -20q6 -46 45 -71
t127 -25q98 0 137 30.5t39 85.5v65q-2 6 5 6h4q5 0 7 -6zM427 872l-84 -125q-3 -3 -5 -3h-7q-6 0 -3 5l83 125q2 4 6 4h7q7 0 3 -6z" />
    <glyph glyph-name="cacute" unicode="&#x107;" horiz-adv-x="468" 
d="M287 498q149 0 161 -93q0 -3 0.5 -9.5t0.5 -9.5v-21q0 -6 -6 -6h-4q-6 0 -6 6v21q0 11 -1 16q-10 81 -145 81q-82 0 -114 -25.5t-32 -71.5v-282q-1 -6 1 -17q9 -80 145 -80q81 0 112.5 25.5t33.5 71.5v29q0 6 6 6h4q6 0 6 -6v-29q-1 -54 -36 -83t-127 -29q-148 0 -160 93
q-1 6 -1 19v282q0 54 35 83t127 29zM368 702l-83 -125q-3 -3 -6 -3h-7q-5 0 -3 5l83 125q4 4 7 4h7q8 0 2 -6z" />
    <glyph glyph-name="Ccircumflex" unicode="&#x108;" horiz-adv-x="537" 
d="M530 188v-65q0 -63 -42 -97t-149 -34q-177 0 -189 108q-1 7 -1 23v434q-1 63 40.5 97t148.5 34q96 0 140 -28.5t50 -81.5q2 -14 2 -21l-1 -54q1 -6 -5 -6h-4q-6 0 -7 6l1 54q0 7 -2 19q-12 97 -174 97q-97 0 -135.5 -30.5t-37.5 -85.5v-434q0 -13 1 -20q6 -46 45 -71
t127 -25q98 0 137 30.5t39 85.5v65q-2 6 5 6h4q5 0 7 -6zM333 864l-77 -114q-4 -6 -7 -6h-6q-8 0 -4 6l80 122q2 6 9 6h7q4 0 9 -5l81 -123q4 -6 -2 -6h-4q-6 0 -10 6z" />
    <glyph glyph-name="ccircumflex" unicode="&#x109;" horiz-adv-x="468" 
d="M287 498q149 0 161 -93q0 -3 0.5 -9.5t0.5 -9.5v-21q0 -6 -6 -6h-4q-6 0 -6 6v21q0 11 -1 16q-10 81 -145 81q-82 0 -114 -25.5t-32 -71.5v-282q-1 -6 1 -17q9 -80 145 -80q81 0 112.5 25.5t33.5 71.5v29q0 6 6 6h4q6 0 6 -6v-29q-1 -54 -36 -83t-127 -29q-148 0 -160 93
q-1 6 -1 19v282q0 54 35 83t127 29zM275 694l-77 -114q-3 -6 -7 -6h-6q-6 0 -4 6l80 122q4 6 10 6h7q5 0 8 -5l81 -123q6 -6 -2 -6h-4q-5 0 -10 6z" />
    <glyph glyph-name="Cdotaccent" unicode="&#x10a;" horiz-adv-x="537" 
d="M528 188v-65q0 -63 -42 -97t-149 -34q-177 0 -189 108q-1 7 -1 23l-1 434q0 63 41.5 97t148.5 34q96 0 140 -28.5t50 -81.5q2 -14 1 -21v-54q1 -6 -5 -6h-4q-6 0 -7 6v54q1 7 -1 19q-12 97 -174 97q-97 0 -135.5 -30.5t-38.5 -85.5l1 -434q0 -13 1 -20q6 -46 45 -71
t127 -25q98 0 137 30.5t39 85.5v65q-2 6 5 6h4q5 0 7 -6zM345 838v-75q1 -6 -5 -6h-4q-7 0 -7 6v75q0 6 5 6h5q5 0 6 -6z" />
    <glyph glyph-name="cdotaccent" unicode="&#x10b;" horiz-adv-x="468" 
d="M286 498q148 0 160 -93q2 -13 1 -19v-21q0 -6 -5 -6h-4q-7 0 -7 6v21q1 6 -1 16q-9 81 -145 81q-82 0 -113.5 -25.5t-32.5 -71.5v-282q0 -11 1 -17q10 -80 145 -80q82 0 113.5 25.5t32.5 71.5v29q0 6 7 6h4q5 0 5 -6v-29q-1 -55 -35.5 -83.5t-126.5 -28.5q-149 0 -161 93
q0 3 -0.5 9t-0.5 10v282q0 54 35.5 83t127.5 29zM291 674v-75q1 -6 -5 -6h-4q-7 0 -7 6v75q0 6 5 6h5q6 0 6 -6z" />
    <glyph glyph-name="Ccaron" unicode="&#x10c;" horiz-adv-x="537" 
d="M530 188v-65q0 -63 -42 -97t-149 -34q-177 0 -189 108q-1 7 -1 23v434q-1 63 40.5 97t148.5 34q96 0 140 -28.5t50 -81.5q2 -14 2 -21l-1 -54q1 -6 -5 -6h-4q-6 0 -7 6l1 54q0 7 -2 19q-12 97 -174 97q-97 0 -135.5 -30.5t-37.5 -85.5v-434q0 -13 1 -20q6 -46 45 -71
t127 -25q98 0 137 30.5t39 85.5v65q-2 6 5 6h4q5 0 7 -6zM256 872l76 -114l77 114q4 6 8 6h6q7 0 3 -6l-81 -123q-3 -5 -8 -5h-6q-6 0 -10 6l-81 122q-6 6 3 6h5q4 0 8 -6z" />
    <glyph glyph-name="ccaron" unicode="&#x10d;" horiz-adv-x="468" 
d="M287 498q149 0 161 -93q0 -3 0.5 -9.5t0.5 -9.5v-21q0 -6 -6 -6h-4q-6 0 -6 6v21q0 11 -1 16q-10 81 -145 81q-82 0 -114 -25.5t-32 -71.5v-282q-1 -6 1 -17q9 -80 145 -80q81 0 112.5 25.5t33.5 71.5v29q0 6 6 6h4q6 0 6 -6v-29q-1 -54 -36 -83t-127 -29q-148 0 -160 93
q-1 6 -1 19v282q0 54 35 83t127 29zM207 702l76 -114l77 114q5 6 9 6h6q8 0 2 -6l-81 -123q-2 -5 -8 -5h-6q-4 0 -10 6l-81 122q-4 6 4 6h5q4 0 7 -6z" />
    <glyph glyph-name="Dcaron" unicode="&#x10e;" horiz-adv-x="591" 
d="M354 0h-187q-6 0 -6 6v668q0 6 5 6h188q179 0 193 -111q0 -3 0.5 -10t0.5 -10v-418q1 -62 -42.5 -96.5t-151.5 -34.5zM354 665h-177v-650h177q98 0 138 30.5t40 85.5v418q0 12 -1 18q-12 98 -177 98zM260 872l76 -114l77 114q5 6 9 6h6q8 0 2 -6l-81 -123q-2 -5 -8 -5h-6
q-4 0 -10 6l-81 122q-4 6 4 6h5q4 0 7 -6z" />
    <glyph glyph-name="dcaron" unicode="&#x10f;" 
d="M440 6l-2 49q-79 -63 -180 -63q-60 0 -94 25.5t-39 69.5q0 3 -0.5 8.5t-0.5 8.5l1 282q0 52 32.5 82t100.5 30q101 0 181 -64l-1 259q-2 6 6 6h4q6 0 6 -6v-687q2 -6 -6 -6h-2q-4 0 -6 6zM141 386l-1 -282q0 -10 1 -14q5 -38 34.5 -60.5t82.5 -22.5q100 0 180 66v343
q-77 67 -179 67q-59 0 -88.5 -26.5t-29.5 -70.5zM546 668v25q-2 6 6 6h4q4 0 6 -6v-25q0 -43 -33 -105q-3 -5 -8 -3l-4 2q-4 2 -2 8q1 3 4 8q26 59 27 90z" />
    <glyph glyph-name="Dcroat" unicode="&#x110;" horiz-adv-x="591" 
d="M342 0h-187q-6 0 -6 6v332h-86q-6 0 -6 6v3q-1 6 6 6h86l-1 321q2 6 6 6h188q178 0 192 -111q2 -14 2 -20v-418q0 -63 -43 -97t-151 -34zM342 665h-177l-1 -312h168q4 0 6 -6v-3q0 -6 -6 -6h-168v-323h177q98 0 138.5 30.5t40.5 85.5v418q0 3 -0.5 9t-0.5 9
q-12 98 -177 98z" />
    <glyph glyph-name="dcroat" unicode="&#x111;" 
d="M440 6l-2 49q-79 -63 -180 -63q-60 0 -94 25.5t-39 69.5q0 3 -0.5 8.5t-0.5 8.5l1 282q0 52 32.5 82t100.5 30q101 0 181 -64l-1 141h-202q-6 0 -6 6l-1 3q0 6 5 6h204v103q-2 6 6 6h4q6 0 6 -6l-1 -103h50q7 0 7 -6l1 -3q0 -6 -6 -6h-52l1 -569q2 -6 -6 -6h-2q-4 0 -6 6
zM141 386l-1 -282q0 -10 1 -14q5 -38 34.5 -60.5t82.5 -22.5q100 0 180 66v343q-77 67 -179 67q-59 0 -88.5 -26.5t-29.5 -70.5z" />
    <glyph glyph-name="Emacron" unicode="&#x112;" horiz-adv-x="534" 
d="M517 0h-355q-4 0 -6 6v668q2 6 7 6h341q5 0 5 -6l1 -3q0 -6 -7 -6h-331l1 -297h312q5 0 6 -6v-3q0 -6 -6 -6h-312l-1 -338h344q4 0 6 -6v-3q2 -6 -5 -6zM184 807h268q5 0 7 -5v-4q1 -6 -6 -6h-268q-5 0 -7 6v3q-2 6 6 6z" />
    <glyph glyph-name="emacron" unicode="&#x113;" horiz-adv-x="486" 
d="M451 386l-1 -126q-2 -6 -5 -6h-308l-1 -150q0 -10 1 -15q10 -82 148 -82q82 0 115 25.5t34 71.5l1 29q0 6 6 6h4q6 0 6 -6l-1 -29q-1 -54 -37 -83t-128 -29q-152 0 -164 94q0 3 -0.5 9t-0.5 9l1 282q0 54 36.5 83t128.5 29q153 0 163 -94q2 -12 2 -18zM137 386l-1 -117
h298l1 117q0 2 -0.5 7t-0.5 8q-10 82 -148 82q-149 0 -149 -97zM141 634h268q5 0 7 -5v-4q2 -6 -6 -6h-268q-6 0 -7 6v3q-1 6 6 6z" />
    <glyph glyph-name="Ebreve" unicode="&#x114;" horiz-adv-x="534" 
d="M521 0h-355q-5 0 -5 6v668q0 6 6 6h341q4 0 6 -6v-3q2 -6 -6 -6h-331v-297h312q5 0 6 -6v-3q1 -6 -6 -6h-312v-338h344q5 0 5 -6l1 -3q0 -6 -6 -6zM240 872l2 -26q0 -14 1 -18q4 -32 22.5 -47t63.5 -15q53 0 69 23t15 71l-1 12q0 6 7 6h4q5 0 5 -6l1 -12
q1 -56 -18.5 -82.5t-81.5 -26.5q-51 0 -74 18.5t-28 58.5q-1 6 -1 18l-2 26q0 6 7 6h4q5 0 5 -6z" />
    <glyph glyph-name="ebreve" unicode="&#x115;" horiz-adv-x="486" 
d="M454 386l-1 -126q0 -6 -5 -6h-308l-1 -150q0 -2 0.5 -7t0.5 -8q10 -82 148 -82q82 0 115 25.5t34 71.5l1 29q0 6 6 6h4q6 0 6 -6l-1 -29q-1 -54 -37 -83t-128 -29q-153 0 -163 94q-2 12 -2 18l1 282q0 54 36.5 83t128.5 29q152 0 164 -94q0 -3 0.5 -9t0.5 -9zM140 386
l-1 -117h298l1 117q0 10 -1 15q-10 82 -148 82q-149 0 -149 -97zM192 682l1 -26q0 -14 1 -18q4 -32 23 -47t64 -15q53 0 68.5 23t14.5 71v12q-1 6 6 6h4q4 0 6 -6v-12q1 -56 -18.5 -82.5t-81.5 -26.5q-51 0 -74 18.5t-28 58.5q-1 6 -1 18l-1 26q-2 6 6 6h4q5 0 6 -6z" />
    <glyph glyph-name="Edotaccent" unicode="&#x116;" horiz-adv-x="534" 
d="M519 0h-355q-5 0 -5 6v668q0 6 6 6h341q4 0 6 -6v-3q0 -6 -6 -6h-331v-297h312q5 0 6 -6v-3q1 -6 -6 -6h-312l-1 -338h344q6 0 6 -6l1 -3q0 -6 -6 -6zM333 838l1 -75q0 -6 -6 -6h-4q-7 0 -6 6l-1 75q0 6 6 6h5q5 0 5 -6z" />
    <glyph glyph-name="edotaccent" unicode="&#x117;" horiz-adv-x="486" 
d="M453 386v-126q-1 -6 -5 -6h-308l-1 -150q0 -10 1 -15q10 -82 148 -82q82 0 115 25.5t34 71.5v29q1 6 7 6h4q6 0 5 -6v-29q-1 -54 -37 -83t-128 -29q-152 0 -164 94q-1 6 -1 18v282q0 54 37 83t129 29q151 0 163 -94q2 -12 1 -18zM139 386v-117h298v117q1 0 1 8l-1 7
q-10 82 -149 82q-82 0 -115 -25.5t-34 -71.5zM284 674v-75q2 -6 -5 -6h-4q-7 0 -7 6v75q0 6 5 6h5q6 0 6 -6z" />
    <glyph glyph-name="Eogonek" unicode="&#x118;" horiz-adv-x="534" 
d="M501 0h-21q-41 0 -60.5 -22.5t-16.5 -51.5q2 -23 20.5 -36.5t50.5 -13.5h28q6 0 7 -6v-3q1 -6 -5 -6h-28q-81 0 -89 66q-3 24 8 43.5t31 29.5h-280q-6 0 -6 6v668q0 6 6 6h341q5 0 6 -6v-3q1 -6 -6 -6h-331l1 -297h312q5 0 5 -6l1 -3q0 -6 -7 -6h-312v-338h344q4 0 6 -6
v-3q0 -6 -5 -6z" />
    <glyph glyph-name="eogonek" unicode="&#x119;" horiz-adv-x="486" 
d="M434 386v-126q-2 -6 -6 -6h-308v-150q-1 -5 1 -15q10 -82 148 -82q82 0 115 25.5t34 71.5v29q2 6 6 6h4q8 0 6 -6v-29q-2 -58 -38 -84q-35 -27 -44 -45q-10 -19 -7 -43q7 -56 78 -56h35q6 0 7 -6v-3q0 -6 -5 -6h-35q-87 0 -96 70q-5 39 21 69q-35 -8 -81 -8
q-152 0 -164 94q-1 6 -1 18v282q0 54 36.5 83t128.5 29q152 0 164 -94q1 -6 1 -18zM120 386v-117h298v117q1 5 -1 15q-9 82 -148 82q-149 0 -149 -97z" />
    <glyph glyph-name="Ecaron" unicode="&#x11a;" horiz-adv-x="534" 
d="M521 0h-355q-5 0 -5 6v668q0 6 6 6h341q4 0 6 -6v-3q2 -6 -6 -6h-331v-297h312q5 0 6 -6v-3q1 -6 -6 -6h-312v-338h344q5 0 5 -6l1 -3q0 -6 -6 -6zM250 872l76 -114l77 114q5 6 9 6h6q8 0 2 -6l-81 -123q-2 -5 -8 -5h-6q-4 0 -10 6l-81 122q-4 6 4 6h5q4 0 7 -6z" />
    <glyph glyph-name="ecaron" unicode="&#x11b;" horiz-adv-x="486" 
d="M455 386v-126q-1 -6 -6 -6h-308v-150q-1 -5 1 -15q9 -82 148 -82q82 0 114.5 25.5t34.5 71.5v29q1 6 6 6h4q7 0 6 -6v-29q-1 -54 -37 -83t-129 -29q-151 0 -163 94q-2 12 -1 18v282q0 54 36.5 83t128.5 29q152 0 164 -94q1 -6 1 -18zM141 386l-1 -117h298l1 117
q0 10 -1 15q-10 82 -148 82q-149 0 -149 -97zM202 702l76 -114l77 114q5 6 9 6h6q8 0 2 -6l-81 -123q-2 -5 -8 -5h-6q-4 0 -10 6l-81 122q-4 6 4 6h5q4 0 7 -6z" />
    <glyph glyph-name="Gcircumflex" unicode="&#x11c;" horiz-adv-x="555" 
d="M350 301h174q4 0 6 -6v-172q0 -63 -42 -97t-149 -34q-177 0 -189 108q-1 7 -1 23v434q-1 63 40.5 97t148.5 34q96 0 140 -28.5t50 -81.5q2 -14 2 -21l-1 -54q1 -6 -5 -6h-4q-6 0 -7 6l1 54q0 7 -2 19q-12 97 -174 97q-97 0 -135.5 -30.5t-37.5 -85.5v-434q0 -13 1 -20
q6 -46 45 -71t127 -25q97 0 136 30t39 84l1 165h-163q-5 0 -7 6v3q-2 6 6 6zM339 864l-77 -114q-4 -6 -7 -6h-6q-8 0 -4 6l80 122q2 6 9 6h7q4 0 9 -5l81 -123q4 -6 -2 -6h-4q-6 0 -10 6z" />
    <glyph glyph-name="gcircumflex" unicode="&#x11d;" 
d="M247 -8q-61 0 -95 26t-39 71q-1 5 -1 15l1 282q0 52 33 82t101 30q103 0 180 -64l2 50q0 6 6 6h2q4 0 6 -6v-583q0 -54 -35.5 -83t-127.5 -29h-132q-4 0 -6 6v3q-2 6 6 6h132q149 0 147 97l-1 154q-76 -63 -179 -63zM129 386l-1 -282q0 -9 1 -13q5 -39 34.5 -61.5
t83.5 -22.5q97 0 180 66v343q-80 67 -180 67q-58 0 -88 -27t-30 -70zM277 694l-77 -114q-5 -6 -7 -6h-6q-8 0 -4 6l80 122q2 6 9 6h7q4 0 9 -5l81 -123q4 -6 -2 -6h-4q-6 0 -10 6z" />
    <glyph glyph-name="Gbreve" unicode="&#x11e;" horiz-adv-x="555" 
d="M350 301h174q4 0 6 -6v-172q0 -63 -42 -97t-149 -34q-177 0 -189 108q-1 7 -1 23v434q-1 63 40.5 97t148.5 34q96 0 140 -28.5t50 -81.5q2 -14 2 -21l-1 -54q1 -6 -5 -6h-4q-6 0 -7 6l1 54q0 7 -2 19q-12 97 -174 97q-97 0 -135.5 -30.5t-37.5 -85.5v-434q0 -13 1 -20
q6 -46 45 -71t127 -25q97 0 136 30t39 84l1 165h-163q-5 0 -7 6v3q-2 6 6 6zM241 872l1 -26q0 -6 0.5 -11.5t0.5 -6.5q4 -32 23 -47t64 -15q53 0 68.5 23t14.5 71v12q-1 6 6 6h4q4 0 6 -6v-12q1 -56 -18 -82.5t-81 -26.5q-51 0 -74.5 18.5t-28.5 58.5q0 2 -0.5 7t-0.5 11
l-1 26q-1 6 6 6h4q5 0 6 -6z" />
    <glyph glyph-name="gbreve" unicode="&#x11f;" 
d="M246 -8q-61 0 -95 26t-39 71q-1 5 -1 15v282q0 51 33.5 81.5t101.5 30.5q104 0 179 -64l2 50q1 6 7 6h2q5 0 5 -6l1 -583q0 -54 -35.5 -83t-127.5 -29h-132q-6 0 -6 6v3q-1 6 6 6h132q149 0 147 97l-1 154q-76 -63 -179 -63zM127 386v-282q0 -9 1 -13q5 -39 34.5 -61.5
t83.5 -22.5q97 0 180 66v343q-80 67 -181 67q-58 0 -87.5 -26.5t-30.5 -70.5zM180 682l1 -26q1 -11 1 -18q4 -32 23 -47t64 -15q53 0 68.5 23t15.5 71l-1 12q-1 6 6 6h4q6 0 6 -6l1 -12q0 -56 -19 -82.5t-81 -26.5q-51 0 -74.5 18.5t-28.5 58.5q0 7 -1 18l-1 26q0 6 6 6h4
q5 0 6 -6z" />
    <glyph glyph-name="Gdotaccent" unicode="&#x120;" horiz-adv-x="555" 
d="M348 300h174q4 0 6 -6v-172q0 -63 -42 -97t-149 -34q-177 0 -189 108q-1 7 -1 23l-1 434q0 63 41.5 97t148.5 34q96 0 140 -28.5t50 -81.5q2 -14 1 -21v-54q1 -6 -5 -6h-4q-6 0 -7 6v54q1 6 -1 19q-12 97 -174 97q-97 0 -135.5 -30.5t-38.5 -85.5l1 -434q0 -13 1 -20
q6 -46 45 -71t127 -25q97 0 136 30t39 84l1 165h-163q-7 0 -7 6v3q-2 6 6 6zM328 837v-75q2 -6 -5 -6h-4q-7 0 -7 6v75q0 6 5 6h5q4 0 6 -6z" />
    <glyph glyph-name="gdotaccent" unicode="&#x121;" 
d="M245 -8q-61 0 -95 26t-39 71v4.5v5v5.5v282q0 52 33 82t101 30q103 0 180 -64l2 50q0 6 6 6h2q4 0 6 -6v-583q0 -54 -35.5 -83t-127.5 -29h-132q-4 0 -6 6v3q0 6 6 6h132q149 0 147 97v154q-79 -63 -180 -63zM127 386v-282v-13q5 -39 34.5 -61.5t83.5 -22.5q100 0 180 66
v343q-77 67 -180 67q-58 0 -88 -27t-30 -70zM276 674v-75q0 -6 -6 -6h-4q-7 0 -6 6v75q-2 6 5 6h5q4 0 6 -6z" />
    <glyph glyph-name="Gcommaaccent" unicode="&#x122;" horiz-adv-x="555" 
d="M327 301h174q5 0 6 -6v-172q0 -63 -42 -97t-149 -34q-176 0 -189 108q-1 7 -1 23v434q-1 63 41 97t149 34q96 0 139.5 -28.5t49.5 -81.5q2 -14 2 -21l-1 -54q2 -6 -5 -6h-4q-5 0 -7 6l1 54q0 7 -2 19q-12 97 -174 97q-97 0 -135 -30.5t-38 -85.5v-434q0 -3 0.5 -9.5
t0.5 -10.5q6 -46 45 -71t127 -25q97 0 136 30t39 84l1 165h-163q-6 0 -7 6v3q-1 6 6 6zM313 -81v25q-1 6 6 6h4q5 0 6 -6v-25q0 -43 -33 -105q-4 -5 -8 -3l-4 2q-4 2 -2 8q27 54 30 79q1 9 1 19z" />
    <glyph glyph-name="gcommaaccent" unicode="&#x123;" 
d="M248 -8q-61 0 -95 26t-39 71q-1 5 -1 15v282q0 52 33 82t101 30q103 0 180 -64l2 50q1 6 6 6h2q6 0 6 -6l1 -583q0 -54 -36 -83t-128 -29h-132q-5 0 -5 6l-1 3q0 6 7 6h132q81 0 114 25.5t33 71.5l-1 154q-76 -63 -179 -63zM129 386v-282v-13q5 -38 35 -61t84 -23
q97 0 180 66l-1 343q-77 67 -180 67q-58 0 -88 -27t-30 -70zM274 607v-25q2 -6 -6 -6h-4q-4 0 -6 6v25q0 43 33 105q3 5 8 3l4 -2q4 -2 2 -8q-1 -3 -4 -8q-26 -59 -27 -90z" />
    <glyph glyph-name="Hcircumflex" unicode="&#x124;" horiz-adv-x="603" 
d="M177 674v-297h355v297q-2 6 6 6h4q6 0 6 -6v-668q0 -6 -6 -6h-4q-6 0 -6 6v356h-355v-356q0 -6 -6 -6h-4q-6 0 -6 6v668q0 6 6 6h4q5 0 6 -6zM350 864l-77 -114q-3 -6 -7 -6h-6q-6 0 -4 6l80 122q4 6 10 6h7q5 0 8 -5l81 -123q6 -6 -2 -6h-4q-5 0 -10 6z" />
    <glyph glyph-name="hcircumflex" unicode="&#x125;" horiz-adv-x="516" 
d="M165 693v-259q77 64 180 64q61 0 94.5 -25.5t38.5 -69.5q0 -1 0.5 -6.5t0.5 -10.5l1 -380q0 -6 -7 -6h-4q-6 0 -5 6l-1 380q0 12 -1 14q-5 38 -34.5 60.5t-82.5 22.5q-100 0 -180 -67l1 -410q0 -6 -7 -6h-4q-6 0 -5 6l-1 687q1 6 7 6h4q6 0 5 -6zM154 864l-77 -114
q-3 -6 -7 -6h-6q-6 0 -4 6l80 122q4 6 10 6h7q5 0 8 -5l81 -123q6 -6 -2 -6h-4q-5 0 -10 6z" />
    <glyph glyph-name="Hbar" unicode="&#x126;" horiz-adv-x="603" 
d="M164 674v-146h355v146q0 6 7 6h4q6 0 5 -6v-146h42q7 0 7 -6l1 -3q0 -6 -6 -6h-44l1 -507q0 -6 -6 -6h-4q-6 0 -6 6v356h-355v-356q0 -6 -6 -6h-4q-6 0 -6 6l-1 507h-38q-6 0 -6 6l-1 3q0 6 5 6h40v146q2 6 7 6h4q5 0 5 -6zM165 377h355l-1 136h-355z" />
    <glyph glyph-name="hbar" unicode="&#x127;" horiz-adv-x="516" 
d="M154 693v-103h203q5 0 7 -6v-3q2 -6 -5 -6h-205v-141q77 64 180 64q61 0 94.5 -25.5t38.5 -69.5q0 -1 0.5 -6.5t0.5 -10.5l1 -380q0 -6 -7 -6h-4q-6 0 -5 6l-1 380q0 12 -1 14q-5 38 -34.5 60.5t-82.5 22.5q-100 0 -180 -67l1 -410q0 -6 -7 -6h-4q-6 0 -5 6l-1 569h-48
q-6 0 -7 6v3q-1 6 5 6h50v103q2 6 7 6h4q6 0 5 -6z" />
    <glyph glyph-name="Itilde" unicode="&#x128;" horiz-adv-x="232" 
d="M176 674v-668q0 -6 -6 -6h-4q-6 0 -6 6v668q0 6 6 6h4q6 0 6 -6zM103 848q-23 0 -31 -14.5t-7 -53.5v-10q0 -6 -6 -6h-4q-6 0 -6 6v10q0 47 12.5 65t40.5 18q26 0 48 -24l44 -43q17 -17 34 -17q23 0 30.5 13.5t7.5 54.5v10q0 6 7 6h4q5 0 5 -6v-10q0 -47 -12.5 -65
t-39.5 -18q-24 0 -49 24l-43 42q-22 18 -35 18z" />
    <glyph glyph-name="itilde" unicode="&#x129;" horiz-adv-x="208" 
d="M154 484v-478q0 -6 -6 -6h-4q-6 0 -6 6v478q0 6 6 6h4q6 0 6 -6zM78 675q-23 0 -31.5 -14.5t-7.5 -53.5l1 -10q0 -6 -7 -6h-4q-5 0 -5 6l-1 10q0 47 12.5 65t40.5 18q25 0 49 -24l43 -43q17 -17 34 -17q23 0 31 13.5t8 54.5v10q-1 6 6 6h4q5 0 6 -6v-10q0 -47 -12.5 -65
t-40.5 -18q-24 0 -49 24l-43 42q-20 18 -34 18z" />
    <glyph glyph-name="Imacron" unicode="&#x12a;" horiz-adv-x="232" 
d="M172 674v-668q2 -6 -5 -6h-4q-5 0 -7 6v668q2 6 7 6h4q7 0 5 -6zM28 807h268q5 0 7 -5v-4q1 -6 -6 -6h-268q-5 0 -7 6v3q-2 6 6 6z" />
    <glyph glyph-name="imacron" unicode="&#x12b;" horiz-adv-x="208" 
d="M151 484v-478q-1 -6 -7 -6h-4q-6 0 -5 6v478q0 6 5 6h4q7 0 7 -6zM11 634h268q6 0 6 -5l1 -4q0 -6 -7 -6h-268q-6 0 -6 6l-1 3q0 6 7 6z" />
    <glyph glyph-name="Ibreve" unicode="&#x12c;" horiz-adv-x="232" 
d="M177 674v-668q0 -6 -6 -6h-4q-6 0 -6 6v668q0 6 6 6h4q6 0 6 -6zM77 872l2 -26q0 -14 1 -18q4 -32 22.5 -47t63.5 -15q53 0 69 23t15 71l-1 12q0 6 7 6h4q5 0 5 -6l1 -12q1 -56 -18.5 -82.5t-81.5 -26.5q-51 0 -74 18.5t-28 58.5q-1 6 -1 18l-2 26q0 6 7 6h4q5 0 5 -6z
" />
    <glyph glyph-name="ibreve" unicode="&#x12d;" horiz-adv-x="208" 
d="M154 484v-478q-2 -6 -6 -6h-4q-6 0 -6 6v478q0 6 6 6h4q6 0 6 -6zM57 682l1 -26q1 -11 1 -18q4 -32 23 -47t64 -15q53 0 68.5 23t14.5 71v12q-1 6 6 6h4q6 0 6 -6v-12q1 -56 -18 -82.5t-81 -26.5q-51 0 -74.5 18.5t-28.5 58.5q0 7 -1 18l-1 26q0 6 6 6h4q5 0 6 -6z" />
    <glyph glyph-name="Iogonek" unicode="&#x12e;" horiz-adv-x="232" 
d="M156 674v-668q0 -6 -5 -6h-1q-38 -11 -54.5 -34t-13.5 -45q6 -45 71 -45h18q5 0 7 -6v-3q2 -6 -5 -6h-18q-82 0 -89 61q-4 30 17.5 55t56.5 35v662q0 6 6 6h4q6 0 6 -6z" />
    <glyph glyph-name="iogonek" unicode="&#x12f;" horiz-adv-x="208" 
d="M146 484v-478q0 -6 -6 -6h-1q-37 -11 -53.5 -34t-13.5 -45q5 -45 70 -45h18q6 0 7 -6v-3q1 -6 -5 -6h-18q-80 0 -89 61q-3 31 20.5 56.5t54.5 34.5v471q0 6 6 6h4q6 0 6 -6zM146 693v-99q0 -6 -6 -6h-4q-6 0 -6 6v99q-2 6 6 6h4q6 0 6 -6z" />
    <glyph glyph-name="Idotaccent" unicode="&#x130;" horiz-adv-x="232" 
d="M175 674v-668q0 -6 -6 -6h-4q-6 0 -6 6v668q0 6 6 6h4q6 0 6 -6zM175 838l1 -75q0 -6 -6 -6h-4q-7 0 -6 6l-1 75q0 6 6 6h5q5 0 5 -6z" />
    <glyph glyph-name="dotlessi" unicode="&#x131;" horiz-adv-x="208" 
d="M142 484v-478q-2 -6 -6 -6h-4q-7 0 -6 6v478q0 6 5 6h4q7 0 7 -6z" />
    <glyph glyph-name="IJ" unicode="&#x132;" horiz-adv-x="713" 
d="M164 674v-668q2 -6 -5 -6h-4q-5 0 -7 6v668q2 6 6 6h4q8 0 6 -6zM331 155v-32q0 -16 1 -24q5 -44 39 -68t112 -24q88 0 120.5 30t32.5 86v551q0 6 5 6h4q7 0 7 -6v-551q0 -64 -36 -97.5t-133 -33.5q-84 0 -122.5 27.5t-44.5 78.5q-1 8 -1 25v32q-1 6 6 6h4q5 0 6 -6z" />
    <glyph glyph-name="ij" unicode="&#x133;" horiz-adv-x="415" 
d="M142 484v-478q-2 -6 -7 -6h-4q-6 0 -5 6v478q0 6 5 6h4q7 0 7 -6zM141 693l1 -99q0 -6 -7 -6h-4q-5 0 -5 6l-1 99q0 6 7 6h4q6 0 5 -6zM347 693v-99q0 -6 -6 -6h-4q-6 0 -6 6v99q0 6 6 6h4q6 0 6 -6zM347 484v-583q0 -54 -36 -83t-126 -29h-3q-5 0 -5 6l-1 3q0 6 6 6h3
q80 0 112.5 25.5t33.5 71.5v583q0 6 6 6h4q6 0 6 -6z" />
    <glyph glyph-name="Jcircumflex" unicode="&#x134;" horiz-adv-x="481" 
d="M111 155v-32q0 -16 1 -24q5 -44 39 -68t112 -24q88 0 120.5 30t32.5 86v551q0 6 5 6h4q7 0 7 -6v-551q0 -64 -36 -97.5t-133 -33.5q-84 0 -122.5 27.5t-44.5 78.5q-1 8 -1 25v32q-1 6 6 6h4q5 0 6 -6zM417 864l-77 -114q-4 -6 -7 -6h-6q-8 0 -4 6l80 122q2 6 9 6h7
q4 0 9 -5l81 -123q4 -6 -2 -6h-4q-6 0 -10 6z" />
    <glyph glyph-name="jcircumflex" unicode="&#x135;" horiz-adv-x="207" 
d="M140 484l-1 -583q0 -54 -35.5 -83t-124.5 -29h-3q-4 0 -6 6v3q-2 6 5 6h3q145 0 145 97l1 583q-2 6 6 6h4q4 0 6 -6zM123 694l-77 -114q-4 -6 -7 -6h-6q-8 0 -4 6l80 122q2 6 9 6h7q4 0 9 -5l81 -123q4 -6 -2 -6h-4q-6 0 -10 6z" />
    <glyph glyph-name="Kcommaaccent" unicode="&#x136;" horiz-adv-x="519" 
d="M210 344l313 -338q4 -6 -2 -6h-5q-7 0 -13 6l-306 329h-44v-329q0 -6 -5 -6h-4q-7 0 -7 6v668q0 6 6 6h4q6 0 6 -6l1 -324h41l278 325q3 5 10 5h7q7 0 3 -6zM284 -81v25q0 6 7 6h4q5 0 5 -6v-25q1 -45 -33 -105q-2 -6 -7 -3l-5 2q-4 2 -2 8q12 23 17.5 34.5t9.5 28
t4 35.5z" />
    <glyph glyph-name="kcommaaccent" unicode="&#x137;" horiz-adv-x="429" 
d="M443 0h-6q-7 0 -13 6l-237 263h-45v-263q-2 -6 -6 -6h-4q-6 0 -6 6v687q0 6 6 6h4q4 0 6 -6v-409h41l209 201q5 5 11 5h8q9 0 3 -6l-214 -206l245 -272q6 -6 -2 -6zM256 -81v25q-2 6 6 6h4q4 0 6 -6v-25q0 -43 -33 -105q-3 -5 -8 -3l-4 2q-5 3 -2 8q30 60 31 98z" />
    <glyph glyph-name="kgreenlandic" unicode="&#x138;" horiz-adv-x="429" 
d="M442 0h-6q-8 0 -13 6l-237 263h-45v-263q-1 -6 -6 -6h-4q-6 0 -6 6v478q1 6 6 6h4q6 0 6 -6v-200h41l209 201q5 5 10 5h8q4 0 5 -2t-1 -4l-215 -206l246 -272q6 -6 -2 -6z" />
    <glyph glyph-name="Lacute" unicode="&#x139;" horiz-adv-x="501" 
d="M177 674v-659h329q5 0 5 -6l1 -3q0 -6 -6 -6h-340q-5 0 -5 6v668q0 6 6 6h4q6 0 6 -6zM260 872l-83 -125q-3 -3 -6 -3h-7q-5 0 -3 5l83 125q4 4 7 4h7q8 0 2 -6z" />
    <glyph glyph-name="lacute" unicode="&#x13a;" horiz-adv-x="208" 
d="M164 693l1 -687q0 -6 -6 -6h-5q-5 0 -5 6l-1 687q2 6 7 6h4q5 0 5 -6zM249 872l-83 -125q-3 -3 -6 -3h-7q-5 0 -3 5l83 125q4 4 7 4h7q8 0 2 -6z" />
    <glyph glyph-name="Lcommaaccent" unicode="&#x13b;" horiz-adv-x="501" 
d="M153 674v-659h329q5 0 5 -6l1 -3q0 -6 -5 -6h-340q-6 0 -6 6v668q0 6 6 6h4q6 0 6 -6zM299 -81v25q0 6 7 6h4q5 0 5 -6v-25q1 -45 -33 -105q-2 -6 -7 -3l-5 2q-4 2 -2 8q12 23 17.5 34.5t9.5 28t4 35.5z" />
    <glyph glyph-name="lcommaaccent" unicode="&#x13c;" horiz-adv-x="208" 
d="M142 693v-687q0 -6 -5 -6h-5q-6 0 -6 6v687q0 6 6 6h4q4 0 6 -6zM126 -81v25q-2 6 6 6h4q4 0 6 -6v-25q0 -43 -33 -105q-3 -5 -8 -3l-4 2q-5 3 -2 8q30 60 31 98z" />
    <glyph glyph-name="Lcaron" unicode="&#x13d;" horiz-adv-x="501" 
d="M164 674v-659h329q6 0 6 -6l1 -3q0 -6 -6 -6h-340q-5 0 -5 6l-1 668q2 6 7 6h4q7 0 5 -6zM363 649l-1 25q0 6 7 6h4q5 0 5 -6l1 -25q0 -45 -34 -105q-2 -6 -7 -3l-4 2q-6 2 -2 8q30 60 31 98z" />
    <glyph glyph-name="lcaron" unicode="&#x13e;" horiz-adv-x="208" 
d="M153 693l1 -687q0 -6 -6 -6h-5q-5 0 -5 6l-1 687q1 6 7 6h4q5 0 5 -6zM245 668v25q0 6 7 6h4q5 0 5 -6v-25q1 -45 -33 -105q-2 -6 -7 -3l-5 2q-4 2 -2 8q12 23 17.5 34.5t9.5 28t4 35.5z" />
    <glyph glyph-name="Ldot" unicode="&#x13f;" horiz-adv-x="501" 
d="M164 674v-659h329q6 0 6 -6l1 -3q0 -6 -6 -6h-340q-5 0 -5 6l-1 668q2 6 7 6h4q7 0 5 -6zM407 392v-75q1 -6 -5 -6h-4q-7 0 -7 6v75q0 6 5 6h5q6 0 6 -6z" />
    <glyph glyph-name="ldot" unicode="&#x140;" horiz-adv-x="234" 
d="M153 693l1 -687q0 -6 -6 -6h-5q-5 0 -5 6l-1 687q1 6 7 6h4q5 0 5 -6zM261 392v-75q1 -6 -5 -6h-4q-7 0 -7 6v75q0 6 6 6h5q5 0 5 -6z" />
    <glyph glyph-name="Lslash" unicode="&#x141;" horiz-adv-x="501" 
d="M164 674v-324l78 32q4 1 7 -2l2 -5q3 -5 -4 -7l-83 -35v-318h329q6 0 6 -6l1 -3q0 -6 -6 -6h-340q-5 0 -5 6l-1 321l-74 -31q-6 -2 -7 3l-2 3q-2 6 3 8l80 33v331q2 6 7 6h4q7 0 5 -6z" />
    <glyph glyph-name="lslash" unicode="&#x142;" horiz-adv-x="208" 
d="M153 693v-342l76 31q4 2 6 -2l2 -5q3 -5 -4 -7l-80 -34l1 -328q0 -6 -6 -6h-5q-5 0 -5 6l-1 322l-77 -32q-6 -2 -7 3l-2 3q-2 6 3 8l83 34v349q1 6 7 6h4q5 0 5 -6z" />
    <glyph glyph-name="Nacute" unicode="&#x143;" horiz-adv-x="602" 
d="M546 674v-668q0 -6 -6 -6h-2q-4 0 -6 3l-328 590q-2 3 -28 52v-639q0 -6 -6 -6h-3q-6 0 -6 6v668q0 6 6 6h1q4 0 5 -3l330 -590q16 -35 28 -51v638q0 6 6 6h3q6 0 6 -6zM446 872l-83 -125q-3 -3 -6 -3h-7q-5 0 -3 5l83 125q4 4 7 4h7q8 0 2 -6z" />
    <glyph glyph-name="nacute" unicode="&#x144;" horiz-adv-x="516" 
d="M145 490h2q5 0 7 -6l1 -50q77 64 180 64q61 0 94.5 -25.5t38.5 -69.5l2 -17l-1 -380q0 -6 -6 -6h-4q-6 0 -6 6l1 380q-1 9 -1 13q-5 38 -34 61t-83 23q-104 0 -181 -67v-410q0 -6 -6 -6h-4q-6 0 -6 6l1 478q-2 6 5 6zM411 702l-84 -125q-3 -3 -6 -3h-7q-5 0 -2 5l83 125
q2 4 6 4h7q7 0 3 -6z" />
    <glyph glyph-name="Ncommaaccent" unicode="&#x145;" horiz-adv-x="602" 
d="M522 674v-668q0 -6 -5 -6h-2q-5 0 -7 3l-328 590q-2 3 -28 52v-639q0 -6 -5 -6h-3q-7 0 -7 6v668q0 6 6 6h1q4 0 5 -3l330 -590l28 -51v638q0 6 6 6h3q6 0 6 -6zM323 -81v25q0 6 7 6h4q5 0 5 -6v-25q1 -45 -33 -105q-2 -6 -7 -3l-5 2q-4 2 -2 8q12 23 17.5 34.5t9.5 28
t4 35.5z" />
    <glyph glyph-name="ncommaaccent" unicode="&#x146;" horiz-adv-x="516" 
d="M120 490h2q6 0 7 -6l1 -50q77 64 180 64q61 0 95 -25.5t39 -69.5v-6q1 -6 1 -11v-380q-1 -6 -7 -6h-4q-6 0 -5 6v380q0 4 -0.5 7t-0.5 5v1q-5 38 -34 61t-83 23q-101 0 -181 -67l1 -410q-1 -6 -7 -6h-4q-6 0 -5 6v478q-1 6 5 6zM276 -81v25q0 6 6 6h4q6 0 6 -6v-25
q1 -45 -33 -105q-2 -6 -7 -3l-5 2q-4 2 -2 8q12 23 17.5 34.5t9.5 28t4 35.5z" />
    <glyph glyph-name="Ncaron" unicode="&#x147;" horiz-adv-x="602" 
d="M546 674v-668q0 -6 -6 -6h-2q-4 0 -6 3l-328 590q-2 3 -28 52v-639q0 -6 -6 -6h-3q-6 0 -6 6v668q0 6 6 6h1q4 0 5 -3l330 -590q16 -35 28 -51v638q0 6 6 6h3q6 0 6 -6zM268 872l76 -114l77 114q5 6 9 6h6q8 0 2 -6l-81 -123q-2 -5 -8 -5h-6q-4 0 -10 6l-81 122q-4 6 4 6
h5q4 0 7 -6z" />
    <glyph glyph-name="ncaron" unicode="&#x148;" horiz-adv-x="516" 
d="M145 490h2q5 0 7 -6l1 -50q77 64 180 64q61 0 94.5 -25.5t38.5 -69.5l2 -17l-1 -380q0 -6 -6 -6h-4q-6 0 -6 6l1 380q-1 9 -1 13q-5 38 -34 61t-83 23q-104 0 -181 -67v-410q0 -6 -6 -6h-4q-6 0 -6 6l1 478q-2 6 5 6zM230 702l76 -114l77 114q4 6 8 6h6q7 0 3 -6
l-81 -123q-3 -5 -9 -5h-6q-5 0 -9 6l-81 122q-6 6 3 6h5q3 0 8 -6z" />
    <glyph glyph-name="napostrophe" unicode="&#x149;" horiz-adv-x="516" 
d="M144 490h2q6 0 7 -6l1 -50q77 64 180 64q61 0 95 -25.5t39 -69.5v-6q1 -6 1 -11v-380q-1 -6 -7 -6h-4q-6 0 -5 6v380q0 12 -1 13q-4 38 -33.5 61t-83.5 23q-101 0 -181 -67l1 -410q-1 -6 -7 -6h-4q-6 0 -5 6v478q-1 6 5 6zM137 668v25q0 6 7 6h4q5 0 5 -6v-25
q1 -45 -33 -105q-2 -6 -7 -3l-5 2q-4 2 -2 8q12 23 17.5 34.5t9.5 28t4 35.5z" />
    <glyph glyph-name="Eng" unicode="&#x14a;" horiz-adv-x="602" 
d="M521 674l-1 -773q0 -54 -35.5 -83t-125.5 -29h-3q-4 0 -6 6v3q0 6 5 6h3q147 0 147 97l1 104l-328 588q-4 7 -13.5 26t-13.5 26v-639q0 -6 -6 -6h-3q-6 0 -6 6v668q0 6 6 6h1q3 0 5 -3l330 -590q16 -35 28 -51v638q0 6 6 6h3q6 0 6 -6z" />
    <glyph glyph-name="eng" unicode="&#x14b;" horiz-adv-x="516" 
d="M444 386l-1 -485q0 -54 -35.5 -83t-125.5 -29h-3q-5 0 -6 6v3q-1 6 5 6h3q146 0 146 97l1 485v6.5t-1 6.5q-5 38 -34 61t-83 23q-101 0 -181 -67v-410q0 -6 -6 -6h-4q-6 0 -6 6l1 478q-2 6 5 6h2q5 0 7 -6l1 -50q77 64 180 64q61 0 95 -25.5t39 -69.5q0 -3 0.5 -8.5
t0.5 -8.5z" />
    <glyph glyph-name="Omacron" unicode="&#x14c;" horiz-adv-x="579" 
d="M144 123v434q0 63 42.5 97t150.5 34q179 0 193 -111q1 -7 1 -20v-434q1 -63 -42 -97t-151 -34q-179 0 -193 109q-1 7 -1 22zM515 123v434q0 12 -1 18q-12 98 -177 98q-98 0 -137.5 -30.5t-39.5 -85.5v-434q0 -6 2 -18q12 -98 175 -98q180 0 178 116zM200 807h268
q7 0 7 -5l1 -4q0 -6 -7 -6h-268q-6 0 -6 6l-1 3q0 6 6 6z" />
    <glyph glyph-name="omacron" unicode="&#x14d;" horiz-adv-x="498" 
d="M120 104l1 282q0 54 36.5 83t128.5 29q153 0 163 -94q1 -2 2 -18l-1 -282q0 -54 -36.5 -83t-128.5 -29q-152 0 -164 94q0 2 -0.5 8t-0.5 10zM434 104l1 282q-1 9 -1 15q-10 82 -148 82q-149 0 -149 -97l-1 -282q0 -5 0.5 -9.5t0.5 -5.5q10 -82 148 -82q149 0 149 97z
M150 634h268q5 0 7 -5v-4q1 -6 -6 -6h-268q-5 0 -7 6v3q-2 6 6 6z" />
    <glyph glyph-name="Obreve" unicode="&#x14e;" horiz-adv-x="579" 
d="M149 123v434q-1 63 41.5 97t150.5 34q179 0 193 -111q2 -14 2 -20v-434q0 -63 -43 -97t-151 -34q-180 0 -192 109q-1 7 -1 22zM520 123v434q0 6 -2 18q-12 98 -177 98q-178 0 -176 -116v-434q0 -12 1 -18q12 -98 175 -98q98 0 138.5 30.5t40.5 85.5zM260 872l1 -26
q0 -6 0.5 -11.5t0.5 -6.5q4 -32 23 -47t64 -15q53 0 68.5 23t14.5 71v12q-1 6 6 6h4q4 0 6 -6v-12q1 -56 -18 -82.5t-81 -26.5q-51 0 -74.5 18.5t-28.5 58.5q0 2 -0.5 7t-0.5 11l-1 26q-2 6 6 6h4q5 0 6 -6z" />
    <glyph glyph-name="obreve" unicode="&#x14f;" horiz-adv-x="498" 
d="M123 104l1 282q0 54 36.5 83t128.5 29q152 0 164 -94q0 -1 0.5 -6.5t0.5 -11.5l-1 -282q0 -54 -36.5 -83t-128.5 -29q-153 0 -163 94q-2 10 -2 18zM437 104l1 282v10l-1 5q-10 82 -148 82q-149 0 -149 -97l-1 -282q0 -5 0.5 -9.5t0.5 -5.5q10 -82 148 -82q149 0 149 97z
M201 682l1 -26q0 -14 1 -18q4 -32 23 -47t64 -15q53 0 68.5 23t14.5 71v12q-1 6 6 6h4q4 0 6 -6v-12q1 -56 -18.5 -82.5t-81.5 -26.5q-51 0 -74 18.5t-28 58.5q-1 6 -1 18l-1 26q-1 6 6 6h4q5 0 6 -6z" />
    <glyph glyph-name="Ohungarumlaut" unicode="&#x150;" horiz-adv-x="579" 
d="M149 123v434q-1 63 41.5 97t150.5 34q179 0 193 -111q2 -14 2 -20v-434q0 -63 -43 -97t-151 -34q-180 0 -192 109q-1 7 -1 22zM520 123v434q0 6 -2 18q-12 98 -177 98q-178 0 -176 -116v-434q0 -12 1 -18q12 -98 175 -98q98 0 138.5 30.5t40.5 85.5zM465 872l-83 -124
q-4 -4 -7 -4h-5q-7 0 -3 6l80 122q2 6 9 6h6q5 0 3 -6zM388 872l-68 -122q-4 -6 -8 -6h-4q-6 0 -3 6l66 122q2 6 8 6h5q6 0 4 -6z" />
    <glyph glyph-name="ohungarumlaut" unicode="&#x151;" horiz-adv-x="498" 
d="M125 104v282q0 54 36.5 83t128.5 29q152 0 164 -94q0 -1 0.5 -6.5t0.5 -11.5v-282q0 -54 -37 -83t-129 -29q-151 0 -163 94q-1 5 -1 18zM439 104v282q0 5 -1 10v5q-10 82 -148 82q-149 0 -149 -97v-282q0 -12 1 -15q9 -82 148 -82q82 0 115 25.5t34 71.5zM410 702
l-83 -124q-4 -4 -8 -4h-4q-5 0 -3 6l80 122q4 6 10 6h6q6 0 2 -6zM334 702l-69 -122q-3 -6 -8 -6h-4q-3 0 -3 6l66 122q4 6 9 6h6q7 0 3 -6z" />
    <glyph glyph-name="OE" unicode="&#x152;" horiz-adv-x="893" 
d="M137 123v434q0 63 42.5 97t150.5 34q137 0 177 -66v52q1 6 7 6h341q5 0 5 -6l1 -3q0 -6 -6 -6h-331v-98v-3v-4v-3l-1 -35l1 -154h311q6 0 7 -5v-4q2 -6 -6 -6h-312l-1 -238v-100h344q6 0 6 -6l1 -3q0 -6 -6 -6h-355q-5 0 -5 6v47q-39 -61 -178 -61q-178 0 -192 109
q-1 7 -1 22zM507 121v195l1 252l-1 7q-12 98 -177 98q-98 0 -137.5 -30.5t-39.5 -85.5v-434q0 -3 0.5 -9t0.5 -9q12 -98 175 -98q99 0 138.5 30t39.5 84z" />
    <glyph glyph-name="oe" unicode="&#x153;" horiz-adv-x="800" 
d="M591 -8q-133 0 -158 71q-23 -71 -156 -71q-152 0 -164 94q-1 6 -1 18v282q0 54 36.5 83t128.5 29q134 0 156 -73q23 73 158 73q152 0 164 -94q1 -6 1 -18v-126q0 -6 -6 -6h-308v-150q0 -10 1 -15q10 -82 148 -82q82 0 115 25.5t34 71.5v29q0 6 7 6h4q5 0 5 -6v-29
q-1 -54 -37 -83t-128 -29zM426 104v282q1 5 -1 15q-9 82 -148 82q-149 0 -149 -97v-282q-1 -5 1 -15q10 -82 148 -82q149 0 149 97zM740 269v117q1 5 -1 15q-9 82 -148 82q-149 0 -149 -97v-117h298z" />
    <glyph glyph-name="Racute" unicode="&#x154;" horiz-adv-x="582" 
d="M354 292h-177v-286q0 -6 -6 -6h-4q-6 0 -6 6v668q0 6 5 6h188q179 0 193 -114q2 -14 1 -20l1 -126q0 -53 -31 -84.5t-107 -40.5l151 -289q2 -6 -5 -6h-4q-8 0 -10 6l-149 287q-12 -1 -40 -1zM354 665h-177v-358h177q98 0 138.5 29.5t40.5 83.5l-1 126q1 6 -1 18
q-12 101 -177 101zM413 872l-83 -125q-3 -3 -6 -3h-7q-5 0 -3 5l83 125q4 4 7 4h7q8 0 2 -6z" />
    <glyph glyph-name="racute" unicode="&#x155;" horiz-adv-x="322" 
d="M334 497q6 0 7 -6v-6q1 -3 -1 -3.5t-6 -0.5q-49 0 -99.5 -25t-79.5 -50v-400q2 -6 -6 -6h-4q-6 0 -6 6l1 478q0 6 5 6h2q5 0 7 -6l1 -62q93 75 179 75zM305 702l-84 -125q-3 -3 -6 -3h-7q-5 0 -2 5l83 125q2 4 6 4h7q7 0 3 -6z" />
    <glyph glyph-name="Rcommaaccent" unicode="&#x156;" horiz-adv-x="582" 
d="M330 292h-177v-286q0 -6 -5 -6h-4q-7 0 -7 6v668q0 6 5 6h188q179 0 193 -114q2 -14 1 -20l1 -126q0 -53 -31 -84.5t-107 -40.5l151 -289q2 -6 -4 -6h-4q-9 0 -11 6l-148 287q-13 -1 -41 -1zM330 665h-177v-358h177q98 0 138.5 29.5t40.5 83.5l-1 126q1 6 -1 18
q-12 101 -177 101zM315 -81v25q0 6 7 6h4q5 0 5 -6v-25q1 -45 -33 -105q-2 -6 -7 -3l-5 2q-4 2 -2 8q12 23 17.5 34.5t9.5 28t4 35.5z" />
    <glyph glyph-name="rcommaaccent" unicode="&#x157;" horiz-adv-x="322" 
d="M309 497q7 0 7 -6l1 -6q0 -4 -8 -4q-48 0 -98 -24.5t-81 -50.5l1 -400q0 -6 -7 -6h-4q-6 0 -5 6v478q0 6 5 6h2q6 0 7 -6l1 -62q93 75 179 75zM114 -81v25q0 6 6 6h4q6 0 6 -6v-25q1 -41 -33 -105q-3 -5 -8 -3l-4 2q-4 2 -2 8q12 23 17.5 34.5t9.5 28t4 35.5z" />
    <glyph glyph-name="Rcaron" unicode="&#x158;" horiz-adv-x="582" 
d="M354 292h-177v-286q0 -6 -6 -6h-4q-6 0 -6 6v668q0 6 5 6h188q179 0 193 -114q2 -14 1 -20l1 -126q0 -53 -31 -84.5t-107 -40.5l151 -289q2 -6 -5 -6h-4q-8 0 -10 6l-149 287q-12 -1 -40 -1zM354 665h-177v-358h177q98 0 138.5 29.5t40.5 83.5l-1 126q1 6 -1 18
q-12 101 -177 101zM249 872l76 -114l77 114q5 6 9 6h6q8 0 2 -6l-81 -123q-2 -5 -8 -5h-6q-4 0 -10 6l-81 122q-4 6 4 6h5q4 0 7 -6z" />
    <glyph glyph-name="rcaron" unicode="&#x159;" horiz-adv-x="322" 
d="M334 497q6 0 7 -6v-6q1 -3 -1 -3.5t-6 -0.5q-49 0 -99.5 -25t-79.5 -50v-400q2 -6 -6 -6h-4q-6 0 -6 6l1 478q0 6 5 6h2q5 0 7 -6l1 -62q93 75 179 75zM138 702l76 -114l77 114q4 6 8 6h6q7 0 3 -6l-81 -123q-3 -5 -9 -5h-6q-5 0 -9 6l-81 122q-6 6 3 6h5q4 0 8 -6z" />
    <glyph glyph-name="Sacute" unicode="&#x15a;" horiz-adv-x="559" 
d="M507 504v53q0 6 -2 20q-6 46 -44.5 71t-126.5 25q-98 0 -135.5 -30.5t-36.5 -85.5v-51q-1 -6 1 -14q6 -59 73 -85l199 -77q83 -32 92 -102q0 -2 0.5 -6.5t0.5 -7.5v-91q0 -63 -43 -97t-151 -34q-180 0 -192 109q-1 7 -1 22v47q0 6 5 6h4q7 0 7 -6v-47q0 -13 1 -19
q12 -97 175 -97q98 0 138.5 30.5t40.5 85.5v91v6.5t-1 6.5q-7 60 -82 89l-199 77q-75 29 -83 98q-2 10 -1 15v51q-1 63 39.5 97t148.5 34q173 0 187 -109q2 -14 2 -22v-53q1 -6 -6 -6h-4q-6 0 -6 6zM419 872l-84 -125q-3 -3 -5 -3h-7q-6 0 -3 5l83 125q2 4 6 4h7q7 0 3 -6z
" />
    <glyph glyph-name="sacute" unicode="&#x15b;" horiz-adv-x="460" 
d="M418 364v29q0 14 -1 20q-4 30 -38.5 50.5t-103.5 20.5q-73 0 -108 -22.5t-34 -60.5v-42q0 -5 1 -9v-5q6 -45 67 -62l162 -46q72 -20 78 -71l1 -15v-61q1 -44 -41 -71t-126 -27q-75 0 -116 24t-46 63q-1 5 -1 15v27q-1 3 1 4t5 1h5q5 0 5 -5v-26v-13q10 -75 148 -75
q75 0 112.5 23t37.5 61v59q0 7 -1 14q-5 40 -69 58l-163 47q-27 8 -50 28t-26 47v14v43q2 97 158 97q73 0 113 -23.5t45 -60.5q1 -8 1 -20v-30q0 -5 -6 -5h-5q-5 0 -5 5zM352 702l-83 -125q-3 -3 -6 -3h-7q-5 0 -3 5l83 125q4 4 7 4h7q8 0 2 -6z" />
    <glyph glyph-name="Scircumflex" unicode="&#x15c;" horiz-adv-x="559" 
d="M507 504v53q0 6 -2 20q-6 46 -44.5 71t-126.5 25q-98 0 -135.5 -30.5t-36.5 -85.5v-51q-1 -6 1 -14q6 -59 73 -85l199 -77q83 -32 92 -102q0 -2 0.5 -6.5t0.5 -7.5v-91q0 -63 -43 -97t-151 -34q-180 0 -192 109q-1 7 -1 22v47q0 6 5 6h4q7 0 7 -6v-47q0 -13 1 -19
q12 -97 175 -97q98 0 138.5 30.5t40.5 85.5v91v6.5t-1 6.5q-7 60 -82 89l-199 77q-75 29 -83 98q-2 10 -1 15v51q-1 63 39.5 97t148.5 34q173 0 187 -109q2 -14 2 -22v-53q1 -6 -6 -6h-4q-6 0 -6 6zM325 864l-77 -114q-5 -6 -7 -6h-6q-8 0 -4 6l80 122q2 6 9 6h7q4 0 9 -5
l81 -123q4 -6 -2 -6h-4q-6 0 -10 6z" />
    <glyph glyph-name="scircumflex" unicode="&#x15d;" horiz-adv-x="460" 
d="M418 364v29q0 14 -1 20q-4 30 -38.5 50.5t-103.5 20.5q-73 0 -108 -22.5t-34 -60.5v-42q0 -5 1 -9v-5q6 -45 67 -62l162 -46q72 -20 78 -71l1 -15v-61q1 -44 -41 -71t-126 -27q-75 0 -116 24t-46 63q-1 5 -1 15v27q-1 3 1 4t5 1h5q5 0 5 -5v-26v-13q10 -75 148 -75
q75 0 112.5 23t37.5 61v59q0 7 -1 14q-5 40 -69 58l-163 47q-27 8 -50 28t-26 47v14v43q2 97 158 97q73 0 113 -23.5t45 -60.5q1 -8 1 -20v-30q0 -5 -6 -5h-5q-5 0 -5 5zM262 694l-77 -114q-3 -6 -7 -6h-6q-6 0 -4 6l80 122q4 6 10 6h7q5 0 8 -5l81 -123q6 -6 -2 -6h-4
q-5 0 -10 6z" />
    <glyph glyph-name="Scedilla" unicode="&#x15e;" horiz-adv-x="559" 
d="M297 -56h42q27 0 50.5 -16t27.5 -49q6 -49 -19 -69.5t-59 -20.5h-121q-6 0 -6 6l-1 4q0 6 7 6h121q26 0 46 16t15 56q-3 27 -21.5 39t-39.5 12h-53q-10 0 -7 8l16 56q-164 4 -178 109v22v47q-1 6 5 6h4q6 0 7 -6v-47q-1 -7 1 -19q12 -97 175 -97q98 0 138.5 30.5
t40.5 85.5v91q-1 4 -1 13q-7 60 -82 89l-199 77q-75 29 -84 98v15l-1 51q0 63 40.5 97t148.5 34q173 0 187 -109q2 -15 1 -22l1 -53q0 -6 -6 -6h-4q-6 0 -6 6l-1 53q1 7 -1 20q-6 46 -44.5 71t-126.5 25q-98 0 -135.5 -30.5t-37.5 -85.5l1 -51v-14q7 -59 74 -85l199 -77
q83 -32 92 -102q0 -2 0.5 -6.5t0.5 -7.5v-91q0 -63 -43 -97t-151 -34z" />
    <glyph glyph-name="scedilla" unicode="&#x15f;" horiz-adv-x="460" 
d="M242 -56h42q27 0 50.5 -16t27.5 -49q6 -49 -19 -69.5t-59 -20.5h-121q-5 0 -6 6v4q-1 6 6 6h121q26 0 46 16t15 56q-3 27 -21.5 39t-39.5 12h-53q-9 0 -7 8l16 56q-71 1 -109.5 25t-43.5 62v15l-1 27q0 5 7 5h5q5 0 4 -5v-26q0 -8 1 -13q10 -75 147 -75q75 0 113 23
t38 61v59q0 7 -1 14q-5 40 -69 58l-163 47q-27 8 -50 28t-26 47v5q-1 5 -1 9l1 43q2 97 158 97q73 0 113 -23.5t44 -60.5q2 -16 2 -20l-1 -30q2 -5 -5 -5h-5q-4 0 -6 5l1 29q0 8 -2 20q-3 30 -37.5 50.5t-103.5 20.5q-73 0 -108 -22.5t-34 -60.5v-42v-9l1 -5
q3 -22 21.5 -38.5t44.5 -23.5l163 -46q71 -20 78 -71l1 -15v-61q1 -43 -39.5 -70t-122.5 -28z" />
    <glyph glyph-name="Scaron" unicode="&#x160;" horiz-adv-x="559" 
d="M507 504v53q0 6 -2 20q-6 46 -44.5 71t-126.5 25q-98 0 -135.5 -30.5t-36.5 -85.5v-51q-1 -6 1 -14q6 -59 73 -85l199 -77q83 -32 92 -102q0 -2 0.5 -6.5t0.5 -7.5v-91q0 -63 -43 -97t-151 -34q-180 0 -192 109q-1 7 -1 22v47q0 6 5 6h4q7 0 7 -6v-47q0 -13 1 -19
q12 -97 175 -97q98 0 138.5 30.5t40.5 85.5v91v6.5t-1 6.5q-7 60 -82 89l-199 77q-75 29 -83 98q-2 10 -1 15v51q-1 63 39.5 97t148.5 34q173 0 187 -109q2 -14 2 -22v-53q1 -6 -6 -6h-4q-6 0 -6 6zM246 872l76 -114l77 114q4 6 8 6h6q7 0 3 -6l-81 -123q-3 -5 -8 -5h-6
q-6 0 -10 6l-81 122q-6 6 3 6h5q4 0 8 -6z" />
    <glyph glyph-name="scaron" unicode="&#x161;" horiz-adv-x="460" 
d="M418 364v29q0 14 -1 20q-4 30 -38.5 50.5t-103.5 20.5q-73 0 -108 -22.5t-34 -60.5v-42q0 -5 1 -9v-5q6 -45 67 -62l162 -46q72 -20 78 -71l1 -15v-61q1 -44 -41 -71t-126 -27q-75 0 -116 24t-46 63q-1 5 -1 15v27q-1 3 1 4t5 1h5q5 0 5 -5v-26v-13q10 -75 148 -75
q75 0 112.5 23t37.5 61v59q0 7 -1 14q-5 40 -69 58l-163 47q-27 8 -50 28t-26 47v14v43q2 97 158 97q73 0 113 -23.5t45 -60.5q1 -8 1 -20v-30q0 -5 -6 -5h-5q-5 0 -5 5zM181 702l76 -114l77 114q5 6 9 6h6q8 0 2 -6l-81 -123q-2 -5 -8 -5h-6q-4 0 -10 6l-81 122q-4 6 4 6h5
q4 0 7 -6z" />
    <glyph glyph-name="Tcommaaccent" unicode="&#x162;" horiz-adv-x="474" 
d="M58 680h413q5 0 7 -6v-3q2 -6 -6 -6h-199v-659q0 -6 -5 -6h-4q-7 0 -7 6v659h-198q-5 0 -7 6v3q-2 6 6 6zM256 -81v25q0 6 7 6h4q5 0 5 -6v-25q1 -45 -33 -105q-2 -6 -7 -3l-5 2q-4 2 -2 8q12 23 17.5 34.5t9.5 28t4 35.5z" />
    <glyph glyph-name="tcommaaccent" unicode="&#x163;" horiz-adv-x="333" 
d="M151 474v-362q1 -9 1 -16q10 -81 146 -81h13q6 0 6 -6v-3q0 -6 -6 -6h-13q-151 0 -161 93q-1 3 -1.5 9.5t-0.5 9.5v362h-70q-5 0 -6 6v1q0 6 6 6l69 2h1v114q0 6 6 6h4q6 0 6 -6v-114h131q4 0 6 -6v-4q1 -3 -1 -4t-5 -1h-131zM139 -81v25q0 6 6 6h4q6 0 6 -6v-25
q1 -41 -33 -105q-3 -5 -8 -3l-4 2q-4 2 -2 8q27 54 30 79q1 9 1 19z" />
    <glyph glyph-name="Tcaron" unicode="&#x164;" horiz-adv-x="474" 
d="M82 680h413q5 0 7 -6v-3q2 -6 -6 -6h-199v-659q0 -6 -6 -6h-4q-6 0 -6 6v659h-198q-5 0 -7 6v3q-2 6 6 6zM209 872l76 -114l77 114q5 6 9 6h6q8 0 2 -6l-81 -123q-2 -5 -8 -5h-6q-4 0 -10 6l-81 122q-4 6 4 6h5q4 0 7 -6z" />
    <glyph glyph-name="tcaron" unicode="&#x165;" horiz-adv-x="333" 
d="M168 474l1 -362q0 -12 1 -16q9 -81 146 -81h13q5 0 5 -6l1 -3q-1 -6 -7 -6h-13q-149 0 -161 93q-1 6 -1 19l-1 362h-70q-4 0 -6 6v1q0 6 7 6l68 2h1v114q0 6 7 6h4q5 0 5 -6v-114h131q6 0 6 -6l1 -4q0 -5 -7 -5h-131zM261 668v25q0 6 7 6h4q5 0 5 -6v-25q1 -45 -33 -105
q-2 -6 -7 -3l-5 2q-4 2 -2 8q12 23 17.5 34.5t9.5 28t4 35.5z" />
    <glyph glyph-name="Tbar" unicode="&#x166;" horiz-adv-x="474" 
d="M70 680h413q6 0 6 -6l1 -3q0 -6 -6 -6h-199v-197h176q5 0 7 -6v-3q0 -6 -5 -6h-178v-447q0 -6 -6 -6h-4q-6 0 -6 6v447h-175q-7 0 -7 6v3q-1 6 5 6h177v197h-198q-7 0 -7 6l-1 3q0 6 7 6z" />
    <glyph glyph-name="tbar" unicode="&#x167;" horiz-adv-x="333" 
d="M163 474l-1 -136h131q7 0 7 -6v-3q2 -6 -5 -6h-133l1 -211q0 -5 0.5 -10t0.5 -6q10 -81 146 -81h13q5 0 6 -6v-3q0 -6 -6 -6h-13q-150 0 -162 93q0 3 -0.5 8.5t-0.5 10.5l-1 211h-68q-6 0 -7 6v3q0 6 5 6h70l1 136h-70q-6 0 -6 6v1q-1 6 6 6l69 2h1v114q-1 6 6 6h4
q5 0 6 -6v-114h131q4 0 6 -6v-4q1 -3 -1 -4t-5 -1h-131z" />
    <glyph glyph-name="Utilde" unicode="&#x168;" horiz-adv-x="591" 
d="M169 674v-551q0 -12 1 -18q12 -98 176 -98q98 0 138 30.5t40 85.5v551q0 6 5 6h4q7 0 7 -6v-551q0 -63 -43 -97t-151 -34q-179 0 -192 111q0 3 -0.5 9.5t-0.5 10.5v551q0 6 5 6h4q7 0 7 -6zM279 848q-23 0 -31.5 -14.5t-7.5 -53.5v-10q2 -6 -6 -6h-4q-4 0 -6 6v10
q0 47 12.5 65t40.5 18q25 0 49 -24l43 -43q17 -17 34 -17q23 0 31 13.5t8 54.5v10q-2 6 6 6h4q4 0 6 -6v-10q0 -47 -12.5 -65t-40.5 -18q-23 0 -49 24l-43 42q-20 18 -34 18z" />
    <glyph glyph-name="utilde" unicode="&#x169;" 
d="M440 6l-2 49q-71 -63 -174 -63q-61 0 -94.5 25.5t-38.5 69.5q-1 4 -1 17v380q0 6 6 6h4q6 0 6 -6v-380v-13q5 -39 34.5 -61.5t84.5 -22.5q97 0 173 66v411q-2 6 6 6h4q6 0 6 -6v-478q0 -6 -5 -6h-3q-6 0 -6 6zM222 675q-23 0 -31 -14.5t-7 -53.5v-10q2 -6 -6 -6h-4
q-4 0 -6 6v10q0 47 12.5 65t40.5 18q25 0 49 -24l43 -43q17 -17 34 -17q23 0 30.5 13.5t8.5 54.5l-1 10q0 6 7 6h4q5 0 5 -6l1 -10q0 -47 -12.5 -65t-40.5 -18q-23 0 -49 24l-43 42q-20 18 -35 18z" />
    <glyph glyph-name="Umacron" unicode="&#x16a;" horiz-adv-x="591" 
d="M166 674l-1 -551q0 -6 2 -18q12 -98 176 -98q179 0 177 116l1 551q-1 6 5 6h4q6 0 7 -6l-1 -551q1 -63 -42 -97t-151 -34q-179 0 -192 111q-2 12 -2 20l1 551q-2 6 5 6h4q5 0 7 -6zM203 807h268q7 0 7 -5l1 -4q0 -6 -7 -6h-268q-6 0 -6 6l-1 3q0 6 6 6z" />
    <glyph glyph-name="umacron" unicode="&#x16b;" 
d="M436 6l-2 49q-71 -63 -173 -63q-61 0 -95 25.5t-39 69.5q0 1 -0.5 6t-0.5 11l1 380q0 6 6 6h4q6 0 6 -6l-1 -380v-9l1 -4q5 -39 34 -61.5t84 -22.5q95 0 174 66v411q-1 6 6 6h4q6 0 6 -6l-1 -478q2 -6 -4 -6h-3q-5 0 -7 6zM144 634h268q5 0 7 -5v-4q1 -6 -6 -6h-268
q-5 0 -7 6v3q-2 6 6 6z" />
    <glyph glyph-name="Ubreve" unicode="&#x16c;" horiz-adv-x="591" 
d="M170 674v-551q0 -12 1 -18q12 -98 176 -98q98 0 138 30.5t40 85.5v551q0 6 5 6h4q7 0 7 -6v-551q0 -63 -43 -97t-151 -34q-179 0 -192 111q0 3 -0.5 9.5t-0.5 10.5v551q0 6 5 6h4q7 0 7 -6zM256 872l1 -26q0 -6 0.5 -11.5t0.5 -6.5q4 -32 23 -47t64 -15q53 0 68.5 23
t14.5 71v12q-1 6 6 6h4q4 0 6 -6v-12q1 -56 -18 -82.5t-81 -26.5q-51 0 -74.5 18.5t-28.5 58.5q0 2 -0.5 7t-0.5 11l-1 26q-2 6 6 6h4q5 0 6 -6z" />
    <glyph glyph-name="ubreve" unicode="&#x16d;" 
d="M440 6l-3 49q-71 -63 -173 -63q-61 0 -94.5 25.5t-38.5 69.5q-1 2 -2 17l1 380q0 6 6 6h4q6 0 6 -6l-1 -380q0 -5 1 -9v-4q5 -39 34 -61.5t84 -22.5q98 0 174 66v411q-2 6 6 6h4q6 0 6 -6v-478q0 -6 -5 -6h-3q-6 0 -6 6zM200 682l1 -26q0 -14 1 -18q4 -32 23 -47t64 -15
q53 0 68.5 23t14.5 71v12q-1 6 6 6h4q4 0 6 -6v-12q1 -56 -18.5 -82.5t-81.5 -26.5q-51 0 -74 18.5t-28 58.5q-1 6 -1 18l-1 26q-2 6 6 6h4q5 0 6 -6z" />
    <glyph glyph-name="Uring" unicode="&#x16e;" horiz-adv-x="591" 
d="M170 674v-551q0 -12 1 -18q12 -98 176 -98q98 0 138 30.5t40 85.5v551q0 6 5 6h4q7 0 7 -6v-551q0 -63 -43 -97t-151 -34q-179 0 -192 111q0 3 -0.5 9.5t-0.5 10.5v551q0 6 5 6h4q7 0 7 -6zM430 798v-11q0 -59 -86 -59q-38 0 -59.5 16.5t-23.5 40.5q-2 8 -2 21v12
q-2 61 86 61q38 0 59 -17t24 -43q2 -12 2 -21zM414 787v11q0 6 -0.5 12t-0.5 8q-7 46 -68 46q-72 0 -70 -46v-12q0 -5 0.5 -12t0.5 -8q6 -43 68 -43q70 0 70 44z" />
    <glyph glyph-name="uring" unicode="&#x16f;" 
d="M441 6l-2 49q-71 -63 -173 -63q-61 0 -95 25.5t-39 69.5q0 1 -0.5 6t-0.5 11v380q1 6 7 6h4q6 0 5 -6v-380q0 -11 1 -13q5 -39 34 -61.5t84 -22.5q95 0 174 66l-1 411q0 6 7 6h4q6 0 5 -6v-478q0 -6 -4 -6h-3q-7 0 -7 6zM370 631l1 -11q-2 -59 -87 -59q-38 0 -59 16
t-24 41q-2 8 -2 21v12q-2 61 86 61q38 0 59.5 -17t24.5 -43q0 -3 0.5 -9.5t0.5 -11.5zM355 620l-1 11q0 14 -1 20q-6 46 -68 46q-70 0 -70 -46v-12q0 -14 2 -20q4 -43 67 -43q69 0 71 44z" />
    <glyph glyph-name="Uhungarumlaut" unicode="&#x170;" horiz-adv-x="591" 
d="M170 674v-551q0 -12 1 -18q12 -98 176 -98q98 0 138 30.5t40 85.5v551q0 6 5 6h4q7 0 7 -6v-551q0 -63 -43 -97t-151 -34q-179 0 -192 111q0 3 -0.5 9.5t-0.5 10.5v551q0 6 5 6h4q7 0 7 -6zM467 872l-83 -124q-4 -4 -7 -4h-5q-7 0 -3 6l80 122q2 6 9 6h6q5 0 3 -6z
M390 872l-68 -122q-4 -6 -8 -6h-4q-6 0 -3 6l66 122q2 6 8 6h5q6 0 4 -6z" />
    <glyph glyph-name="uhungarumlaut" unicode="&#x171;" 
d="M441 6l-2 49q-71 -63 -174 -63q-61 0 -94.5 25.5t-38.5 69.5q-1 4 -1 17v380q1 6 6 6h4q6 0 6 -6v-380v-13q5 -39 34.5 -61.5t84.5 -22.5q95 0 174 66l-1 411q0 6 6 6h4q6 0 6 -6v-478q0 -6 -5 -6h-3q-6 0 -6 6zM401 702l-83 -124q-4 -4 -8 -4h-4q-5 0 -3 6l80 122
q4 6 10 6h6q6 0 2 -6zM325 702l-69 -122q-3 -6 -8 -6h-4q-3 0 -3 6l66 122q4 6 9 6h6q7 0 3 -6z" />
    <glyph glyph-name="Uogonek" unicode="&#x172;" horiz-adv-x="591" 
d="M150 674v-551q-1 -6 1 -18q12 -98 176 -98q98 0 138 30.5t40 85.5v551q-1 6 5 6h4q6 0 7 -6v-551q0 -58 -33 -88q-3 -3 -19 -17t-25 -23.5t-17 -28t-6 -37.5q8 -53 76 -53h38q5 0 7 -6v-3q2 -6 -5 -6h-38q-86 0 -93 67q-5 41 23 76q-45 -12 -102 -12q-179 0 -192 111
q-2 12 -1 20v551q-2 6 5 6h4q5 0 7 -6z" />
    <glyph glyph-name="uogonek" unicode="&#x173;" 
d="M451 -139h-18q-81 0 -88 61q-4 32 18.5 55.5t55.5 34.5l-2 43q-71 -63 -173 -63q-61 0 -95 25.5t-39 69.5q0 3 -0.5 8.5t-0.5 8.5l1 380q0 6 6 6h4q6 0 6 -6l-1 -380q0 -9 1 -13q5 -39 34 -61.5t84 -22.5q98 0 174 66v411q0 6 6 6h4q6 0 6 -6l-1 -478q2 -6 -4 -6h-1
q-37 -11 -53.5 -34t-13.5 -45q5 -45 70 -45h18q7 0 7 -6v-3q2 -6 -5 -6z" />
    <glyph glyph-name="Wcircumflex" unicode="&#x174;" horiz-adv-x="770" 
d="M447 674l149 -582q2 -9 5.5 -24.5t6 -26t3.5 -11.5q0 7 15 62l149 582q1 6 7 6h5q6 0 5 -6l-170 -668q-2 -6 -8 -6h-5q-7 0 -8 6l-150 589l-13 53q-9 -37 -13 -53l-150 -589q-1 -6 -8 -6h-5q-6 0 -8 6l-170 668q-2 6 5 6h4q4 0 7 -6l149 -582l15 -64q12 47 16 64l149 582
q1 6 7 6h4q4 0 7 -6zM427 864l-77 -114q-3 -6 -7 -6h-6q-6 0 -4 6l80 122q4 6 10 6h7q5 0 8 -5l81 -123q6 -6 -2 -6h-4q-5 0 -10 6z" />
    <glyph glyph-name="wcircumflex" unicode="&#x175;" horiz-adv-x="604" 
d="M611 490h6q4 0 4 -6l-133 -478q-2 -6 -7 -6h-4q-4 0 -7 6l-116 424q-9 31 -10 44q-10 -37 -12 -45l-119 -423q-1 -6 -7 -6h-4q-4 0 -7 6l-128 478q-2 6 4 6h6q4 0 7 -6l113 -421l9 -36q4 24 8 36l117 421q1 6 7 6h12q4 0 7 -6l113 -421l9 -34q1 4 3.5 16.5t4.5 17.5
l117 421q2 6 7 6zM334 694l-77 -114q-5 -6 -8 -6h-6q-7 0 -3 6l80 122q2 6 9 6h7q4 0 9 -5l81 -123q4 -6 -3 -6h-4q-5 0 -9 6z" />
    <glyph glyph-name="Ycircumflex" unicode="&#x176;" horiz-adv-x="493" 
d="M96 674l191 -344q6 -10 13 -25q7 16 12 25l190 344q2 6 8 6h6q8 0 4 -6l-212 -382v-286q0 -6 -6 -6h-4q-6 0 -6 6v285l-213 383q-4 6 4 6h5q4 0 8 -6zM292 864l-77 -114q-3 -6 -7 -6h-6q-6 0 -4 6l80 122q4 6 10 6h7q5 0 8 -5l81 -123q6 -6 -2 -6h-4q-5 0 -10 6z" />
    <glyph glyph-name="ycircumflex" unicode="&#x177;" horiz-adv-x="396" 
d="M71 484l145 -421l13 -37q7 28 10 37l145 421q2 6 7 6h5q6 0 5 -6l-236 -689q-1 -6 -7 -6h-6q-6 0 -4 6l72 208l-165 481q-4 6 3 6h6q4 0 7 -6zM218 694l-77 -114q-5 -6 -7 -6h-6q-8 0 -4 6l80 122q2 6 9 6h7q4 0 9 -5l81 -123q4 -6 -2 -6h-4q-6 0 -10 6z" />
    <glyph glyph-name="Ydieresis" unicode="&#x178;" horiz-adv-x="493" 
d="M95 674l191 -344q6 -10 13 -25q7 16 12 25l190 344q1 6 8 6h6q8 0 4 -6l-212 -382v-286q0 -6 -5 -6h-4q-7 0 -7 6v285l-213 383q-4 6 4 6h5q3 0 8 -6zM256 860v-100q0 -6 -6 -6h-4q-4 0 -6 6v100q2 6 6 6h4q6 0 6 -6zM335 860v-100q0 -6 -6 -6h-4q-5 0 -6 6v100q1 6 6 6
h4q6 0 6 -6z" />
    <glyph glyph-name="Zacute" unicode="&#x179;" horiz-adv-x="508" 
d="M143 680h343q4 0 6 -6v-3q0 -4 -1 -6l-351 -650h361q5 0 5 -6l1 -3q0 -6 -6 -6h-376q-6 0 -6 5v2q-1 2 1 5l1 4l350 649h-328q-5 0 -6 6v3q-1 6 6 6zM389 872l-83 -125q-3 -3 -6 -3h-7q-5 0 -3 5l83 125q4 4 7 4h7q8 0 2 -6z" />
    <glyph glyph-name="zacute" unicode="&#x17a;" horiz-adv-x="460" 
d="M119 490h297q5 0 5 -5l1 -3l-4 -9l-296 -458h304q4 0 6 -6v-3q2 -6 -6 -6h-318q-4 0 -6 6v3q0 3 4 9l295 457h-282q-6 0 -6 6v3q-1 6 6 6zM345 702l-84 -125q-3 -3 -6 -3h-7q-5 0 -2 5l83 125q2 4 6 4h7q7 0 3 -6z" />
    <glyph glyph-name="Zdotaccent" unicode="&#x17b;" horiz-adv-x="508" 
d="M141 680h343q4 0 6 -6v-3q0 -1 -0.5 -3t-0.5 -3l-352 -650h361q6 0 6 -6l1 -3q0 -6 -6 -6h-376q-6 0 -6 5l-1 2q0 2 1.5 5t1.5 4l350 649h-328q-6 0 -6 6v3q-1 6 6 6zM309 838l1 -75q0 -6 -6 -6h-4q-7 0 -6 6l-1 75q0 6 6 6h5q5 0 5 -6z" />
    <glyph glyph-name="zdotaccent" unicode="&#x17c;" horiz-adv-x="460" 
d="M117 490h297q4 0 6 -5v-3l-4 -9l-296 -458h304q6 0 6 -6l1 -3q0 -6 -7 -6h-318q-5 0 -5 6l-1 3q0 3 4 9l295 457h-282q-5 0 -6 6v3q-1 6 6 6zM256 674l1 -75q0 -6 -6 -6h-4q-7 0 -6 6l-1 75q0 6 6 6h5q5 0 5 -6z" />
    <glyph glyph-name="Zcaron" unicode="&#x17d;" horiz-adv-x="508" 
d="M143 680h343q4 0 6 -6v-3q0 -4 -1 -6l-351 -650h361q5 0 5 -6l1 -3q0 -6 -6 -6h-376q-6 0 -6 5v2q-1 2 1 5l1 4l350 649h-328q-5 0 -6 6v3q-1 6 6 6zM227 872l76 -114l77 114q5 6 9 6h6q8 0 2 -6l-81 -123q-2 -5 -8 -5h-6q-4 0 -10 6l-81 122q-4 6 4 6h5q4 0 7 -6z" />
    <glyph glyph-name="zcaron" unicode="&#x17e;" horiz-adv-x="460" 
d="M119 490h297q5 0 5 -5l1 -3l-4 -9l-296 -458h304q4 0 6 -6v-3q2 -6 -6 -6h-318q-4 0 -6 6v3q0 3 4 9l295 457h-282q-6 0 -6 6v3q-1 6 6 6zM178 702l76 -114l77 114q4 6 8 6h6q7 0 3 -6l-81 -123q-3 -5 -9 -5h-6q-5 0 -9 6l-81 122q-6 6 3 6h5q4 0 8 -6z" />
    <glyph glyph-name="longs" unicode="&#x17f;" horiz-adv-x="298" 
d="M164 591v-796q0 -6 -6 -6h-4q-6 0 -6 6l1 679h-70q-7 0 -7 6v1q-2 6 6 6l57 2h13v102q0 54 36 83t127 29h3q6 0 6 -6v-3q1 -6 -6 -6h-3q-82 0 -114.5 -25.5t-32.5 -71.5z" />
    <glyph glyph-name="florin" unicode="&#x192;" horiz-adv-x="531" 
d="M502 693h-4q-82 0 -117.5 -25.5t-41.5 -71.5l-25 -196h117q6 0 6 -6l1 -3q0 -6 -6 -6h-120l-60 -491q-7 -53 -47 -82.5t-129 -29.5h-3q-4 0 -4 6l-1 3q0 6 6 6h4q82 0 117 25.5t41 71.5l61 491h-114q-6 0 -6 6l-1 3q0 6 6 6h117l24 196q7 53 46 82.5t130 29.5h3q5 0 5 -6
l1 -3q0 -6 -6 -6z" />
    <glyph glyph-name="Aringacute" unicode="&#x1fa;" horiz-adv-x="503" 
d="M307 680h5q5 0 8 -6l210 -668q2 -6 -3 -6h-5q-6 0 -8 6l-72 226h-266l-71 -226q-3 -6 -6 -6h-4q-8 0 -6 6l210 668q1 6 8 6zM438 247l-106 339l-23 72q-6 -25 -20 -69l-108 -342h257zM387 798v-11q-2 -59 -87 -59q-38 0 -59 16t-24 41q0 1 -0.5 9t-0.5 12l-1 12
q0 60 83 61l60 81q4 4 6 4h7q9 0 3 -6l-60 -80q32 -3 50.5 -19.5t20.5 -39.5q2 -12 2 -21zM371 787v11l-2 20q-6 46 -67 46q-71 0 -71 -46l1 -12q0 -5 0.5 -12t0.5 -8q6 -43 67 -43q69 0 71 44z" />
    <glyph glyph-name="aringacute" unicode="&#x1fb;" 
d="M448 6l-2 49q-79 -63 -180 -63q-60 0 -94 25.5t-39 69.5q0 3 -0.5 8.5t-0.5 8.5l1 282q0 52 33 82t101 30q100 0 180 -64l2 50q0 6 5 6h3q5 0 6 -6l-1 -478q2 -6 -6 -6h-2q-4 0 -6 6zM149 386l-1 -282q0 -3 0.5 -7.5t0.5 -6.5q5 -38 34.5 -60.5t82.5 -22.5q104 0 180 66
l1 343q-77 67 -180 67q-58 0 -88 -27t-30 -70zM384 827l-78 -116q33 -2 51.5 -18.5t21.5 -40.5q2 -12 2 -21v-11q-2 -59 -87 -59q-38 0 -59 16t-24 41q0 2 -0.5 9t-0.5 12l-1 12q0 58 81 61l77 117q4 4 7 4h7q7 0 3 -6zM365 620v11q0 4 -0.5 8t-1 6.5t-0.5 5.5q-6 46 -67 46
q-71 0 -71 -46l1 -12q0 -5 0.5 -12t0.5 -8q6 -43 67 -43q69 0 71 44z" />
    <glyph glyph-name="AEacute" unicode="&#x1fc;" horiz-adv-x="842" 
d="M480 680h338q4 0 6 -6v-3q2 -6 -6 -6h-331v-297h312q5 0 6 -6v-3q1 -6 -6 -6h-312v-338h344q5 0 5 -6l1 -3q0 -6 -6 -6h-349q-12 0 -12 8l1 224h-238l-130 -226q-5 -6 -9 -6h-4q-9 0 -5 6l383 668q2 6 12 6zM439 589l-197 -342h229v400q-10 -20 -32 -58zM599 872
l-83 -125q-3 -3 -6 -3h-7q-5 0 -3 5l83 125q4 4 7 4h7q8 0 2 -6z" />
    <glyph glyph-name="aeacute" unicode="&#x1fd;" horiz-adv-x="791" 
d="M760 386v-126q-2 -6 -6 -6h-308v-143q0 -17 1 -22q9 -82 148 -82q82 0 114.5 25.5t34.5 71.5v29q2 6 6 6h4q8 0 6 -6v-29q-1 -54 -37 -83t-129 -29q-138 0 -160 77q-86 -77 -185 -77q-59 0 -93 25.5t-39 68.5q-2 12 -1 18v42q0 51 29 81t84 30h201v121q0 18 -1 24
q-10 81 -145 81q-82 0 -113.5 -25.5t-32.5 -71.5v-21q-2 -6 -6 -6h-4q-8 0 -6 6v21q1 54 35.5 83t126.5 29q128 0 155 -67q25 67 156 67q152 0 164 -94q1 -6 1 -18zM250 7q90 0 180 79v156h-201q-47 0 -72 -26.5t-25 -69.5v-42q0 -10 1 -15q4 -37 33.5 -59.5t83.5 -22.5z
M446 386l-1 -117h298l1 117q0 10 -1 15q-10 82 -148 82q-149 0 -149 -97zM538 702l-83 -125q-3 -3 -6 -3h-7q-5 0 -3 5l83 125q4 4 7 4h7q8 0 2 -6z" />
    <glyph glyph-name="Oslashacute" unicode="&#x1fe;" horiz-adv-x="579" 
d="M148 123v434q-1 63 42 97t151 34q91 0 138 -28l17 36q2 6 8 6h6q6 0 4 -6l-22 -45q36 -28 41 -74q2 -14 2 -20v-434q0 -63 -43 -97t-151 -34q-90 0 -138 27l-15 -33q-5 -8 -8 -8h-7q-8 0 -3 8l19 42q-35 27 -40 73q-1 7 -1 22zM519 123v434q0 6 -2 18q-3 38 -31 61
l-277 -603q41 -26 131 -26q98 0 138.5 30.5t40.5 85.5zM165 105q5 -39 31 -62l277 603q-44 27 -133 27q-97 0 -136.5 -30.5t-39.5 -85.5v-434q0 -12 1 -18zM435 872l-84 -125q-3 -3 -5 -3h-7q-6 0 -3 5l83 125q2 4 6 4h7q9 0 3 -6z" />
    <glyph glyph-name="oslashacute" unicode="&#x1ff;" horiz-adv-x="498" 
d="M124 104v282q0 54 36.5 83t128.5 29q80 0 122 -26l21 37q4 6 8 6h6q7 0 3 -6l-26 -46q25 -22 30 -59q1 -6 1 -18v-282q0 -54 -36.5 -83t-128.5 -29q-83 0 -124 27l-19 -35q-4 -6 -9 -6h-6q-6 0 -2 6l24 44q-23 20 -28 58q-1 6 -1 18zM438 104v282q1 5 -1 15q-3 28 -23 48
l-240 -417q36 -25 115 -25q149 0 149 97zM141 89q3 -29 20 -47l241 416q-36 25 -113 25q-149 0 -149 -97v-282q-1 -5 1 -15zM371 702l-83 -125q-3 -3 -6 -3h-7q-5 0 -2 5l82 125q4 4 7 4h7q8 0 2 -6z" />
    <glyph glyph-name="Scommaaccent" unicode="&#x218;" horiz-adv-x="559" 
d="M484 504v53q0 6 -2 20q-6 46 -44.5 71t-126.5 25q-98 0 -135 -30.5t-37 -85.5v-51q-1 -6 1 -14q6 -58 73 -85l199 -77q83 -32 92 -102q1 -4 1 -14v-91q0 -63 -43 -97t-151 -34q-180 0 -192 109q-1 7 -1 22v47q0 6 5 6h4q7 0 7 -6v-47q0 -3 0.5 -9.5t0.5 -9.5
q12 -97 175 -97q98 0 138.5 30.5t40.5 85.5v91q-1 2 -1 6.5v6.5q-7 60 -82 89l-199 77q-75 29 -83 98q-2 10 -1 15v51q-1 63 40 97t149 34q94 0 136.5 -28.5t49.5 -80.5q2 -14 2 -22v-53q2 -6 -6 -6h-4q-6 0 -6 6zM315 -81v25q-1 6 6 6h4q5 0 6 -6v-25q0 -43 -33 -105
q-4 -5 -8 -3l-4 2q-4 2 -2 8q27 54 30 79q1 9 1 19z" />
    <glyph glyph-name="scommaaccent" unicode="&#x219;" horiz-adv-x="460" 
d="M394 364v29q0 5 -0.5 11t-0.5 9q-4 30 -38.5 50.5t-103.5 20.5q-73 0 -108 -22.5t-34 -60.5v-42q0 -5 1 -9v-5q6 -45 67 -62l162 -46q72 -20 78 -71l1 -15v-61q1 -44 -41 -71t-126 -27q-75 0 -116 24t-46 63q-1 5 -1 15v27q-1 3 1 4t5 1h5q5 0 5 -5v-26v-13
q10 -75 148 -75q75 0 112.5 23t37.5 61v59q0 7 -1 14q-5 40 -69 58l-163 47q-27 8 -50 28t-26 47l-1 5v9l1 43q2 97 158 97q73 0 113 -23.5t45 -60.5q1 -8 1 -20v-30q0 -5 -6 -5h-5q-5 0 -5 5zM256 -80v25q0 6 6 6h4q6 0 6 -6v-25q1 -41 -33 -105q-3 -5 -8 -3l-4 2
q-4 2 -2 8q12 23 17.5 34.5t9.5 28t4 35.5z" />
    <glyph glyph-name="dotlessj" unicode="&#x237;" horiz-adv-x="207" 
d="M126 484v-583q0 -54 -35.5 -83t-124.5 -29h-3q-6 0 -6 6l-1 3q0 6 6 6h3q145 0 145 97v583q0 6 6 6h4q6 0 6 -6z" />
    <glyph glyph-name="circumflex" unicode="&#x2c6;" horiz-adv-x="340" 
d="M247 694l-77 -114q-5 -6 -7 -6h-6q-8 0 -4 6l80 122q4 6 9 6h7q6 0 9 -5l81 -123q4 -6 -2 -6h-4q-5 0 -10 6z" />
    <glyph glyph-name="caron" unicode="&#x2c7;" horiz-adv-x="340" 
d="M170 702l76 -114l77 114q4 6 8 6h6q9 0 3 -6l-81 -123q-3 -5 -8 -5h-6q-6 0 -10 6l-81 122q-4 6 3 6h5q5 0 8 -6z" />
    <glyph glyph-name="breve" unicode="&#x2d8;" horiz-adv-x="383" 
d="M182 682l2 -26q0 -14 1 -18q4 -32 22.5 -47t63.5 -15q53 0 69 23t15 71l-1 12q0 6 7 6h4q5 0 5 -6l1 -12q1 -56 -18.5 -82.5t-81.5 -26.5q-51 0 -74 18.5t-28 58.5q-1 6 -1 18l-2 26q0 6 7 6h4q5 0 5 -6z" />
    <glyph glyph-name="dotaccent" unicode="&#x2d9;" horiz-adv-x="232" 
d="M202 674v-75q2 -6 -5 -6h-4q-7 0 -7 6v75q0 6 5 6h5q4 0 6 -6z" />
    <glyph glyph-name="ring" unicode="&#x2da;" horiz-adv-x="292" 
d="M275 631l1 -11q-2 -59 -87 -59q-38 0 -59.5 16.5t-23.5 40.5q-2 8 -2 21v12q-2 61 86 61q38 0 59.5 -17t24.5 -43q0 -3 0.5 -9.5t0.5 -11.5zM260 620l-1 11q0 5 -0.5 11t-0.5 9q-6 46 -68 46q-70 0 -70 -46v-12q0 -14 2 -20q4 -43 67 -43q69 0 71 44z" />
    <glyph glyph-name="ogonek" unicode="&#x2db;" horiz-adv-x="221" 
d="M164 -139h-18q-81 0 -88 61q-3 24 13.5 49.5t55.5 42.5q7 2 10 0l5 -4q5 -5 0 -7q-39 -13 -55 -36.5t-13 -45.5q5 -45 70 -45h18q6 0 7 -6v-3q1 -6 -5 -6z" />
    <glyph glyph-name="tilde" unicode="&#x2dc;" horiz-adv-x="434" 
d="M230 675q-23 0 -31 -14.5t-7 -53.5v-10q0 -6 -6 -6h-4q-6 0 -6 6v10q0 47 12 65t40 18q25 0 49 -24l44 -43q17 -17 34 -17q23 0 30.5 13.5t7.5 54.5v10q0 6 6 6h4q6 0 6 -6v-10q0 -47 -12.5 -65t-39.5 -18q-23 0 -49 24l-44 42q-20 18 -34 18z" />
    <glyph glyph-name="hungarumlaut" unicode="&#x2dd;" horiz-adv-x="334" 
d="M324 702l-84 -124q-3 -4 -7 -4h-4q-7 0 -3 6l80 122q4 6 9 6h6q7 0 3 -6zM248 702l-69 -122q-5 -6 -8 -6h-4q-6 0 -3 6l66 122q4 6 8 6h6q8 0 4 -6z" />
    <glyph glyph-name="Delta" unicode="&#x394;" horiz-adv-x="360" 
d="M95 403h146q20 0 23 -20l17 -146q3 -20 -17 -20h-146q-20 0 -23 20l-17 146q-3 20 17 20z" />
    <glyph glyph-name="Omega" unicode="&#x3a9;" horiz-adv-x="360" 
d="M70 309q-6 45 22 77.5t73 32.5t81.5 -32.5t42.5 -77.5q5 -45 -23.5 -77t-73.5 -32t-81 32t-41 77zM86 309q4 -39 34.5 -66t69.5 -27t63 27t20 66q-5 39 -36 66.5t-70 27.5t-62.5 -27.5t-18.5 -66.5z" />
    <glyph glyph-name="mu" unicode="&#x3bc;" 
d="M416 6l-2 49q-71 -63 -173 -63q-90 0 -121 55l2 -252q0 -6 -5 -6h-4q-7 0 -7 6v689q2 6 6 6h4q7 0 6 -6v-362v-31q5 -39 34.5 -61.5t84.5 -22.5q95 0 174 66l-1 411q0 6 6 6h4q7 0 6 -6v-478q0 -6 -5 -6h-2q-7 0 -7 6z" />
    <glyph glyph-name="pi" unicode="&#x3c0;" horiz-adv-x="360" 
d="M55 415h221q10 0 13 -9.5t-3 -18.5l-82 -167q-4 -8 -13 -8t-15 8l-124 167q-4 6 -6 12.5t0 11t9 4.5z" />
    <glyph glyph-name="uni10D0" unicode="&#x10d0;" horiz-adv-x="377" 
d="M134 694q0 -41 21 -82t51 -76.5t60 -72.5t51 -84t21 -96q0 -6 -1 -146q-1 -83 -25.5 -112.5t-106.5 -29.5h-39q-71 0 -101.5 21.5t-30.5 88.5v138q0 8 8 8t8 -8v-105q0 -80 21.5 -103.5t98.5 -23.5h31q69 0 94.5 24t25.5 96v151q0 47 -21 93t-51 82.5t-60 72.5t-51 78
t-21 85q0 1 3 4t5 3q9 0 9 -6z" />
    <glyph glyph-name="uni10D1" unicode="&#x10d1;" horiz-adv-x="390" 
d="M96 694q0 8 7 8q8 0 8 -7q0 -24 8.5 -40t21 -22t27 -13.5t27 -16t21 -29.5t8.5 -52v-22q44 0 70 -7.5t38 -27.5t15 -40.5t3 -60.5v-230q0 -89 -22 -114t-101 -25h-64q-73 0 -98.5 25t-25.5 114v247q0 71 29.5 95t120.5 24h19v23q0 34 -11.5 54t-28 27.5t-33 14.5t-28 25
t-11.5 50zM55 371v-241q2 -77 24.5 -98.5t101.5 -21.5h24q86 0 108 21.5t22 105.5v227q0 43 -4.5 66t-21 36t-38.5 16t-67 3h-19q-84 0 -107 -22.5t-23 -91.5z" />
    <glyph glyph-name="uni10D2" unicode="&#x10d2;" horiz-adv-x="396" 
d="M167 705q32 0 54 -8t33 -19t17 -32t7 -36.5t1 -42.5v-71q44 -4 61.5 -33.5t17.5 -90.5v-229q0 -91 -25 -119.5t-100 -28.5h-68q-80 0 -102.5 31.5t-22.5 108.5v244q0 73 30 97t103 24h31q41 0 59 -2v60q0 78 -18.5 104.5t-77.5 26.5q-60 0 -77 -22t-17 -86v-5q0 -6 -8 -6
t-8 6v14q0 62 21.5 88.5t88.5 26.5zM56 366v-43v-189q0 -73 23.5 -97.5t93.5 -24.5h52q74 0 95.5 25t21.5 102v224q0 77 -24.5 99.5t-104.5 22.5h-28q-77 0 -103 -21.5t-26 -97.5z" />
    <glyph glyph-name="uni10D3" unicode="&#x10d3;" horiz-adv-x="390" 
d="M160 706h77q72 0 96 -35t24 -111v-235q0 -71 -28.5 -98t-123.5 -27h-13q-73 0 -99 9.5t-37 31.5v-94q0 -86 23.5 -108.5t95.5 -22.5h176q6 0 6 -8t-6 -8h-184q-75 0 -101 26.5t-26 112.5v426q0 83 25 111.5t95 29.5zM56 562v-226q0 -40 3.5 -60t17.5 -35.5t40.5 -20
t74.5 -4.5h13q40 0 66 6t40.5 14t21 27.5t7.5 34t1 47.5v214q0 80 -26.5 105.5t-91.5 25.5h-49q-36 0 -54 -3t-35 -15.5t-23 -38.5t-6 -71z" />
    <glyph glyph-name="uni10D4" unicode="&#x10d4;" horiz-adv-x="391" 
d="M166 705h48q85 0 112 -26.5t27 -99.5v-455q0 -68 -24 -98.5t-89 -30.5h-76q-82 0 -105 25.5t-23 111.5v110q0 8 8 8t8 -8v-103q0 -81 20 -104.5t92 -23.5h63q66 0 88 26.5t22 95.5v442q0 72 -25.5 93t-102.5 21h-38q-62 0 -85.5 -26.5t-23.5 -106.5v-48q0 -8 -8 -8t-8 8
v59q0 78 24.5 108t95.5 30z" />
    <glyph glyph-name="uni10D5" unicode="&#x10d5;" horiz-adv-x="390" 
d="M161 705h69q69 -1 97.5 -27.5t28.5 -76.5v-77q0 -52 -13.5 -78.5t-47.5 -35.5q26 -7 40.5 -26.5t17.5 -39t3 -49.5v-166q0 -80 -27.5 -107t-97.5 -27h-77q-71 0 -97.5 26.5t-26.5 96.5v126q0 7 8 7t8 -7v-105q0 -77 22 -103t101 -26h53q34 0 51 3t35 14.5t25 38.5t7 72
v137q0 78 -20.5 102.5t-85.5 24.5h-45q-7 0 -7 8t7 8h43q58 0 83 20t25 82v76q0 49 -29 71.5t-99 22.5h-34q-74 0 -98 -25t-24 -104v-55q0 -6 -8 -6q-7 0 -7 6v80q0 60 27 89.5t93 29.5z" />
    <glyph glyph-name="uni10D6" unicode="&#x10d6;" horiz-adv-x="406" 
d="M123 705h25q61 -1 85.5 -26t24.5 -95q0 -55 -23 -84q88 0 113 -28t25 -107v-226q0 -39 -2 -60t-9 -40t-22 -27t-38.5 -12.5t-61.5 -4.5h-52q-48 0 -75 7.5t-39.5 29.5t-15.5 45.5t-3 71.5v222q0 70 29 102q-70 19 -70 102v24q0 57 27 81.5t82 24.5zM30 599v-22
q0 -85 70 -93q34 16 115 16q27 27 27 84q0 58 -18 82t-75 24h-27q-92 0 -92 -91zM71 356v-213q0 -88 24.5 -110t109.5 -22h18q37 0 55.5 1.5t37 7t25.5 18.5t11.5 33.5t4.5 53.5v240q0 70 -24 94.5t-104 24.5h-30q-80 0 -104 -25.5t-24 -102.5z" />
    <glyph glyph-name="uni10D7" unicode="&#x10d7;" horiz-adv-x="599" 
d="M154 705h61q44 0 71.5 -19t32.5 -55q18 74 110 74q75 0 103 -27t28 -104v-565q0 -8 -8 -8t-8 8v560q0 70 -21.5 95t-91.5 25q-57 0 -80.5 -25t-23.5 -99v-450q0 -60 -25 -90t-94 -30h-60q-63 0 -86.5 31.5t-23.5 88.5v469q0 64 26.5 92.5t89.5 28.5zM54 564v-428
q0 -72 21.5 -98.5t89.5 -26.5h31q69 0 92 27.5t23 93.5v435q0 73 -25.5 97.5t-82.5 24.5h-41q-60 0 -84 -26.5t-24 -98.5z" />
    <glyph glyph-name="uni10D8" unicode="&#x10d8;" horiz-adv-x="384" 
d="M158 704h67q35 0 59 -8.5t36 -18.5t18 -33.5t7 -39t1 -48.5v-548q0 -8 -8 -8t-8 8v555q0 79 -24.5 102t-100.5 23h-27q-39 0 -58.5 -3t-37 -16.5t-23.5 -40t-6 -72.5v-548q0 -8 -8 -8t-8 8v555q0 79 23 110t98 31z" />
    <glyph glyph-name="uni10D9" unicode="&#x10d9;" horiz-adv-x="380" 
d="M319 622v71q0 8 8 8t8 -7v-77q0 -61 -14 -88t-47 -37q31 -3 51 -28.5t20 -61.5v-265q0 -86 -25 -114t-98 -28h-71q-76 0 -99.5 29t-23.5 110v110q0 7 8 7t8 -8v-104q0 -79 23 -103.5t101 -24.5h29q42 0 62.5 3t39 15t24.5 36.5t6 67.5v251q0 54 -24.5 77t-85.5 23h-92
q-6 0 -6 7q0 8 6 8h93q59 0 79 26.5t20 96.5z" />
    <glyph glyph-name="uni10DA" unicode="&#x10da;" horiz-adv-x="390" 
d="M157 705h76q71 0 95.5 -29t24.5 -116v-357q0 -6 -8 -6t-8 6v366q0 43 -6.5 68t-24 36.5t-34.5 14t-52 2.5h-48q-69 0 -93.5 -22.5t-24.5 -105.5v-421q0 -80 23.5 -102.5t97.5 -22.5h172q7 0 7 -8t-7 -8h-182q-80 0 -103.5 29t-23.5 109v427q0 84 25 112t94 28z" />
    <glyph glyph-name="uni10DB" unicode="&#x10db;" horiz-adv-x="388" 
d="M159 705h75q75 0 96.5 -34t21.5 -115v-435q0 -74 -26.5 -100t-97.5 -26h-64q-74 0 -99 28.5t-25 108.5v250q0 70 27 94t112 24h34q62 0 87.5 -10.5t36.5 -33.5v119q0 72 -27 93t-91 21h-51q-65 0 -88.5 -16.5t-23.5 -78.5v-7q0 -5 -8 -5t-8 5v12q0 61 26.5 83.5
t92.5 22.5zM56 367v-230q0 -45 6 -70t24 -37.5t38.5 -15.5t62.5 -3h19q82 0 106.5 23t24.5 110v225q0 73 -25.5 94.5t-102.5 21.5h-26q-83 0 -105 -22.5t-22 -95.5z" />
    <glyph glyph-name="uni10DC" unicode="&#x10dc;" horiz-adv-x="385" 
d="M157 700h177q6 0 6 -7q0 -8 -6 -8h-180q-64 0 -82.5 -26.5t-18.5 -99.5v-106q11 22 36 33t45.5 12.5t58.5 1.5q97 0 127 -24.5t30 -109.5v-229q0 -85 -25 -113.5t-102 -28.5h-59q-82 0 -104.5 31t-22.5 104v449q0 70 26.5 95.5t93.5 25.5zM53 365v-228q0 -79 24.5 -102.5
t105.5 -23.5h20q81 0 106 22t25 103v231q0 73 -25 95t-100 22h-31q-46 0 -72 -6.5t-37.5 -25t-13.5 -34.5t-2 -53z" />
    <glyph glyph-name="uni10DD" unicode="&#x10dd;" horiz-adv-x="557" 
d="M159 705q57 0 83.5 -16.5t36.5 -56.5q15 73 110 73q73 0 102 -23.5t29 -106.5v-568q0 -7 -9 -7q-8 0 -8 7v559q0 79 -21.5 101t-86.5 22h-5q-58 0 -80.5 -24.5t-22.5 -95.5v-362q0 -8 -9 -8q-7 0 -7 8v359q0 74 -22.5 98.5t-80.5 24.5q-62 0 -87.5 -19.5t-25.5 -92.5
v-570q0 -7 -8 -7t-8 7v575q0 68 27.5 95.5t92.5 27.5z" />
    <glyph glyph-name="uni10DE" unicode="&#x10de;" horiz-adv-x="375" 
d="M141 694q0 -34 20.5 -57t50 -36.5t58.5 -27.5t49.5 -39.5t20.5 -62.5v-15q0 -102 -62 -117q72 -26 72 -123v-92q0 -68 -28 -98.5t-105 -30.5h-54q-80 0 -107 25.5t-27 114.5v109q0 8 8 8t8 -8v-108q0 -36 5.5 -59.5t13.5 -37t27 -19.5t36.5 -7.5t52.5 -1.5h20
q73 0 103.5 21.5t30.5 92.5v91q0 49 -24 81.5t-78 32.5h-86q-8 0 -8 8t8 8h58q67 0 93 21t26 93v11q0 33 -20.5 56t-49.5 37t-58.5 28.5t-50 40t-20.5 61.5q0 7 8 7q9 0 9 -7z" />
    <glyph glyph-name="uni10DF" unicode="&#x10df;" horiz-adv-x="408" 
d="M368 701v-565q0 -80 -23.5 -110.5t-102.5 -30.5h-66q-43 0 -69 8t-38 28.5t-15.5 42.5t-3.5 62v107q0 8 8 8t8 -8v-105q0 -78 24 -102.5t104 -24.5h31q78 0 102.5 22.5t24.5 104.5v548l-155 -47v-120q0 -78 -41.5 -105t-120.5 -27q-7 0 -7 8t7 8q78 0 112 25t34 95v111
l-90 -26q-7 0 -7 8q0 6 6 7l259 78h19z" />
    <glyph glyph-name="uni10E0" unicode="&#x10e0;" horiz-adv-x="558" 
d="M183 700h289q6 0 6 -8t-5 -8h-282q-66 0 -100.5 -30.5t-34.5 -104.5v-93q12 26 38 35t72 9q57 0 79.5 -17.5t33.5 -53.5q6 32 35.5 51.5t78.5 19.5q66 0 95.5 -26.5t29.5 -96.5v-369q0 -8 -8 -8t-8 8v361q0 61 -22 88.5t-87 27.5q-37 0 -60 -11t-32 -31.5t-11.5 -36
t-2.5 -39.5v-209q0 -8 -8 -8t-8 8v203q0 80 -26 101.5t-86 21.5t-81.5 -26.5t-21.5 -86.5v-362q0 -9 -8 -9t-8 9v548q0 143 143 143z" />
    <glyph glyph-name="uni10E1" unicode="&#x10e1;" horiz-adv-x="378" 
d="M38 135v560q0 8 8 8t8 -8v-554q0 -83 24 -106.5t109 -23.5h7q80 0 106.5 23t26.5 107v341q0 8 8 8t8 -8v-364q0 -67 -26.5 -95t-95.5 -28h-61q-43 0 -68.5 8.5t-36.5 29.5t-14 42t-3 60z" />
    <glyph glyph-name="uni10E2" unicode="&#x10e2;" horiz-adv-x="496" 
d="M175 -4q-69 0 -102 29t-33 119v401q0 75 27.5 113t107.5 38h69q0 2 -0.5 4t-0.5 4v8q0 4 8 4t8 -4v-8q0 -2 -0.5 -4t-0.5 -4h64q68 0 101.5 -30.5t33.5 -117.5v-401q0 -79 -27 -115t-108 -36h-147zM56 549v-400q0 -83 31 -110t100 -27h112q84 0 113 27.5t29 103.5v400
q0 83 -31 111t-100 28l-53 2q2 -20 2 -43v-283q0 -8 -8 -8t-8 8v283q0 23 2 43l-47 -2q-84 0 -113 -29t-29 -104z" />
    <glyph glyph-name="uni10E3" unicode="&#x10e3;" horiz-adv-x="439" 
d="M19 701h16q60 0 92 -14t41 -56q20 73 111 73q69 0 94.5 -27t25.5 -95v-427q0 -104 -23 -132t-114 -28h-75q-75 0 -105.5 23.5t-30.5 98.5v125q0 8 8 8t8 -8v-100q0 -85 25 -108t108 -23h49q48 0 74.5 5t40 22t16.5 37t3 62v432q0 72 -21.5 95.5t-82.5 23.5
q-49 0 -76.5 -25t-27.5 -98v-135q0 -6 -8 -6t-8 6v135q0 75 -24.5 97.5t-90.5 22.5h-25q-8 0 -8 8t8 8z" />
    <glyph glyph-name="uni10E4" unicode="&#x10e4;" horiz-adv-x="559" 
d="M369 11q78 0 107.5 27.5t29.5 109.5v141q0 86 -77 86h-42q-7 0 -7 8q0 7 7 7h42q43 0 59.5 29.5t16.5 87.5v74q0 36 -7.5 58.5t-24 32t-31 12t-39.5 2.5h-9q-16 0 -28.5 -2t-32 -11t-31 -32.5t-11.5 -59.5v-166q0 -63 -29 -89t-112 -26q-64 0 -95 28t-31 90v165
q0 71 36 96t98 25q109 0 125 -75q8 34 38.5 54.5t78.5 20.5q65 0 94 -27.5t29 -84.5v-80q0 -116 -60 -127q60 -11 60 -99v-140q0 -79 -28.5 -115t-108.5 -36h-106q-82 0 -109 37t-27 114v47q0 8 8 8t8 -8v-45q0 -78 29 -107.5t109 -29.5h71zM40 431q0 -66 27.5 -90.5
t82.5 -24.5q71 0 98 21t27 88v155q0 36 -10.5 59.5t-30.5 33t-37.5 12.5t-42.5 3q-114 0 -114 -107v-150z" />
    <glyph glyph-name="uni10E5" unicode="&#x10e5;" horiz-adv-x="389" 
d="M334 508v185q0 8 8 8t8 -8v-567q0 -30 -3 -48.5t-14 -40t-37.5 -32t-69.5 -10.5h-82q-68 0 -89.5 31.5t-21.5 107.5v108q0 8 8 8t8 -8v-104q0 -46 6 -71.5t24.5 -38t39 -15t63.5 -2.5h20q83 0 107.5 25t24.5 106v313q0 46 -31.5 72.5t-72.5 26.5h-42q-58 0 -83.5 -22
t-25.5 -95v-66q0 -5 -8 -5t-8 5v72q0 76 30.5 101.5t94.5 25.5h31q47 -1 77 -19.5t38 -42.5z" />
    <glyph glyph-name="uni10E6" unicode="&#x10e6;" horiz-adv-x="535" 
d="M152 705q54 0 80.5 -16t35.5 -48q10 36 42 50t62 14q76 0 100 -28.5t24 -92.5v-376q0 -8 -8 -8t-8 8v368q0 67 -22 90t-85 23q-58 0 -78 -29t-20 -95v-159q0 -7 -8 -7q-7 0 -7 7v168q0 72 -22 93.5t-85 21.5q-26 0 -41 -3t-29.5 -14.5t-21 -37t-6.5 -67.5v-409
q0 -83 33 -112.5t110 -29.5h200q8 0 8 -8t-8 -8h-209q-75 0 -112.5 31.5t-37.5 108.5v425q0 80 23.5 110t89.5 30z" />
    <glyph glyph-name="uni10E7" unicode="&#x10e7;" horiz-adv-x="391" 
d="M210 11q78 0 102.5 22.5t24.5 104.5v169q-18 -47 -134 -47h-16q-90 0 -120 22t-30 99v312q0 7 8 7t8 -7v-294q0 -78 23 -100.5t112 -22.5h14q85 0 110 22t25 93v302q0 8 8 8q7 0 9 -8v-557q0 -80 -23.5 -110.5t-103.5 -30.5h-66q-43 0 -69 8t-38 28.5t-15.5 42.5t-3.5 62
v27q0 8 8 8t8 -8v-25q0 -78 24 -102.5t104 -24.5h31z" />
    <glyph glyph-name="uni10E8" unicode="&#x10e8;" horiz-adv-x="396" 
d="M185 560q0 -7 -8 -7t-8 7v27q0 57 -24.5 76.5t-77.5 19.5h-25q-8 0 -8 8q0 6 8 8h16q56 0 82 -12.5t37 -48.5q15 66 85 66q59 0 76.5 -28t17.5 -100v-438q0 -85 -21.5 -114t-100.5 -29h-74q-72 0 -97 28.5t-25 99.5v252q0 78 32 100.5t123 22.5h7q72 0 99.5 -10t40.5 -35
v110q0 80 -15.5 102t-60.5 22q-37 0 -58 -22t-21 -78v-27zM54 361v-236q0 -69 22.5 -91.5t94.5 -22.5h51q74 0 96 22.5t22 104.5v225q0 75 -25 97t-110 22h-17q-83 0 -107.5 -22.5t-26.5 -98.5z" />
    <glyph glyph-name="uni10E9" unicode="&#x10e9;" horiz-adv-x="391" 
d="M178 705h18q79 0 104 -36t25 -116q0 -63 -20.5 -119t-82.5 -108q81 -2 107 -25.5t26 -101.5v-191q0 -8 -8 -8t-8 8v187q0 73 -23.5 94t-111.5 21h-13q-77 0 -106 -22t-29 -90v-191q0 -7 -8 -7t-8 7v573q0 70 31 97.5t107 27.5zM56 558v-287q18 55 131 55h12
q59 49 84.5 101.5t25.5 128.5q0 72 -22.5 102.5t-95.5 30.5h-7q-76 0 -102 -25.5t-26 -105.5z" />
    <glyph glyph-name="uni10EA" unicode="&#x10ea;" horiz-adv-x="397" 
d="M40 134v560q0 8 7 8q9 0 9 -9v-557q0 -44 6.5 -69.5t25.5 -37.5t40.5 -15t63.5 -3h13q43 0 64.5 3t40 16t25 38t6.5 70v218q0 74 -21 100.5t-96 26.5h-17q-8 0 -8 7q0 8 8 8h17q70 0 93 23.5t23 95.5v76q0 8 8 8t8 -8v-96q0 -94 -70 -106q44 -10 57.5 -40t13.5 -88v-228
q0 -84 -26 -112t-95 -28h-73q-42 0 -68 9.5t-37.5 31.5t-14.5 42t-3 56z" />
    <glyph glyph-name="uni10EB" unicode="&#x10eb;" horiz-adv-x="389" 
d="M333 457v235q0 7 8 7t8 -7v-560q0 -82 -20.5 -109.5t-98.5 -27.5h-74q-77 0 -98 30t-21 107v249q0 75 28 97t109 22h38q62 0 85.5 -10t35.5 -33zM53 367v-63v-173q0 -73 23 -96.5t101 -23.5h26q89 0 109.5 22t20.5 110v225q0 34 -6 56t-14 34.5t-27.5 18t-35 6.5t-49.5 1
h-15q-84 0 -108.5 -20t-24.5 -97z" />
    <glyph glyph-name="uni10EC" unicode="&#x10ec;" horiz-adv-x="402" 
d="M214 560v27q0 57 -18.5 76.5t-60.5 19.5q-46 0 -61 -20.5t-15 -99.5v-111q13 25 40.5 35t99.5 10h7q91 0 123 -22.5t32 -100.5v-251q0 -71 -25 -99.5t-97 -28.5h-74q-79 0 -100.5 29t-21.5 114v438q0 71 17.5 97.5t76.5 26.5q71 0 85 -62q11 36 37 48.5t82 12.5h16
q7 -1 7 -8q0 -8 -7 -8h-25q-53 0 -77.5 -19.5t-24.5 -76.5v-27q0 -7 -8 -7t-8 7zM345 139v221q0 76 -25.5 98.5t-108.5 22.5h-17q-85 0 -110 -22t-25 -97v-224q0 -82 22 -104.5t96 -22.5h51q72 0 94.5 22.5t22.5 91.5v14z" />
    <glyph glyph-name="uni10ED" unicode="&#x10ed;" horiz-adv-x="420" 
d="M195 11q78 0 102.5 22.5t24.5 104.5v111h-152q-69 0 -96.5 29.5t-27.5 103.5q0 65 30.5 91t94.5 26h151v193q0 9 8 9q9 0 9 -9v-193h57q7 0 7 -8q0 -7 -7 -7h-57v-220h57q7 0 7 -7q0 -8 -7 -8h-57v-113q0 -80 -23.5 -110.5t-103.5 -30.5h-63q-43 0 -69 8t-38 28.5
t-15.5 42.5t-3.5 62v27q0 8 8 8t8 -8v-25q0 -78 24 -102.5t104 -24.5h28zM63 383q0 -71 24.5 -95t97.5 -24h137v220h-137q-66 0 -94 -21t-28 -80z" />
    <glyph glyph-name="uni10EE" unicode="&#x10ee;" horiz-adv-x="389" 
d="M56 692v-235q12 23 35.5 33t85.5 10h38q81 0 109 -22t28 -97v-249q0 -77 -21 -107t-98 -30h-74q-78 0 -98.5 27.5t-20.5 109.5v560q0 7 8 7t8 -7zM336 304v63q0 77 -24.5 97t-108.5 20h-15q-41 0 -59.5 -2t-38.5 -12t-27 -32.5t-7 -62.5v-232q0 -48 3 -70t17 -38.5
t38 -20t72 -3.5h26q78 0 101 23.5t23 96.5v173z" />
    <glyph glyph-name="uni10EF" unicode="&#x10ef;" horiz-adv-x="386" 
d="M175 500v194q0 8 8 8t8 -8v-194h128q7 0 7 -8t-7 -8h-128v-136h43q117 0 117 -113v-106q0 -80 -27.5 -107t-97.5 -27h-67q-71 0 -97.5 26.5t-26.5 96.5v126q0 7 8 7t8 -7v-105q0 -77 22 -103t101 -26h43q34 0 51 3t35 14.5t25 38.5t7 72v77q0 64 -24 90.5t-82 26.5h-40
q-14 0 -14 11v141h-120q-7 0 -7 8t7 8h120z" />
    <glyph glyph-name="uni10F0" unicode="&#x10f0;" horiz-adv-x="390" 
d="M187 450q-8 0 -8 8t8 8h20q66 0 97 15.5t31 62.5q0 33 -23 50t-56 22.5t-66.5 10t-56.5 20.5t-23 46q0 7 8 7t8 -7q0 -25 23.5 -37.5t56.5 -17t66 -10.5t56.5 -26.5t23.5 -58.5q0 -71 -69 -84q72 -8 72 -106q0 -28 -6.5 -47.5t-18.5 -29t-21.5 -13.5t-22.5 -6
q14 -3 23 -7.5t20.5 -13.5t17.5 -27.5t6 -44.5v-66q0 -65 -28.5 -84t-99.5 -19h-66q-46 0 -73 8.5t-38.5 30t-14.5 42t-3 60.5v57q0 7 8 7t8 -6v-54q0 -74 22 -101.5t98 -27.5h52q66 0 92.5 16.5t26.5 69.5v63q0 50 -28 70t-91 20h-31q-8 0 -8 8t8 8h18q79 0 106 15t27 72
t-22 77t-87 20h-42z" />
    <glyph glyph-name="Wgrave" unicode="&#x1e80;" horiz-adv-x="770" 
d="M447 674l149 -582q2 -9 5.5 -24.5t6 -26t3.5 -11.5q0 7 15 62l149 582q1 6 7 6h5q6 0 5 -6l-170 -668q-2 -6 -8 -6h-5q-7 0 -8 6l-150 589l-13 53q-9 -37 -13 -53l-150 -589q-1 -6 -8 -6h-5q-6 0 -8 6l-170 668q-2 6 5 6h4q4 0 7 -6l149 -582l15 -64q12 47 16 64l149 582
q1 6 7 6h4q4 0 7 -6zM422 747l-85 125q-3 6 4 6h6q5 0 7 -4l81 -125q5 -5 -1 -5h-5q-5 0 -7 3z" />
    <glyph glyph-name="wgrave" unicode="&#x1e81;" horiz-adv-x="604" 
d="M611 490h6q4 0 4 -6l-133 -478q-2 -6 -7 -6h-4q-4 0 -7 6l-116 424q-9 31 -10 44q-10 -37 -12 -45l-119 -423q-1 -6 -7 -6h-4q-4 0 -7 6l-128 478q-2 6 4 6h6q4 0 7 -6l113 -421l9 -36q4 24 8 36l117 421q1 6 7 6h12q4 0 7 -6l113 -421l9 -34q1 4 3.5 16.5t4.5 17.5
l117 421q2 6 7 6zM324 577l-84 125q-3 6 3 6h6q4 0 8 -4l81 -125q3 -5 -2 -5h-5q-5 0 -7 3z" />
    <glyph glyph-name="Wacute" unicode="&#x1e82;" horiz-adv-x="770" 
d="M447 674l149 -582q2 -9 5.5 -24.5t6 -26t3.5 -11.5q0 7 15 62l149 582q1 6 7 6h5q6 0 5 -6l-170 -668q-2 -6 -8 -6h-5q-7 0 -8 6l-150 589l-13 53q-9 -37 -13 -53l-150 -589q-1 -6 -8 -6h-5q-6 0 -8 6l-170 668q-2 6 5 6h4q4 0 7 -6l149 -582l15 -64q12 47 16 64l149 582
q1 6 7 6h4q4 0 7 -6zM527 872l-83 -125q-3 -3 -6 -3h-7q-5 0 -3 5l83 125q4 4 7 4h7q8 0 2 -6z" />
    <glyph glyph-name="wacute" unicode="&#x1e83;" horiz-adv-x="604" 
d="M611 490h6q4 0 4 -6l-133 -478q-2 -6 -7 -6h-4q-4 0 -7 6l-116 424q-9 31 -10 44q-10 -37 -12 -45l-119 -423q-1 -6 -7 -6h-4q-4 0 -7 6l-128 478q-2 6 4 6h6q4 0 7 -6l113 -421l9 -36q4 24 8 36l117 421q1 6 7 6h12q4 0 7 -6l113 -421l9 -34q1 4 3.5 16.5t4.5 17.5
l117 421q2 6 7 6zM430 702l-84 -125q-3 -3 -6 -3h-7q-5 0 -2 5l83 125q2 4 6 4h7q7 0 3 -6z" />
    <glyph glyph-name="Wdieresis" unicode="&#x1e84;" horiz-adv-x="770" 
d="M446 674l149 -582q3 -10 6.5 -25t6 -25.5t2.5 -11.5q0 7 15 62l149 582q2 6 7 6h5q6 0 5 -6l-170 -668q-1 -6 -7 -6h-5q-7 0 -9 6l-149 589l-14 53q-8 -37 -12 -53l-151 -589q-2 -6 -7 -6h-5q-8 0 -9 6l-170 668q-2 6 5 6h4q4 0 7 -6l149 -582l15 -64q12 47 16 64
l149 582q2 6 7 6h4q4 0 7 -6zM396 860v-100q0 -6 -6 -6h-4q-4 0 -6 6v100q2 6 6 6h4q6 0 6 -6zM475 860v-100q0 -6 -6 -6h-4q-5 0 -6 6v100q1 6 6 6h4q6 0 6 -6z" />
    <glyph glyph-name="wdieresis" unicode="&#x1e85;" horiz-adv-x="604" 
d="M610 490h6q7 0 4 -6l-132 -478q-3 -6 -8 -6h-4q-4 0 -6 6l-116 424q-8 29 -11 44q-9 -37 -11 -45l-119 -423q-3 -6 -8 -6h-4q-5 0 -6 6l-129 478q0 6 4 6h6q6 0 7 -6l114 -421l8 -36l3 12l3.5 14l2.5 10l116 421q3 6 7 6h12q5 0 7 -6l114 -421l9 -34q3 20 8 34l116 421
q3 6 7 6zM304 694l1 -100q-1 -6 -7 -6h-4q-5 0 -5 6l-1 100q2 6 7 6h4q5 0 5 -6zM383 694l1 -100q-2 -6 -7 -6h-4q-5 0 -5 6l-1 100q1 6 7 6h4q5 0 5 -6z" />
    <glyph glyph-name="Ygrave" unicode="&#x1ef2;" horiz-adv-x="493" 
d="M96 674l191 -344q6 -10 13 -25q7 16 12 25l190 344q2 6 8 6h6q8 0 4 -6l-212 -382v-286q0 -6 -6 -6h-4q-6 0 -6 6v285l-213 383q-4 6 4 6h5q4 0 8 -6zM280 747l-85 125q-3 6 4 6h6q5 0 7 -4l81 -125q5 -5 -1 -5h-5q-5 0 -7 3z" />
    <glyph glyph-name="ygrave" unicode="&#x1ef3;" horiz-adv-x="396" 
d="M71 484l145 -421l13 -37q7 28 10 37l145 421q2 6 7 6h5q6 0 5 -6l-236 -689q-1 -6 -7 -6h-6q-6 0 -4 6l72 208l-165 481q-4 6 3 6h6q4 0 7 -6zM205 577l-84 125q-3 6 3 6h6q4 0 8 -4l81 -125q3 -5 -1 -5h-5q-7 0 -8 3z" />
    <glyph glyph-name="endash" unicode="&#x2013;" horiz-adv-x="557" 
d="M135 297h353q6 0 6 -6l1 -3q0 -6 -6 -6h-353q-6 0 -6 6l-1 3q0 6 6 6z" />
    <glyph glyph-name="emdash" unicode="&#x2014;" horiz-adv-x="865" 
d="M135 297h661q6 0 6 -6l1 -3q0 -6 -6 -6h-661q-6 0 -6 6l-1 3q0 6 6 6z" />
    <glyph glyph-name="quoteleft" unicode="&#x2018;" horiz-adv-x="196" 
d="M175 610v-55q-1 -6 -7 -6h-4q-6 0 -5 6v55q-2 71 62 97q5 2 7 -2l3 -4q2 -5 -3 -8q-30 -15 -41.5 -34.5t-11.5 -48.5z" />
    <glyph glyph-name="quoteright" unicode="&#x2019;" horiz-adv-x="196" 
d="M170 647v55q2 6 7 6h4q7 0 5 -6v-55q2 -71 -62 -97q-5 -2 -7 2l-3 4q-2 4 3 8q53 26 53 83z" />
    <glyph glyph-name="quotesinglbase" unicode="&#x201a;" horiz-adv-x="196" 
d="M90 26v55q2 6 7 6h4q7 0 5 -6v-55q2 -71 -62 -97q-5 -2 -7 2l-3 4q-2 5 3 8q30 15 41.5 34.5t11.5 48.5z" />
    <glyph glyph-name="quotedblleft" unicode="&#x201c;" horiz-adv-x="302" 
d="M281 610v-55q-1 -6 -7 -6h-4q-6 0 -5 6v55q-2 71 62 97q5 2 7 -2l3 -4q2 -5 -3 -8q-30 -15 -41.5 -34.5t-11.5 -48.5zM175 610v-55q-1 -6 -7 -6h-4q-6 0 -5 6v55q-2 71 62 97q5 2 7 -2l3 -4q2 -5 -3 -8q-30 -15 -41.5 -34.5t-11.5 -48.5z" />
    <glyph glyph-name="quotedblright" unicode="&#x201d;" horiz-adv-x="302" 
d="M276 647v55q2 6 7 6h4q7 0 5 -6v-55q2 -71 -62 -97q-5 -2 -7 2l-3 4q-2 4 3 8q53 26 53 83zM170 647v55q2 6 7 6h4q7 0 5 -6v-55q2 -71 -62 -97q-5 -2 -7 2l-3 4q-2 4 3 8q53 26 53 83z" />
    <glyph glyph-name="quotedblbase" unicode="&#x201e;" horiz-adv-x="302" 
d="M196 26v55q2 6 7 6h4q7 0 5 -6v-55q2 -71 -62 -97q-5 -2 -7 2l-3 4q-2 5 3 8q30 15 41.5 34.5t11.5 48.5zM90 26v55q2 6 7 6h4q7 0 5 -6v-55q2 -71 -62 -97q-5 -2 -7 2l-3 4q-2 5 3 8q30 15 41.5 34.5t11.5 48.5z" />
    <glyph glyph-name="dagger" unicode="&#x2020;" horiz-adv-x="496" 
d="M298 693l1 -687q-1 -6 -7 -6h-4q-6 0 -5 6l-1 687q2 6 7 6h4q7 0 5 -6zM154 490h104q6 0 7 -6v-3q1 -6 -5 -6h-104q-6 0 -7 6v3q-1 6 5 6zM318 490h104q6 0 7 -6v-3q1 -6 -5 -6h-104q-6 0 -7 6v3q-1 6 5 6z" />
    <glyph glyph-name="daggerdbl" unicode="&#x2021;" horiz-adv-x="496" 
d="M299 693l1 -687q-2 -6 -7 -6h-4q-7 0 -5 6l-1 687q1 6 7 6h4q6 0 5 -6zM150 484q-2 6 5 6h104q5 0 7 -6v-3q2 -6 -5 -6h-104q-5 0 -7 6v3zM430 484v-3q2 -6 -5 -6h-104q-5 0 -7 6v3q-2 6 5 6h104q5 0 7 -6zM149 220q0 6 6 6h104q6 0 6 -6l1 -3q0 -6 -5 -6h-104q-7 0 -7 6
zM429 220l1 -3q0 -6 -5 -6h-104q-7 0 -7 6l-1 3q0 6 6 6h104q6 0 6 -6z" />
    <glyph glyph-name="bullet" unicode="&#x2022;" horiz-adv-x="232" 
d="M153 312l1 -115q-2 -6 -7 -6h-4q-5 0 -5 6l-1 115q1 6 7 6h4q5 0 5 -6z" />
    <glyph glyph-name="ellipsis" unicode="&#x2026;" horiz-adv-x="691" 
d="M111 81v-75q1 -6 -5 -6h-4q-7 0 -7 6v75q0 6 5 6h5q5 0 6 -6zM606 81v-75q2 -6 -5 -6h-4q-7 0 -7 6v75q0 6 5 6h5q4 0 6 -6zM359 81v-75q1 -6 -5 -6h-4q-7 0 -7 6v75q0 6 5 6h5q5 0 6 -6z" />
    <glyph glyph-name="perthousand" unicode="&#x2030;" horiz-adv-x="988" 
d="M136 495v111q-2 80 118 80q108 0 116 -67q1 -4 1 -21v-110q0 -39 -26 -59.5t-91 -20.5q-109 0 -117 67q0 1 -0.5 9t-0.5 11zM355 488v111q0 14 -1 17q-5 56 -100 56q-104 0 -102 -66v-116q0 -7 1 -13q5 -55 101 -55q103 0 101 66zM625 72v111v17q-7 56 -101 56
q-104 0 -102 -66v-116q0 -7 1 -13q7 -55 101 -55q103 0 101 66zM406 79v111q-2 80 118 80q108 0 116 -67q1 -4 1 -21v-110q0 -39 -26 -59.5t-91 -20.5q-109 0 -117 67q0 1 -0.5 9t-0.5 11zM916 72v111v17q-7 56 -101 56q-104 0 -102 -66v-116q0 -7 1 -13q7 -55 101 -55
q103 0 101 66zM697 79v111q-2 80 118 80q108 0 116 -67q1 -4 1 -21v-110q0 -39 -26 -59.5t-91 -20.5q-109 0 -117 67q0 1 -0.5 9t-0.5 11zM540 674l-289 -668q-1 -6 -7 -6h-6q-4 0 -4 6l289 668q5 6 9 6h5q7 0 3 -6z" />
    <glyph glyph-name="guilsinglleft" unicode="&#x2039;" horiz-adv-x="418" 
d="M136 245l176 -133q6 -5 6 -8v-9q0 -6 -6 -2l-187 144q-5 4 -5 8v1q-1 3 5 9l187 144q4 2 6 -2v-8q0 -5 -6 -9z" />
    <glyph glyph-name="guilsinglright" unicode="&#x203a;" horiz-adv-x="418" 
d="M321 246l-176 133q-6 4 -6 8v9q0 6 6 2l187 -144q5 -4 5 -8l1 -1q0 -3 -6 -9l-187 -144q-4 -2 -6 2v8q0 4 6 9z" />
    <glyph glyph-name="fraction" unicode="&#x2044;" horiz-adv-x="428" 
d="M407 674l-288 -668q-3 -6 -8 -6h-6q-5 0 -3 6l288 668q4 6 9 6h5q7 0 3 -6z" />
    <glyph glyph-name="Euro" unicode="&#x20ac;" horiz-adv-x="521" 
d="M75 293h93l-1 96h-93q-5 0 -5 6l-1 3q0 6 7 6h93v153q0 63 41.5 97t148.5 34q96 0 139.5 -28.5t49.5 -81.5q2 -14 2 -21l-1 -54q2 -6 -5 -6h-4q-5 0 -7 6l1 54q0 3 -0.5 9.5t-0.5 9.5q-12 97 -174 97q-97 0 -135.5 -30.5t-38.5 -85.5v-153h170q6 0 6 -6l1 -3q0 -6 -7 -6
h-171l1 -96h170q6 0 6 -6v-3q2 -6 -5 -6h-171v-155q0 -6 2 -20q10 -96 171 -96q98 0 137 30.5t39 85.5v65q0 6 5 6h4q7 0 7 -6v-65q0 -63 -42 -97t-149 -34q-176 0 -189 108q-1 7 -1 23v155h-92q-6 0 -7 6v3q0 6 6 6z" />
    <glyph glyph-name="afii61289" unicode="&#x2113;" horiz-adv-x="486" 
d="M200 112v156q-86 -45 -150 -66q-3 -2 -7 2l-2 4q-3 5 2 8l9 3q9 3 23.5 9t33.5 14t43.5 19.5t47.5 24.5l1 263q1 65 26.5 98t98.5 33q118 0 130 -98q1 -5 1.5 -16.5t0.5 -16.5q2 -142 -242 -273v-164q0 -3 0.5 -8.5t0.5 -7.5q10 -81 146 -81h83q6 0 6 -6l1 -3q0 -6 -6 -6
h-83q-150 0 -162 93q-2 12 -2 19zM217 549l-1 -255q228 127 226 255q0 5 -0.5 15t-1.5 15q-10 86 -114 86q-65 0 -87 -29.5t-22 -86.5z" />
    <glyph glyph-name="trademark" unicode="&#x2122;" horiz-adv-x="871" 
d="M789 675v-398q0 -5 -4 -5h-6q-6 0 -6 5v365l-2 -5q-2 -5 -4 -10.5t-3 -8.5l-127 -279q-2 -5 -7 -5h-7q-4 0 -7 5l-129 281l-8 22v-365q0 -5 -4 -5h-6q-5 0 -5 5v398q0 5 4 5h5q4 0 6 -6l139 -301q4 -8 8 -22q0 4 9 22l136 302q3 5 6 5h7q5 0 5 -5zM139 680h268q6 0 6 -5
l1 -5q0 -4 -6 -4h-127v-389q0 -5 -4 -5h-6q-6 0 -6 5v389h-124q-6 0 -6 4l-1 5q0 5 5 5z" />
    <glyph glyph-name="uni2126" unicode="&#x2126;" horiz-adv-x="360" 
d="M70 309q-6 45 22 77.5t73 32.5t81.5 -32.5t42.5 -77.5q5 -45 -23.5 -77t-73.5 -32t-81 32t-41 77zM86 309q4 -39 34.5 -66t69.5 -27t63 27t20 66q-5 39 -36 66.5t-70 27.5t-62.5 -27.5t-18.5 -66.5z" />
    <glyph glyph-name="estimated" unicode="&#x212e;" horiz-adv-x="833" 
d="M798 340q2 -16 -14 -16h-611l21 -165q53 -70 131 -111t165 -41q146 0 237 114q5 5 9 5q5 0 5 -5q1 -4 -5 -14q-39 -53 -103.5 -84t-140.5 -31q-144 0 -258.5 102t-131.5 246q-18 144 71.5 246t233.5 102q142 0 257.5 -102t133.5 -246zM409 672q-86 0 -154.5 -41.5
t-104.5 -111.5l22 -180h557l-22 176q-54 71 -133 114t-165 43z" />
    <glyph glyph-name="partialdiff" unicode="&#x2202;" horiz-adv-x="360" 
d="M101 201l-27 221q-1 10 8 11.5t19 -4.5l180 -103q9 -5 10 -14t-7 -14l-154 -103q-8 -6 -18 -5t-11 11z" />
    <glyph glyph-name="uni2206" unicode="&#x2206;" horiz-adv-x="360" 
d="M95 403h146q20 0 23 -20l17 -146q3 -20 -17 -20h-146q-20 0 -23 20l-17 146q-3 20 17 20z" />
    <glyph glyph-name="product" unicode="&#x220f;" horiz-adv-x="360" 
d="M303 209h-221q-10 0 -13 9.5t3 18.5l82 167q4 8 13 8t15 -8l124 -167q4 -6 6 -12.5t0 -11t-9 -4.5z" />
    <glyph glyph-name="summation" unicode="&#x2211;" horiz-adv-x="360" 
d="M258 422l27 -221q1 -10 -8 -11t-19 5l-180 103q-9 5 -10 14t7 14l154 103q6 4 12 5t11 -2t6 -10z" />
    <glyph glyph-name="minus" unicode="&#x2212;" horiz-adv-x="594" 
d="M142 347h390q6 0 6 -6l1 -3q0 -6 -6 -6h-390q-6 0 -6 6l-1 3q0 6 6 6z" />
    <glyph glyph-name="radical" unicode="&#x221a;" horiz-adv-x="360" 
d="M94 411h146q28 0 32 -28l17 -146q4 -28 -24 -28h-146q-28 0 -32 28l-17 146q-4 28 24 28zM242 395h-146q-12 0 -10 -12l17 -146q1 -12 14 -12h146q11 0 10 12l-17 146q-2 12 -14 12z" />
    <glyph glyph-name="infinity" unicode="&#x221e;" horiz-adv-x="360" 
d="M54 330l90 103q9 10 19 10t21 -10l116 -103q12 -10 12 -20q1 -10 -7 -20l-90 -103q-11 -11 -19 -11q-10 0 -21 11l-116 103q-13 11 -14 20q0 10 9 20zM158 422l-92 -104q-3 -4 -3 -8q2 -6 5 -8l117 -104q4 -4 9 -4q4 0 7 4l91 104q4 4 3 8q0 3 -5 8l-116 104q-8 4 -9 4
q-5 0 -7 -4z" />
    <glyph glyph-name="integral" unicode="&#x222b;" horiz-adv-x="360" 
d="M34 309q-8 61 29 104t98 43t109 -43t56 -104q7 -60 -31 -102.5t-99 -42.5t-107.5 42t-54.5 103z" />
    <glyph glyph-name="approxequal" unicode="&#x2248;" horiz-adv-x="471" 
d="M166 426q-23 0 -29.5 -13.5t-2.5 -54.5l2 -10q0 -6 -6 -6h-4q-6 0 -6 6l-2 10q-6 46 6 64.5t40 18.5q18 0 53 -20l85 -50q24 -14 42 -14q23 0 28.5 13.5t0.5 54.5l-1 10q-2 6 5 6h4q5 0 7 -6l1 -10q6 -47 -5 -65t-39 -18q-20 0 -56 21l-85 50q-26 13 -38 13zM182 292
q-23 0 -29.5 -13.5t-1.5 -54.5l1 -10q2 -6 -5 -6h-4q-5 0 -7 6l-1 10q-6 46 6 64.5t40 18.5q19 0 52 -20l85 -50q24 -14 42 -14q23 0 29 13t1 55l-2 10q0 6 6 6h4q6 0 6 -6l2 -10q6 -47 -5 -65t-39 -18q-19 0 -57 21l-85 50q-26 13 -38 13z" />
    <glyph glyph-name="notequal" unicode="&#x2260;" horiz-adv-x="594" 
d="M122 425h219l23 80q2 6 8 6h3q7 0 4 -6l-22 -80h155q6 0 7 -6v-3q1 -6 -5 -6h-161l-40 -140h218q5 0 7 -6v-3q2 -6 -5 -6h-224l-22 -80q-3 -6 -9 -6h-3q-5 0 -3 6l22 80h-151q-5 0 -7 6v3q-2 6 5 6h157l39 140h-213q-6 0 -7 6v3q-1 6 5 6z" />
    <glyph glyph-name="lessequal" unicode="&#x2264;" horiz-adv-x="553" 
d="M447 528l-320 -137l354 -137q6 -3 7 -7v-6q1 -3 -1 -3.5t-4 0.5l-367 144q-6 3 -7 7v4q-1 4 5 7l331 144q6 2 7 -3v-6q1 -4 -5 -7zM144 163h348q6 0 7 -6v-3q1 -6 -5 -6h-348q-6 0 -7 6v3q-1 6 5 6z" />
    <glyph glyph-name="greaterequal" unicode="&#x2265;" horiz-adv-x="553" 
d="M451 391l-354 137q-6 3 -7 7v6q-1 3 1 3.5t4 -0.5l367 -144q6 -3 7 -7v-4q1 -4 -5 -7l-331 -144q-6 -2 -7 3v6q-1 4 5 7zM142 163h348q6 0 7 -6v-3q1 -6 -5 -6h-348q-6 0 -7 6v3q-1 6 5 6z" />
    <glyph glyph-name="lozenge" unicode="&#x25ca;" horiz-adv-x="360" 
d="M61 324l90 103q6 7 13 7t15 -7l116 -103q8 -8 8 -14q1 -8 -5 -14l-90 -103q-8 -8 -13 -8q-7 0 -15 8l-116 103q-9 9 -10 14q0 7 7 14z" />
    <glyph glyph-name="CR" horiz-adv-x="0" 
 />
    <glyph glyph-name="commaaccent" horiz-adv-x="253" 
d="M109 56v25q-1 6 6 6h4q5 0 6 -6v-25q0 -43 -33 -105q-4 -5 -8 -3l-4 2q-5 3 -2 8q30 60 31 98z" />
    <glyph glyph-name="acute.case" horiz-adv-x="250" 
d="M173 872l-84 -125q-3 -3 -5 -3h-7q-6 0 -3 5l83 125q4 4 6 4h7q9 0 3 -6z" />
    <glyph glyph-name="macron.case" horiz-adv-x="250" 
d="M-8 807h267q6 0 6 -5l1 -4q0 -6 -7 -6h-267q-6 0 -6 6l-1 3q0 6 7 6z" />
    <glyph glyph-name="breve.case" horiz-adv-x="250" 
d="M32 872l2 -26q0 -14 1 -18q4 -32 22.5 -47t63.5 -15q53 0 69 23t15 71l-1 12q0 6 7 6h4q5 0 5 -6l1 -12q1 -56 -18.5 -82.5t-81.5 -26.5q-51 0 -74 18.5t-28 58.5q-1 6 -1 18l-2 26q0 6 7 6h4q5 0 5 -6z" />
    <glyph glyph-name="caron.case" horiz-adv-x="250" 
d="M39 872l76 -114l77 114q4 6 8 6h6q9 0 3 -6l-81 -123q-3 -5 -8 -5h-6q-6 0 -10 6l-81 122q-4 6 3 6h5q5 0 8 -6z" />
    <glyph glyph-name="ring.case" horiz-adv-x="250" 
d="M210 798l1 -11q-2 -59 -87 -59q-38 0 -59.5 16.5t-23.5 40.5q-2 8 -2 21v12q-2 61 86 61q38 0 59.5 -17t24.5 -43q0 -3 0.5 -9.5t0.5 -11.5zM195 787l-1 11q0 6 -0.5 12t-0.5 8q-6 46 -68 46q-70 0 -70 -46v-12q0 -14 2 -20q4 -43 67 -43q69 0 71 44z" />
    <glyph glyph-name="circumflex.case" horiz-adv-x="250" 
d="M132 864l-77 -114q-4 -6 -7 -6h-6q-8 0 -4 6l80 122q4 6 9 6h7q6 0 9 -5l81 -123q4 -6 -2 -6h-4q-5 0 -10 6z" />
    <glyph glyph-name="tilde.case" horiz-adv-x="250" 
d="M62 848q-23 0 -31 -14.5t-7 -53.5v-10q0 -6 -6 -6h-4q-6 0 -6 6v10q0 47 12 65t40 18q25 0 49 -24l44 -43q17 -17 34 -17q23 0 30.5 13.5t7.5 54.5v10q0 6 6 6h4q6 0 6 -6v-10q0 -47 -12.5 -65t-39.5 -18q-23 0 -49 24l-44 42q-20 18 -34 18z" />
    <glyph glyph-name="dieresis.case" horiz-adv-x="250" 
d="M92 860l1 -100q-1 -6 -7 -6h-4q-5 0 -5 6l-1 100q2 6 7 6h4q5 0 5 -6zM171 860l1 -100q-2 -6 -7 -6h-4q-5 0 -5 6l-1 100q1 6 7 6h4q5 0 5 -6z" />
    <glyph glyph-name="dotaccent.case" horiz-adv-x="250" 
d="M133 838v-75q1 -6 -5 -6h-4q-7 0 -7 6v75q0 6 5 6h5q5 0 6 -6z" />
    <glyph glyph-name="grave.case" horiz-adv-x="250" 
d="M159 747l-84 125q-3 6 3 6h6q6 0 8 -4l81 -125q3 -5 -1 -5h-5q-5 0 -8 3z" />
    <glyph glyph-name="hungarumlaut.case" horiz-adv-x="250" 
d="M204 872l-83 -124q-3 -4 -7 -4h-5q-7 0 -3 6l80 122q4 6 9 6h6q7 0 3 -6zM127 872l-68 -122q-5 -6 -8 -6h-4q-6 0 -3 6l66 122q4 6 8 6h5q8 0 4 -6z" />
    </font>
</defs>
</svg>
